RecursiveSans-StrictBold.ufo
<glyph name="exclam" format="1">
  <advance width="350"/>
  <unicode hex="0021"/>
  <outline>
    <contour>
      <point x="224" y="281" type="line"/>
      <point x="234" y="355"/>
      <point x="245" y="428"/>
      <point x="256" y="502" type="curve"/>
      <point x="256" y="689" type="line" smooth="yes"/>
      <point x="256" y="696"/>
      <point x="251" y="700"/>
      <point x="245" y="700" type="curve" smooth="yes"/>
      <point x="182" y="700"/>
      <point x="132" y="700"/>
      <point x="94" y="700" type="curve"/>
      <point x="94" y="662"/>
      <point x="94" y="627"/>
      <point x="94" y="590" type="curve" smooth="yes"/>
      <point x="94" y="502" type="line"/>
      <point x="123" y="291"/>
      <point x="125" y="288"/>
      <point x="129" y="284" type="curve" smooth="yes"/>
      <point x="131" y="282"/>
      <point x="133" y="281"/>
      <point x="137" y="281" type="curve"/>
    </contour>
    <contour>
      <point x="268" y="-9" type="curve"/>
      <point x="268" y="166" type="line" smooth="yes"/>
      <point x="268" y="172"/>
      <point x="263" y="177"/>
      <point x="257" y="177" type="curve" smooth="yes"/>
      <point x="200" y="177"/>
      <point x="139" y="177"/>
      <point x="82" y="177" type="curve"/>
      <point x="82" y="2" type="line" smooth="yes"/>
      <point x="82" y="-4"/>
      <point x="87" y="-9"/>
      <point x="93" y="-9" type="curve" smooth="yes"/>
      <point x="150" y="-9"/>
      <point x="211" y="-9"/>
    </contour>
  </outline>
</glyph>
<glyph name="quotedbl" format="1">
  <advance width="600"/>
  <unicode hex="0022"/>
  <outline>
    <contour>
      <point x="233" y="450" type="curve"/>
      <point x="256" y="737" type="line" smooth="yes"/>
      <point x="257" y="746"/>
      <point x="252" y="750"/>
      <point x="246" y="750" type="curve" smooth="yes"/>
      <point x="201" y="750"/>
      <point x="152" y="750"/>
      <point x="97" y="750" type="curve"/>
      <point x="100" y="714"/>
      <point x="102" y="683"/>
      <point x="105" y="648" type="curve" smooth="yes"/>
      <point x="120" y="461" type="line" smooth="yes"/>
      <point x="121" y="454"/>
      <point x="126" y="450"/>
      <point x="132" y="450" type="curve" smooth="yes"/>
      <point x="166" y="450"/>
      <point x="199" y="450"/>
    </contour>
    <contour>
      <point x="479" y="450" type="curve"/>
      <point x="502" y="737" type="line" smooth="yes"/>
      <point x="503" y="746"/>
      <point x="498" y="750"/>
      <point x="492" y="750" type="curve" smooth="yes"/>
      <point x="447" y="750"/>
      <point x="398" y="750"/>
      <point x="343" y="750" type="curve"/>
      <point x="366" y="461" type="line"/>
      <point x="367" y="454"/>
      <point x="372" y="450"/>
      <point x="378" y="450" type="curve" smooth="yes"/>
      <point x="412" y="450"/>
      <point x="445" y="450"/>
    </contour>
  </outline>
</glyph>
<glyph name="numbersign" format="1">
  <advance width="600"/>
  <unicode hex="0023"/>
  <outline>
    <contour>
      <point x="210" y="720" type="curve"/>
      <point x="161" y="474"/>
      <point x="111" y="226"/>
      <point x="62" y="-20" type="curve"/>
      <point x="93" y="-20"/>
      <point x="124" y="-20"/>
      <point x="156" y="-20" type="curve"/>
      <point x="163" y="-20"/>
      <point x="168" y="-19"/>
      <point x="170" y="-9" type="curve" smooth="yes"/>
      <point x="218" y="230"/>
      <point x="267" y="470"/>
      <point x="314" y="709" type="curve" smooth="yes"/>
      <point x="316" y="718"/>
      <point x="312" y="720"/>
      <point x="305" y="720" type="curve" smooth="yes"/>
      <point x="274" y="720"/>
      <point x="240" y="720"/>
    </contour>
    <contour>
      <point x="435" y="720" type="curve"/>
      <point x="386" y="474"/>
      <point x="336" y="226"/>
      <point x="287" y="-20" type="curve"/>
      <point x="317" y="-20"/>
      <point x="351" y="-20"/>
      <point x="381" y="-20" type="curve"/>
      <point x="388" y="-20"/>
      <point x="393" y="-19"/>
      <point x="395" y="-9" type="curve" smooth="yes"/>
      <point x="443" y="230"/>
      <point x="492" y="470"/>
      <point x="539" y="709" type="curve" smooth="yes"/>
      <point x="541" y="718"/>
      <point x="537" y="720"/>
      <point x="530" y="720" type="curve" smooth="yes"/>
      <point x="500" y="720"/>
      <point x="464" y="720"/>
    </contour>
    <contour>
      <point x="582" y="438" type="line"/>
      <point x="582" y="451"/>
      <point x="582" y="517"/>
      <point x="582" y="530" type="curve" smooth="yes"/>
      <point x="582" y="533"/>
      <point x="581" y="536"/>
      <point x="579" y="538" type="curve" smooth="yes"/>
      <point x="577" y="540"/>
      <point x="574" y="541"/>
      <point x="571" y="541" type="curve"/>
      <point x="62" y="541" type="line"/>
      <point x="62" y="528"/>
      <point x="62" y="462"/>
      <point x="62" y="449" type="curve" smooth="yes"/>
      <point x="62" y="443"/>
      <point x="67" y="438"/>
      <point x="73" y="438" type="curve"/>
    </contour>
    <contour>
      <point x="22" y="254" type="line"/>
      <point x="22" y="241"/>
      <point x="22" y="183"/>
      <point x="22" y="170" type="curve" smooth="yes"/>
      <point x="22" y="167"/>
      <point x="23" y="164"/>
      <point x="25" y="162" type="curve" smooth="yes"/>
      <point x="27" y="160"/>
      <point x="30" y="159"/>
      <point x="33" y="159" type="curve"/>
      <point x="542" y="159" type="line"/>
      <point x="542" y="172"/>
      <point x="542" y="230"/>
      <point x="542" y="243" type="curve" smooth="yes"/>
      <point x="542" y="249"/>
      <point x="537" y="254"/>
      <point x="531" y="254" type="curve"/>
    </contour>
  </outline>
</glyph>
<glyph name="dollar" format="1">
  <advance width="600"/>
  <unicode hex="0024"/>
  <outline>
    <contour>
      <point x="323" y="719" type="curve" smooth="yes"/>
      <point x="166" y="719"/>
      <point x="67" y="640"/>
      <point x="67" y="528" type="curve" smooth="yes"/>
      <point x="67" y="484" type="line" smooth="yes"/>
      <point x="67" y="466"/>
      <point x="120" y="450"/>
      <point x="192" y="450" type="curve"/>
      <point x="192" y="479"/>
      <point x="192" y="500"/>
      <point x="192" y="523" type="curve" smooth="yes"/>
      <point x="192" y="560"/>
      <point x="232" y="591"/>
      <point x="314" y="591" type="curve" smooth="yes"/>
      <point x="393" y="591"/>
      <point x="448" y="578"/>
      <point x="500" y="541" type="curve"/>
      <point x="518" y="541" type="line"/>
      <point x="518" y="567"/>
      <point x="518" y="615"/>
      <point x="518" y="667" type="curve" smooth="yes"/>
      <point x="518" y="669"/>
      <point x="517" y="673"/>
      <point x="515" y="675" type="curve" smooth="yes"/>
      <point x="485" y="705"/>
      <point x="408" y="719"/>
    </contour>
    <contour>
      <point x="383" y="396" type="curve" smooth="yes"/>
      <point x="288" y="425" type="line" smooth="yes"/>
      <point x="212" y="448"/>
      <point x="192" y="463"/>
      <point x="192" y="503" type="curve" smooth="yes"/>
      <point x="192" y="525"/>
      <point x="192" y="538"/>
      <point x="192" y="572" type="curve"/>
      <point x="125" y="570"/>
      <point x="67" y="561"/>
      <point x="67" y="484" type="curve" smooth="yes"/>
      <point x="67" y="424"/>
      <point x="103" y="351"/>
      <point x="235" y="311" type="curve" smooth="yes"/>
      <point x="330" y="282" type="line" smooth="yes"/>
      <point x="410" y="257"/>
      <point x="421" y="239"/>
      <point x="421" y="202" type="curve" smooth="yes"/>
      <point x="421" y="178"/>
      <point x="421" y="134"/>
      <point x="421" y="101" type="curve"/>
      <point x="474" y="101"/>
      <point x="543" y="164"/>
      <point x="543" y="220" type="curve"/>
      <point x="543" y="299"/>
      <point x="506" y="359"/>
    </contour>
    <contour>
      <point x="282" y="-19" type="curve" smooth="yes"/>
      <point x="444" y="-19"/>
      <point x="543" y="60"/>
      <point x="543" y="172" type="curve" smooth="yes"/>
      <point x="543" y="220" type="line" smooth="yes"/>
      <point x="543" y="237"/>
      <point x="491" y="256"/>
      <point x="421" y="256" type="curve"/>
      <point x="421" y="225"/>
      <point x="421" y="203"/>
      <point x="421" y="177" type="curve" smooth="yes"/>
      <point x="421" y="140"/>
      <point x="382" y="109"/>
      <point x="292" y="109" type="curve" smooth="yes"/>
      <point x="202" y="109"/>
      <point x="142" y="129"/>
      <point x="82" y="171" type="curve"/>
      <point x="63" y="171" type="line"/>
      <point x="63" y="145"/>
      <point x="63" y="97"/>
      <point x="63" y="46" type="curve" smooth="yes"/>
      <point x="63" y="43"/>
      <point x="64" y="40"/>
      <point x="66" y="38" type="curve" smooth="yes"/>
      <point x="102" y="2"/>
      <point x="187" y="-19"/>
    </contour>
    <contour>
      <point x="360" y="470" type="line"/>
      <point x="398" y="773" type="line" smooth="yes"/>
      <point x="399" y="782"/>
      <point x="394" y="786"/>
      <point x="388" y="786" type="curve" smooth="yes"/>
      <point x="347" y="786"/>
      <point x="330" y="786"/>
      <point x="289" y="786" type="curve"/>
      <point x="289" y="754"/>
      <point x="289" y="722"/>
      <point x="289" y="690" type="curve"/>
      <point x="289" y="500" type="line" smooth="yes"/>
      <point x="289" y="492"/>
      <point x="292" y="487"/>
      <point x="299" y="485" type="curve" smooth="yes"/>
    </contour>
    <contour>
      <point x="258" y="236" type="line"/>
      <point x="217" y="-71" type="line" smooth="yes"/>
      <point x="215" y="-82"/>
      <point x="221" y="-86"/>
      <point x="227" y="-86" type="curve" smooth="yes"/>
      <point x="268" y="-86"/>
      <point x="288" y="-86"/>
      <point x="330" y="-86" type="curve"/>
      <point x="330" y="-56"/>
      <point x="330" y="-21"/>
      <point x="330" y="8" type="curve"/>
      <point x="330" y="205" type="line" smooth="yes"/>
      <point x="330" y="215"/>
      <point x="327" y="219"/>
      <point x="319" y="221" type="curve" smooth="yes"/>
    </contour>
  </outline>
</glyph>
<glyph name="percent" format="1">
  <advance width="600"/>
  <unicode hex="0025"/>
  <outline>
    <contour>
      <point x="170" y="626" type="curve"/>
      <point x="212" y="626"/>
      <point x="233" y="601"/>
      <point x="233" y="558" type="curve" smooth="yes"/>
      <point x="233" y="518" type="line" smooth="yes"/>
      <point x="233" y="471"/>
      <point x="213" y="444"/>
      <point x="171" y="444" type="curve" smooth="yes"/>
      <point x="137" y="444"/>
      <point x="125" y="445"/>
      <point x="99" y="448" type="curve"/>
      <point x="94" y="395"/>
      <point x="124" y="359"/>
      <point x="170" y="359" type="curve" smooth="yes"/>
      <point x="263" y="359"/>
      <point x="325" y="421"/>
      <point x="325" y="513" type="curve" smooth="yes"/>
      <point x="325" y="560" type="line" smooth="yes"/>
      <point x="325" y="653"/>
      <point x="265" y="710"/>
      <point x="171" y="710" type="curve" smooth="yes"/>
      <point x="153" y="710"/>
      <point x="150" y="695"/>
    </contour>
    <contour>
      <point x="171" y="444" type="curve"/>
      <point x="129" y="444"/>
      <point x="108" y="469"/>
      <point x="108" y="512" type="curve" smooth="yes"/>
      <point x="108" y="551" type="line" smooth="yes"/>
      <point x="108" y="599"/>
      <point x="128" y="626"/>
      <point x="170" y="626" type="curve" smooth="yes"/>
      <point x="204" y="626"/>
      <point x="215" y="625"/>
      <point x="242" y="621" type="curve"/>
      <point x="247" y="674"/>
      <point x="217" y="710"/>
      <point x="171" y="710" type="curve" smooth="yes"/>
      <point x="78" y="710"/>
      <point x="15" y="648"/>
      <point x="15" y="556" type="curve" smooth="yes"/>
      <point x="15" y="510" type="line" smooth="yes"/>
      <point x="15" y="416"/>
      <point x="76" y="359"/>
      <point x="170" y="359" type="curve" smooth="yes"/>
      <point x="188" y="359"/>
      <point x="190" y="374"/>
    </contour>
    <contour>
      <point x="429" y="256" type="curve"/>
      <point x="471" y="256"/>
      <point x="492" y="231"/>
      <point x="492" y="189" type="curve" smooth="yes"/>
      <point x="492" y="149" type="line" smooth="yes"/>
      <point x="492" y="101"/>
      <point x="472" y="74"/>
      <point x="430" y="74" type="curve" smooth="yes"/>
      <point x="396" y="74"/>
      <point x="385" y="75"/>
      <point x="358" y="79" type="curve"/>
      <point x="353" y="26"/>
      <point x="383" y="-10"/>
      <point x="429" y="-10" type="curve" smooth="yes"/>
      <point x="522" y="-10"/>
      <point x="585" y="52"/>
      <point x="585" y="144" type="curve" smooth="yes"/>
      <point x="585" y="190" type="line" smooth="yes"/>
      <point x="585" y="284"/>
      <point x="524" y="341"/>
      <point x="430" y="341" type="curve" smooth="yes"/>
      <point x="412" y="341"/>
      <point x="410" y="326"/>
    </contour>
    <contour>
      <point x="430" y="74" type="curve"/>
      <point x="388" y="74"/>
      <point x="367" y="100"/>
      <point x="367" y="143" type="curve" smooth="yes"/>
      <point x="367" y="182" type="line" smooth="yes"/>
      <point x="367" y="229"/>
      <point x="387" y="256"/>
      <point x="429" y="256" type="curve" smooth="yes"/>
      <point x="463" y="256"/>
      <point x="475" y="255"/>
      <point x="501" y="252" type="curve"/>
      <point x="506" y="305"/>
      <point x="476" y="341"/>
      <point x="430" y="341" type="curve" smooth="yes"/>
      <point x="337" y="341"/>
      <point x="275" y="279"/>
      <point x="275" y="187" type="curve" smooth="yes"/>
      <point x="275" y="140" type="line" smooth="yes"/>
      <point x="275" y="47"/>
      <point x="335" y="-10"/>
      <point x="429" y="-10" type="curve" smooth="yes"/>
      <point x="447" y="-10"/>
      <point x="450" y="5"/>
    </contour>
    <contour>
      <point x="359" y="405" type="curve"/>
      <point x="380" y="405"/>
      <point x="404" y="405"/>
      <point x="437" y="405" type="curve" smooth="yes"/>
      <point x="442" y="405"/>
      <point x="444" y="406"/>
      <point x="447" y="412" type="curve" smooth="yes"/>
      <point x="492" y="507"/>
      <point x="536" y="602"/>
      <point x="581" y="697" type="curve" smooth="yes"/>
      <point x="585" y="705"/>
      <point x="581" y="710"/>
      <point x="573" y="710" type="curve" smooth="yes"/>
      <point x="529" y="710"/>
      <point x="501" y="710"/>
      <point x="450" y="710" type="curve"/>
      <point x="420" y="608"/>
      <point x="389" y="507"/>
    </contour>
    <contour>
      <point x="241" y="296" type="curve"/>
      <point x="220" y="296"/>
      <point x="196" y="296"/>
      <point x="163" y="296" type="curve" smooth="yes"/>
      <point x="158" y="296"/>
      <point x="156" y="295"/>
      <point x="153" y="289" type="curve" smooth="yes"/>
      <point x="108" y="194"/>
      <point x="64" y="99"/>
      <point x="19" y="4" type="curve" smooth="yes"/>
      <point x="15" y="-4"/>
      <point x="19" y="-9"/>
      <point x="27" y="-9" type="curve" smooth="yes"/>
      <point x="71" y="-9"/>
      <point x="99" y="-9"/>
      <point x="150" y="-9" type="curve"/>
      <point x="180" y="93"/>
      <point x="211" y="194"/>
    </contour>
  </outline>
</glyph>
<glyph name="ampersand" format="1">
  <advance width="600"/>
  <unicode hex="0026"/>
  <outline>
    <contour>
      <point x="325" y="709" type="curve" smooth="yes"/>
      <point x="176" y="709"/>
      <point x="96" y="631"/>
      <point x="96" y="538" type="curve" smooth="yes"/>
      <point x="96" y="491"/>
      <point x="153" y="481"/>
      <point x="225" y="481" type="curve"/>
      <point x="225" y="493"/>
      <point x="225" y="511"/>
      <point x="225" y="526" type="curve" smooth="yes"/>
      <point x="225" y="555"/>
      <point x="249" y="580"/>
      <point x="315" y="580" type="curve" smooth="yes"/>
      <point x="372" y="580"/>
      <point x="408" y="572"/>
      <point x="457" y="559" type="curve"/>
      <point x="475" y="559" type="line"/>
      <point x="475" y="598"/>
      <point x="475" y="636"/>
      <point x="475" y="675" type="curve"/>
      <point x="475" y="680"/>
      <point x="474" y="683"/>
      <point x="472" y="685" type="curve" smooth="yes"/>
      <point x="462" y="695"/>
      <point x="408" y="709"/>
    </contour>
    <contour>
      <point x="257" y="454" type="curve" smooth="yes"/>
      <point x="230" y="489"/>
      <point x="225" y="504"/>
      <point x="225" y="526" type="curve" smooth="yes"/>
      <point x="225" y="548"/>
      <point x="226" y="575"/>
      <point x="241" y="600" type="curve"/>
      <point x="144" y="600"/>
      <point x="96" y="575"/>
      <point x="96" y="538" type="curve" smooth="yes"/>
      <point x="96" y="534" type="line" smooth="yes"/>
      <point x="96" y="478"/>
      <point x="111" y="444"/>
      <point x="181" y="350" type="curve" smooth="yes"/>
      <point x="259" y="244"/>
      <point x="360" y="109"/>
      <point x="391" y="66" type="curve" smooth="yes"/>
      <point x="432" y="10"/>
      <point x="466" y="-10"/>
      <point x="519" y="-10" type="curve" smooth="yes"/>
      <point x="568" y="-10" type="line" smooth="yes"/>
      <point x="576" y="-10"/>
      <point x="579" y="-6"/>
      <point x="579" y="1" type="curve" smooth="yes"/>
      <point x="579" y="63"/>
      <point x="579" y="77"/>
      <point x="579" y="123" type="curve"/>
      <point x="574" y="123" type="line"/>
      <point x="563" y="123"/>
      <point x="553" y="123"/>
      <point x="542" y="123" type="curve" smooth="yes"/>
      <point x="512" y="123"/>
      <point x="500" y="127"/>
      <point x="476" y="158" type="curve" smooth="yes"/>
      <point x="446" y="197"/>
      <point x="362" y="312"/>
    </contour>
    <contour>
      <point x="214" y="-9" type="curve" smooth="yes"/>
      <point x="305" y="-9"/>
      <point x="352" y="32"/>
      <point x="386" y="87" type="curve" smooth="yes"/>
      <point x="394" y="102"/>
      <point x="392" y="107"/>
      <point x="347" y="170" type="curve"/>
      <point x="306" y="121"/>
      <point x="280" y="105"/>
      <point x="237" y="105" type="curve" smooth="yes"/>
      <point x="191" y="105"/>
      <point x="169" y="130"/>
      <point x="169" y="180" type="curve" smooth="yes"/>
      <point x="169" y="234" type="line" smooth="yes"/>
      <point x="169" y="285"/>
      <point x="203" y="321"/>
      <point x="269" y="321" type="curve"/>
      <point x="255" y="357"/>
      <point x="227" y="387"/>
      <point x="200" y="386" type="curve" smooth="yes"/>
      <point x="117" y="384"/>
      <point x="36" y="324"/>
      <point x="36" y="233" type="curve" smooth="yes"/>
      <point x="36" y="160" type="line" smooth="yes"/>
      <point x="36" y="53"/>
      <point x="101" y="-9"/>
    </contour>
    <contour>
      <point x="560" y="427" type="curve" smooth="yes"/>
      <point x="529" y="427"/>
      <point x="490" y="427"/>
      <point x="445" y="427" type="curve"/>
      <point x="445" y="400"/>
      <point x="445" y="376"/>
      <point x="445" y="348" type="curve" smooth="yes"/>
      <point x="445" y="286"/>
      <point x="435" y="255"/>
      <point x="404" y="222" type="curve" smooth="yes"/>
      <point x="393" y="211"/>
      <point x="395" y="205"/>
      <point x="432" y="159" type="curve"/>
      <point x="515" y="203"/>
      <point x="571" y="266"/>
      <point x="571" y="350" type="curve" smooth="yes"/>
      <point x="571" y="416" type="line" smooth="yes"/>
      <point x="571" y="423"/>
      <point x="568" y="427"/>
    </contour>
  </outline>
</glyph>
<glyph name="quotesingle" format="1">
  <advance width="250"/>
  <unicode hex="0027"/>
  <outline>
    <contour>
      <point x="185" y="450" type="curve"/>
      <point x="208" y="737" type="line" smooth="yes"/>
      <point x="209" y="746"/>
      <point x="204" y="750"/>
      <point x="198" y="750" type="curve" smooth="yes"/>
      <point x="151" y="750"/>
      <point x="99" y="750"/>
      <point x="41" y="750" type="curve"/>
      <point x="44" y="714"/>
      <point x="46" y="683"/>
      <point x="49" y="648" type="curve" smooth="yes"/>
      <point x="64" y="461" type="line" smooth="yes"/>
      <point x="65" y="454"/>
      <point x="70" y="450"/>
      <point x="76" y="450" type="curve" smooth="yes"/>
      <point x="113" y="450"/>
      <point x="149" y="450"/>
    </contour>
  </outline>
</glyph>
<glyph name="parenleft" format="1">
  <advance width="400"/>
  <unicode hex="0028"/>
  <outline>
    <contour>
      <point x="240" y="744" type="curve" smooth="yes"/>
      <point x="124" y="628"/>
      <point x="70" y="489"/>
      <point x="70" y="320" type="curve" smooth="yes"/>
      <point x="70" y="311" type="line" smooth="yes"/>
      <point x="70" y="142"/>
      <point x="124" y="3"/>
      <point x="240" y="-113" type="curve" smooth="yes"/>
      <point x="248" y="-121"/>
      <point x="253" y="-121"/>
      <point x="260" y="-121" type="curve" smooth="yes"/>
      <point x="310" y="-121"/>
      <point x="347" y="-121"/>
      <point x="401" y="-121" type="curve"/>
      <point x="401" y="-103" type="line"/>
      <point x="271" y="15"/>
      <point x="207" y="152"/>
      <point x="207" y="311" type="curve" smooth="yes"/>
      <point x="207" y="320" type="line" smooth="yes"/>
      <point x="207" y="479"/>
      <point x="271" y="615"/>
      <point x="401" y="733" type="curve"/>
      <point x="401" y="752" type="line"/>
      <point x="347" y="752"/>
      <point x="310" y="752"/>
      <point x="260" y="752" type="curve" smooth="yes"/>
      <point x="253" y="752"/>
      <point x="248" y="751"/>
    </contour>
  </outline>
</glyph>
<glyph name="parenright" format="1">
  <advance width="400"/>
  <unicode hex="0029"/>
  <outline>
    <contour>
      <point x="160" y="-113" type="curve" smooth="yes"/>
      <point x="276" y="3"/>
      <point x="330" y="142"/>
      <point x="330" y="311" type="curve" smooth="yes"/>
      <point x="330" y="320" type="line" smooth="yes"/>
      <point x="330" y="489"/>
      <point x="276" y="628"/>
      <point x="160" y="744" type="curve" smooth="yes"/>
      <point x="152" y="751"/>
      <point x="147" y="752"/>
      <point x="140" y="752" type="curve" smooth="yes"/>
      <point x="90" y="752"/>
      <point x="53" y="752"/>
      <point x="-1" y="752" type="curve"/>
      <point x="-1" y="733" type="line"/>
      <point x="129" y="615"/>
      <point x="193" y="479"/>
      <point x="193" y="320" type="curve" smooth="yes"/>
      <point x="193" y="311" type="line" smooth="yes"/>
      <point x="193" y="152"/>
      <point x="129" y="15"/>
      <point x="-1" y="-103" type="curve"/>
      <point x="-1" y="-121" type="line"/>
      <point x="53" y="-121"/>
      <point x="90" y="-121"/>
      <point x="140" y="-121" type="curve" smooth="yes"/>
      <point x="147" y="-121"/>
      <point x="152" y="-121"/>
    </contour>
  </outline>
</glyph>
<glyph name="asterisk" format="1">
  <advance width="500"/>
  <unicode hex="002A"/>
  <outline>
    <contour>
      <point x="199" y="770" type="curve"/>
      <point x="205" y="740"/>
      <point x="211" y="711"/>
      <point x="216" y="681" type="curve" smooth="yes"/>
      <point x="237" y="563" type="line"/>
      <point x="200" y="364" type="line" smooth="yes"/>
      <point x="200" y="359"/>
      <point x="202" y="356"/>
      <point x="207" y="356" type="curve"/>
      <point x="239" y="356"/>
      <point x="270" y="356"/>
      <point x="301" y="356" type="curve"/>
      <point x="296" y="385"/>
      <point x="290" y="414"/>
      <point x="285" y="443" type="curve" smooth="yes"/>
      <point x="264" y="563" type="line"/>
      <point x="300" y="762" type="line" smooth="yes"/>
      <point x="301" y="767"/>
      <point x="299" y="770"/>
      <point x="294" y="770" type="curve" smooth="yes"/>
      <point x="263" y="770"/>
      <point x="231" y="770"/>
    </contour>
    <contour>
      <point x="404" y="711" type="curve"/>
      <point x="245" y="574" type="line"/>
      <point x="53" y="508" type="line" smooth="yes"/>
      <point x="48" y="505"/>
      <point x="47" y="501"/>
      <point x="50" y="496" type="curve"/>
      <point x="66" y="468"/>
      <point x="81" y="442"/>
      <point x="97" y="415" type="curve"/>
      <point x="257" y="551" type="line"/>
      <point x="447" y="618" type="line" smooth="yes"/>
      <point x="453" y="620"/>
      <point x="454" y="625"/>
      <point x="451" y="630" type="curve" smooth="yes"/>
      <point x="436" y="657"/>
      <point x="420" y="683"/>
    </contour>
    <contour>
      <point x="455" y="504" type="curve"/>
      <point x="257" y="574" type="line"/>
      <point x="104" y="707" type="line" smooth="yes"/>
      <point x="100" y="709"/>
      <point x="96" y="708"/>
      <point x="92" y="704" type="curve"/>
      <point x="76" y="676"/>
      <point x="61" y="650"/>
      <point x="45" y="623" type="curve"/>
      <point x="244" y="551" type="line"/>
      <point x="397" y="420" type="line" smooth="yes"/>
      <point x="401" y="417"/>
      <point x="406" y="417"/>
      <point x="409" y="423" type="curve"/>
      <point x="425" y="450"/>
      <point x="440" y="477"/>
    </contour>
  </outline>
</glyph>
<glyph name="plus" format="1">
  <advance width="600"/>
  <unicode hex="002B"/>
  <outline>
    <contour>
      <point x="63" y="366" type="line"/>
      <point x="63" y="325"/>
      <point x="63" y="286"/>
      <point x="63" y="245" type="curve" smooth="yes"/>
      <point x="63" y="242"/>
      <point x="64" y="239"/>
      <point x="66" y="237" type="curve" smooth="yes"/>
      <point x="68" y="235"/>
      <point x="71" y="234"/>
      <point x="74" y="234" type="curve"/>
      <point x="537" y="234" type="line"/>
      <point x="537" y="275"/>
      <point x="537" y="314"/>
      <point x="537" y="355" type="curve" smooth="yes"/>
      <point x="537" y="361"/>
      <point x="532" y="366"/>
      <point x="526" y="366" type="curve"/>
    </contour>
    <contour>
      <point x="366" y="64" type="curve"/>
      <point x="366" y="525" type="line" smooth="yes"/>
      <point x="366" y="528"/>
      <point x="365" y="531"/>
      <point x="363" y="533" type="curve" smooth="yes"/>
      <point x="361" y="535"/>
      <point x="358" y="536"/>
      <point x="355" y="536" type="curve" smooth="yes"/>
      <point x="316" y="536"/>
      <point x="281" y="536"/>
      <point x="234" y="536" type="curve"/>
      <point x="234" y="510"/>
      <point x="234" y="476"/>
      <point x="234" y="438" type="curve" smooth="yes"/>
      <point x="234" y="75" type="line" smooth="yes"/>
      <point x="234" y="69"/>
      <point x="239" y="64"/>
      <point x="245" y="64" type="curve" smooth="yes"/>
      <point x="288" y="64"/>
      <point x="323" y="64"/>
    </contour>
  </outline>
</glyph>
<glyph name="comma" format="1">
  <advance width="350"/>
  <unicode hex="002C"/>
  <outline>
    <contour>
      <point x="171" y="-190" type="curve" smooth="yes"/>
      <point x="176" y="-190"/>
      <point x="180" y="-189"/>
      <point x="182" y="-183" type="curve"/>
      <point x="223" y="-77"/>
      <point x="269" y="45"/>
      <point x="304" y="133" type="curve"/>
      <point x="307" y="141"/>
      <point x="304" y="146"/>
      <point x="296" y="146" type="curve" smooth="yes"/>
      <point x="231" y="146"/>
      <point x="193" y="146"/>
      <point x="117" y="146" type="curve"/>
      <point x="93" y="34"/>
      <point x="69" y="-78"/>
      <point x="45" y="-190" type="curve"/>
      <point x="79" y="-190"/>
      <point x="116" y="-190"/>
    </contour>
  </outline>
</glyph>
<glyph name="period" format="1">
  <advance width="300"/>
  <unicode hex="002E"/>
  <outline>
    <contour>
      <point x="243" y="-9" type="curve"/>
      <point x="243" y="166" type="line" smooth="yes"/>
      <point x="243" y="172"/>
      <point x="238" y="177"/>
      <point x="232" y="177" type="curve" smooth="yes"/>
      <point x="175" y="177"/>
      <point x="114" y="177"/>
      <point x="57" y="177" type="curve"/>
      <point x="57" y="2" type="line" smooth="yes"/>
      <point x="57" y="-4"/>
      <point x="62" y="-9"/>
      <point x="68" y="-9" type="curve" smooth="yes"/>
      <point x="125" y="-9"/>
      <point x="186" y="-9"/>
    </contour>
  </outline>
</glyph>
<glyph name="zero" format="1">
  <advance width="600"/>
  <unicode hex="0030"/>
  <outline>
    <contour>
      <point x="300" y="720" type="curve" smooth="yes"/>
      <point x="161" y="720"/>
      <point x="54" y="618"/>
      <point x="54" y="445" type="curve" smooth="yes"/>
      <point x="54" y="255" type="line" smooth="yes"/>
      <point x="54" y="84"/>
      <point x="159" y="-20"/>
      <point x="300" y="-20" type="curve"/>
      <point x="316" y="-20"/>
      <point x="325" y="-8"/>
      <point x="300" y="104" type="curve"/>
      <point x="232" y="104"/>
      <point x="187" y="144"/>
      <point x="187" y="255" type="curve" smooth="yes"/>
      <point x="187" y="445" type="line" smooth="yes"/>
      <point x="187" y="556"/>
      <point x="231" y="596"/>
      <point x="300" y="596" type="curve" smooth="yes"/>
      <point x="345" y="596"/>
      <point x="386" y="596"/>
      <point x="413" y="596" type="curve"/>
      <point x="413" y="672"/>
      <point x="382" y="720"/>
    </contour>
    <contour>
      <point x="300" y="-20" type="curve" smooth="yes"/>
      <point x="439" y="-20"/>
      <point x="546" y="82"/>
      <point x="546" y="255" type="curve" smooth="yes"/>
      <point x="546" y="445" type="line" smooth="yes"/>
      <point x="546" y="616"/>
      <point x="441" y="720"/>
      <point x="300" y="720" type="curve"/>
      <point x="284" y="720"/>
      <point x="275" y="708"/>
      <point x="300" y="596" type="curve"/>
      <point x="368" y="596"/>
      <point x="413" y="556"/>
      <point x="413" y="445" type="curve" smooth="yes"/>
      <point x="413" y="255" type="line" smooth="yes"/>
      <point x="413" y="144"/>
      <point x="369" y="104"/>
      <point x="288" y="104" type="curve" smooth="yes"/>
      <point x="233" y="104"/>
      <point x="214" y="104"/>
      <point x="187" y="104" type="curve"/>
      <point x="187" y="28"/>
      <point x="218" y="-20"/>
    </contour>
  </outline>
</glyph>
<glyph name="one" format="1">
  <advance width="600"/>
  <unicode hex="0031"/>
  <outline>
    <contour>
      <point x="401" y="35" type="curve"/>
      <point x="401" y="256"/>
      <point x="401" y="478"/>
      <point x="401" y="699" type="curve" smooth="yes"/>
      <point x="401" y="705"/>
      <point x="397" y="710"/>
      <point x="390" y="710" type="curve" smooth="yes"/>
      <point x="269" y="710" type="line"/>
      <point x="269" y="503"/>
      <point x="269" y="291"/>
      <point x="269" y="84" type="curve" smooth="yes"/>
      <point x="269" y="46"/>
      <point x="326" y="35"/>
    </contour>
    <contour>
      <point x="82" y="126" type="line"/>
      <point x="82" y="87"/>
      <point x="82" y="54"/>
      <point x="82" y="11" type="curve" smooth="yes"/>
      <point x="82" y="7"/>
      <point x="83" y="5"/>
      <point x="85" y="3" type="curve" smooth="yes"/>
      <point x="87" y="1"/>
      <point x="89" y="0"/>
      <point x="93" y="0" type="curve" smooth="yes"/>
      <point x="548" y="0" type="line"/>
      <point x="548" y="34"/>
      <point x="548" y="70"/>
      <point x="548" y="115" type="curve" smooth="yes"/>
      <point x="548" y="122"/>
      <point x="545" y="126"/>
      <point x="537" y="126" type="curve" smooth="yes"/>
    </contour>
    <contour>
      <point x="106" y="440" type="curve" smooth="yes"/>
      <point x="111" y="440"/>
      <point x="116" y="442"/>
      <point x="305" y="585" type="curve" smooth="yes"/>
      <point x="340" y="610"/>
      <point x="375" y="637"/>
      <point x="375" y="643" type="curve" smooth="yes"/>
      <point x="375" y="668"/>
      <point x="359" y="710"/>
      <point x="282" y="710" type="curve"/>
      <point x="260" y="710" type="line"/>
      <point x="233" y="691"/>
      <point x="206" y="670"/>
      <point x="180" y="651" type="curve"/>
      <point x="153" y="631"/>
      <point x="126" y="611"/>
      <point x="100" y="592" type="curve"/>
      <point x="100" y="448" type="line" smooth="yes"/>
      <point x="100" y="443"/>
      <point x="102" y="440"/>
    </contour>
  </outline>
</glyph>
<glyph name="two" format="1">
  <advance width="600"/>
  <unicode hex="0032"/>
  <outline>
    <contour>
      <point x="398" y="600" type="curve"/>
      <point x="398" y="579"/>
      <point x="398" y="561"/>
      <point x="398" y="523" type="curve" smooth="yes"/>
      <point x="398" y="482"/>
      <point x="380" y="456"/>
      <point x="268" y="382" type="curve" smooth="yes"/>
      <point x="115" y="282"/>
      <point x="62" y="202"/>
      <point x="62" y="96" type="curve" smooth="yes"/>
      <point x="62" y="83"/>
      <point x="102" y="81"/>
      <point x="196" y="81" type="curve"/>
      <point x="196" y="172"/>
      <point x="218" y="200"/>
      <point x="336" y="277" type="curve" smooth="yes"/>
      <point x="476" y="367"/>
      <point x="531" y="425"/>
      <point x="531" y="518" type="curve" smooth="yes"/>
      <point x="531" y="547" type="line" smooth="yes"/>
      <point x="531" y="577"/>
      <point x="492" y="600"/>
    </contour>
    <contour>
      <point x="547" y="0" type="line"/>
      <point x="547" y="34"/>
      <point x="547" y="70"/>
      <point x="547" y="115" type="curve" smooth="yes"/>
      <point x="547" y="122"/>
      <point x="543" y="126"/>
      <point x="536" y="126" type="curve" smooth="yes"/>
      <point x="176" y="126" type="line" smooth="yes"/>
      <point x="137" y="126"/>
      <point x="97" y="117"/>
      <point x="62" y="96" type="curve"/>
      <point x="62" y="67"/>
      <point x="62" y="52"/>
      <point x="62" y="11" type="curve" smooth="yes"/>
      <point x="62" y="3"/>
      <point x="65" y="0"/>
      <point x="73" y="0" type="curve" smooth="yes"/>
    </contour>
    <contour>
      <point x="300" y="720" type="curve" smooth="yes"/>
      <point x="196" y="720"/>
      <point x="108" y="691"/>
      <point x="85" y="668" type="curve" smooth="yes"/>
      <point x="82" y="665"/>
      <point x="81" y="663"/>
      <point x="81" y="658" type="curve" smooth="yes"/>
      <point x="81" y="607"/>
      <point x="81" y="574"/>
      <point x="81" y="538" type="curve"/>
      <point x="100" y="538" type="line"/>
      <point x="158" y="572"/>
      <point x="221" y="588"/>
      <point x="298" y="588" type="curve" smooth="yes"/>
      <point x="369" y="588"/>
      <point x="398" y="573"/>
      <point x="398" y="536" type="curve" smooth="yes"/>
      <point x="398" y="511"/>
      <point x="398" y="492"/>
      <point x="398" y="478" type="curve"/>
      <point x="486" y="479"/>
      <point x="531" y="511"/>
      <point x="531" y="547" type="curve" smooth="yes"/>
      <point x="531" y="654"/>
      <point x="444" y="720"/>
    </contour>
  </outline>
</glyph>
<glyph name="three" format="1">
  <advance width="600"/>
  <unicode hex="0033"/>
  <outline>
    <contour>
      <point x="278" y="588" type="curve" smooth="yes"/>
      <point x="375" y="588"/>
      <point x="403" y="553"/>
      <point x="403" y="511" type="curve" smooth="yes"/>
      <point x="403" y="487"/>
      <point x="403" y="473"/>
      <point x="403" y="454" type="curve"/>
      <point x="472" y="454"/>
      <point x="536" y="473"/>
      <point x="536" y="528" type="curve" smooth="yes"/>
      <point x="536" y="554" type="line" smooth="yes"/>
      <point x="536" y="653"/>
      <point x="435" y="720"/>
      <point x="283" y="720" type="curve" smooth="yes"/>
      <point x="185" y="720"/>
      <point x="93" y="697"/>
      <point x="78" y="682" type="curve" smooth="yes"/>
      <point x="76" y="680"/>
      <point x="75" y="678"/>
      <point x="75" y="674" type="curve" smooth="yes"/>
      <point x="75" y="627"/>
      <point x="75" y="585"/>
      <point x="75" y="555" type="curve"/>
      <point x="94" y="555" type="line"/>
      <point x="152" y="578"/>
      <point x="196" y="588"/>
    </contour>
    <contour>
      <point x="165" y="338" type="curve" smooth="yes"/>
      <point x="385" y="338"/>
      <point x="536" y="383"/>
      <point x="536" y="528" type="curve" smooth="yes"/>
      <point x="536" y="555"/>
      <point x="465" y="582"/>
      <point x="402" y="582" type="curve"/>
      <point x="402" y="557"/>
      <point x="402" y="533"/>
      <point x="402" y="509" type="curve" smooth="yes"/>
      <point x="402" y="456"/>
      <point x="369" y="420"/>
      <point x="154" y="420" type="curve"/>
      <point x="154" y="400"/>
      <point x="154" y="369"/>
      <point x="154" y="349" type="curve" smooth="yes"/>
      <point x="154" y="343"/>
      <point x="159" y="338"/>
    </contour>
    <contour>
      <point x="165" y="296" type="curve" smooth="yes"/>
      <point x="359" y="296"/>
      <point x="412" y="263"/>
      <point x="412" y="200" type="curve" smooth="yes"/>
      <point x="412" y="175"/>
      <point x="412" y="164"/>
      <point x="412" y="131" type="curve"/>
      <point x="494" y="131"/>
      <point x="546" y="152"/>
      <point x="546" y="204" type="curve" smooth="yes"/>
      <point x="546" y="334"/>
      <point x="391" y="379"/>
      <point x="154" y="379" type="curve"/>
      <point x="154" y="356"/>
      <point x="154" y="328"/>
      <point x="154" y="307" type="curve" smooth="yes"/>
      <point x="154" y="299"/>
      <point x="158" y="296"/>
    </contour>
    <contour>
      <point x="276" y="112" type="curve" smooth="yes"/>
      <point x="187" y="112"/>
      <point x="139" y="121"/>
      <point x="76" y="150" type="curve"/>
      <point x="57" y="150" type="line"/>
      <point x="57" y="115"/>
      <point x="57" y="73"/>
      <point x="57" y="26" type="curve" smooth="yes"/>
      <point x="57" y="22"/>
      <point x="57" y="20"/>
      <point x="59" y="18" type="curve" smooth="yes"/>
      <point x="75" y="2"/>
      <point x="175" y="-20"/>
      <point x="281" y="-20" type="curve" smooth="yes"/>
      <point x="443" y="-20"/>
      <point x="546" y="49"/>
      <point x="546" y="172" type="curve" smooth="yes"/>
      <point x="546" y="204" type="line" smooth="yes"/>
      <point x="546" y="247"/>
      <point x="483" y="267"/>
      <point x="413" y="266" type="curve"/>
      <point x="413" y="240"/>
      <point x="413" y="225"/>
      <point x="413" y="199" type="curve" smooth="yes"/>
      <point x="413" y="152"/>
      <point x="382" y="112"/>
    </contour>
  </outline>
</glyph>
<glyph name="four" format="1">
  <advance width="600"/>
  <unicode hex="0034"/>
  <outline>
    <contour>
      <point x="165" y="227" type="curve"/>
      <point x="259" y="379"/>
      <point x="353" y="530"/>
      <point x="446" y="682" type="curve"/>
      <point x="446" y="700" type="line"/>
      <point x="369" y="700"/>
      <point x="319" y="700"/>
      <point x="310" y="700" type="curve" smooth="yes"/>
      <point x="304" y="700"/>
      <point x="298" y="699"/>
      <point x="293" y="690" type="curve" smooth="yes"/>
      <point x="189" y="516"/>
      <point x="43" y="267"/>
      <point x="43" y="260" type="curve" smooth="yes"/>
      <point x="43" y="238"/>
      <point x="115" y="227"/>
    </contour>
    <contour>
      <point x="560" y="151" type="line"/>
      <point x="560" y="189"/>
      <point x="560" y="227"/>
      <point x="560" y="265" type="curve" smooth="yes"/>
      <point x="560" y="271"/>
      <point x="555" y="276"/>
      <point x="549" y="276" type="curve" smooth="yes"/>
      <point x="385" y="276" type="line"/>
      <point x="358" y="276"/>
      <point x="190" y="268"/>
      <point x="43" y="260" type="curve"/>
      <point x="43" y="162" type="line" smooth="yes"/>
      <point x="43" y="159"/>
      <point x="44" y="156"/>
      <point x="46" y="154" type="curve" smooth="yes"/>
      <point x="48" y="152"/>
      <point x="51" y="151"/>
      <point x="54" y="151" type="curve" smooth="yes"/>
    </contour>
    <contour>
      <point x="495" y="0" type="curve"/>
      <point x="495" y="29"/>
      <point x="495" y="63"/>
      <point x="495" y="98" type="curve" smooth="yes"/>
      <point x="495" y="384" type="line" smooth="yes"/>
      <point x="495" y="391"/>
      <point x="491" y="395"/>
      <point x="484" y="395" type="curve" smooth="yes"/>
      <point x="389" y="395" type="line"/>
      <point x="379" y="347"/>
      <point x="371" y="301"/>
      <point x="362" y="253" type="curve"/>
      <point x="362" y="11" type="line" smooth="yes"/>
      <point x="362" y="5"/>
      <point x="367" y="0"/>
      <point x="373" y="0" type="curve" smooth="yes"/>
      <point x="413" y="0"/>
      <point x="455" y="0"/>
    </contour>
  </outline>
</glyph>
<glyph name="five" format="1">
  <advance width="600"/>
  <unicode hex="0035"/>
  <outline>
    <contour>
      <point x="156" y="700" type="line"/>
      <point x="156" y="660"/>
      <point x="156" y="626"/>
      <point x="156" y="585" type="curve" smooth="yes"/>
      <point x="156" y="582"/>
      <point x="157" y="579"/>
      <point x="159" y="577" type="curve" smooth="yes"/>
      <point x="161" y="575"/>
      <point x="164" y="574"/>
      <point x="167" y="574" type="curve" smooth="yes"/>
      <point x="517" y="574" type="line"/>
      <point x="517" y="601"/>
      <point x="517" y="642"/>
      <point x="517" y="689" type="curve" smooth="yes"/>
      <point x="517" y="695"/>
      <point x="512" y="700"/>
      <point x="506" y="700" type="curve" smooth="yes"/>
    </contour>
    <contour>
      <point x="209" y="301" type="line"/>
      <point x="254" y="676" type="line" smooth="yes"/>
      <point x="256" y="691"/>
      <point x="236" y="700"/>
      <point x="170" y="700" type="curve" smooth="yes"/>
      <point x="124" y="700" type="line"/>
      <point x="82" y="320" type="line" smooth="yes"/>
      <point x="81" y="309"/>
      <point x="82" y="301"/>
      <point x="93" y="301" type="curve" smooth="yes"/>
    </contour>
    <contour>
      <point x="183" y="371" type="curve"/>
      <point x="158" y="340"/>
      <point x="174" y="301"/>
      <point x="209" y="301" type="curve"/>
      <point x="236" y="315"/>
      <point x="267" y="322"/>
      <point x="305" y="322" type="curve" smooth="yes"/>
      <point x="386" y="322"/>
      <point x="413" y="288"/>
      <point x="413" y="236" type="curve" smooth="yes"/>
      <point x="413" y="221"/>
      <point x="413" y="204"/>
      <point x="413" y="187" type="curve"/>
      <point x="455" y="187"/>
      <point x="546" y="202"/>
      <point x="546" y="241" type="curve" smooth="yes"/>
      <point x="546" y="366"/>
      <point x="462" y="435"/>
      <point x="352" y="435" type="curve" smooth="yes"/>
      <point x="270" y="435"/>
      <point x="224" y="410"/>
    </contour>
    <contour>
      <point x="278" y="-20" type="curve" smooth="yes"/>
      <point x="447" y="-20"/>
      <point x="546" y="71"/>
      <point x="546" y="198" type="curve" smooth="yes"/>
      <point x="546" y="241" type="line" smooth="yes"/>
      <point x="546" y="286"/>
      <point x="473" y="330"/>
      <point x="413" y="312" type="curve"/>
      <point x="413" y="283"/>
      <point x="413" y="261"/>
      <point x="413" y="232" type="curve" smooth="yes"/>
      <point x="413" y="207" type="line" smooth="yes"/>
      <point x="413" y="149"/>
      <point x="372" y="112"/>
      <point x="275" y="112" type="curve" smooth="yes"/>
      <point x="194" y="112"/>
      <point x="150" y="122"/>
      <point x="92" y="150" type="curve"/>
      <point x="74" y="150" type="line"/>
      <point x="74" y="115"/>
      <point x="74" y="73"/>
      <point x="74" y="26" type="curve" smooth="yes"/>
      <point x="74" y="22"/>
      <point x="74" y="20"/>
      <point x="76" y="18" type="curve" smooth="yes"/>
      <point x="92" y="3"/>
      <point x="179" y="-20"/>
    </contour>
  </outline>
</glyph>
<glyph name="six" format="1">
  <advance width="600"/>
  <unicode hex="0036"/>
  <outline>
    <contour>
      <point x="193" y="104" type="curve"/>
      <point x="193" y="10"/>
      <point x="248" y="-21"/>
      <point x="308" y="-21" type="curve"/>
      <point x="450" y="-21"/>
      <point x="550" y="72"/>
      <point x="550" y="193" type="curve" smooth="yes"/>
      <point x="550" y="253" type="line" smooth="yes"/>
      <point x="550" y="296"/>
      <point x="487" y="325"/>
      <point x="420" y="325" type="curve"/>
      <point x="420" y="292"/>
      <point x="420" y="272"/>
      <point x="420" y="238" type="curve" smooth="yes"/>
      <point x="420" y="208" type="line" smooth="yes"/>
      <point x="420" y="147"/>
      <point x="380" y="104"/>
      <point x="302" y="104" type="curve" smooth="yes"/>
      <point x="254" y="104"/>
      <point x="221" y="104"/>
    </contour>
    <contour>
      <point x="233" y="588" type="curve"/>
      <point x="268" y="588"/>
      <point x="288" y="588"/>
      <point x="334" y="588" type="curve" smooth="yes"/>
      <point x="407" y="588"/>
      <point x="443" y="577"/>
      <point x="496" y="553" type="curve"/>
      <point x="514" y="553" type="line"/>
      <point x="514" y="587"/>
      <point x="514" y="629"/>
      <point x="514" y="676" type="curve" smooth="yes"/>
      <point x="514" y="680"/>
      <point x="514" y="682"/>
      <point x="512" y="684" type="curve" smooth="yes"/>
      <point x="499" y="697"/>
      <point x="429" y="720"/>
      <point x="353" y="720" type="curve" smooth="yes"/>
      <point x="246" y="720"/>
      <point x="233" y="652"/>
    </contour>
    <contour>
      <point x="54" y="405" type="curve" smooth="yes"/>
      <point x="54" y="261" type="line" smooth="yes"/>
      <point x="54" y="77"/>
      <point x="147" y="-21"/>
      <point x="308" y="-21" type="curve" smooth="yes"/>
      <point x="321" y="-21"/>
      <point x="332" y="0"/>
      <point x="302" y="104" type="curve"/>
      <point x="223" y="104"/>
      <point x="190" y="149"/>
      <point x="190" y="257" type="curve" smooth="yes"/>
      <point x="190" y="410" type="line" smooth="yes"/>
      <point x="190" y="538"/>
      <point x="235" y="588"/>
      <point x="334" y="588" type="curve"/>
      <point x="379" y="701"/>
      <point x="374" y="720"/>
      <point x="353" y="720" type="curve" smooth="yes"/>
      <point x="219" y="720"/>
      <point x="54" y="660"/>
    </contour>
    <contour>
      <point x="353" y="443" type="curve" smooth="yes"/>
      <point x="284" y="443"/>
      <point x="224" y="417"/>
      <point x="190" y="383" type="curve" smooth="yes"/>
      <point x="179" y="371"/>
      <point x="174" y="353"/>
      <point x="174" y="274" type="curve"/>
      <point x="216" y="309"/>
      <point x="261" y="324"/>
      <point x="313" y="324" type="curve" smooth="yes"/>
      <point x="387" y="324"/>
      <point x="420" y="297"/>
      <point x="420" y="238" type="curve" smooth="yes"/>
      <point x="420" y="222"/>
      <point x="420" y="207"/>
      <point x="420" y="197" type="curve"/>
      <point x="529" y="198"/>
      <point x="550" y="235"/>
      <point x="550" y="253" type="curve" smooth="yes"/>
      <point x="550" y="371"/>
      <point x="471" y="443"/>
    </contour>
  </outline>
</glyph>
<glyph name="seven" format="1">
  <advance width="600"/>
  <unicode hex="0037"/>
  <outline>
    <contour>
      <point x="452" y="574" type="line" smooth="yes"/>
      <point x="484" y="574"/>
      <point x="516" y="578"/>
      <point x="548" y="588" type="curve"/>
      <point x="548" y="689" type="line"/>
      <point x="548" y="695"/>
      <point x="543" y="700"/>
      <point x="537" y="700" type="curve"/>
      <point x="55" y="700" type="line"/>
      <point x="55" y="649" type="line" smooth="yes"/>
      <point x="55" y="599"/>
      <point x="70" y="574"/>
      <point x="93" y="574" type="curve" smooth="yes"/>
    </contour>
    <contour>
      <point x="316" y="0" type="line"/>
      <point x="459" y="359"/>
      <point x="548" y="580"/>
      <point x="548" y="588" type="curve" smooth="yes"/>
      <point x="548" y="622"/>
      <point x="509" y="630"/>
      <point x="428" y="629" type="curve"/>
      <point x="264" y="233"/>
      <point x="176" y="23"/>
      <point x="176" y="11" type="curve" smooth="yes"/>
      <point x="176" y="5"/>
      <point x="180" y="0"/>
      <point x="187" y="0" type="curve" smooth="yes"/>
    </contour>
    <contour>
      <point x="188" y="475" type="curve"/>
      <point x="188" y="521"/>
      <point x="188" y="616"/>
      <point x="188" y="662" type="curve"/>
      <point x="188" y="690"/>
      <point x="155" y="700"/>
      <point x="68" y="700" type="curve" smooth="yes"/>
      <point x="55" y="700" type="line"/>
      <point x="55" y="646"/>
      <point x="55" y="539"/>
      <point x="55" y="486" type="curve"/>
      <point x="55" y="480"/>
      <point x="60" y="475"/>
      <point x="66" y="475" type="curve" smooth="yes"/>
      <point x="106" y="475"/>
      <point x="148" y="475"/>
    </contour>
  </outline>
</glyph>
<glyph name="eight" format="1">
  <advance width="600"/>
  <unicode hex="0038"/>
  <outline>
    <contour>
      <point x="386" y="376" type="curve" smooth="yes"/>
      <point x="265" y="419" type="line" smooth="yes"/>
      <point x="220" y="436"/>
      <point x="196" y="464"/>
      <point x="196" y="502" type="curve" smooth="yes"/>
      <point x="196" y="523"/>
      <point x="196" y="546"/>
      <point x="196" y="577" type="curve"/>
      <point x="129" y="576"/>
      <point x="71" y="555"/>
      <point x="71" y="503" type="curve" smooth="yes"/>
      <point x="71" y="410"/>
      <point x="117" y="356"/>
      <point x="237" y="311" type="curve" smooth="yes"/>
      <point x="352" y="269" type="line" smooth="yes"/>
      <point x="406" y="248"/>
      <point x="423" y="231"/>
      <point x="423" y="189" type="curve" smooth="yes"/>
      <point x="423" y="142"/>
      <point x="423" y="129"/>
      <point x="423" y="105" type="curve"/>
      <point x="492" y="106"/>
      <point x="547" y="140"/>
      <point x="547" y="196" type="curve"/>
      <point x="547" y="283"/>
      <point x="498" y="335"/>
    </contour>
    <contour>
      <point x="299" y="-20" type="curve" smooth="yes"/>
      <point x="453" y="-20"/>
      <point x="547" y="61"/>
      <point x="547" y="158" type="curve" smooth="yes"/>
      <point x="547" y="196" type="line" smooth="yes"/>
      <point x="547" y="235"/>
      <point x="496" y="255"/>
      <point x="423" y="257" type="curve"/>
      <point x="423" y="251"/>
      <point x="423" y="221"/>
      <point x="423" y="179" type="curve" smooth="yes"/>
      <point x="423" y="133"/>
      <point x="383" y="104"/>
      <point x="299" y="104" type="curve" smooth="yes"/>
      <point x="242" y="104"/>
      <point x="216" y="104"/>
      <point x="184" y="104" type="curve"/>
      <point x="184" y="41"/>
      <point x="234" y="-20"/>
    </contour>
    <contour>
      <point x="301" y="720" type="curve" smooth="yes"/>
      <point x="160" y="720"/>
      <point x="71" y="638"/>
      <point x="71" y="532" type="curve" smooth="yes"/>
      <point x="71" y="503" type="line" smooth="yes"/>
      <point x="71" y="462"/>
      <point x="108" y="435"/>
      <point x="196" y="435" type="curve"/>
      <point x="196" y="455"/>
      <point x="196" y="477"/>
      <point x="196" y="517" type="curve" smooth="yes"/>
      <point x="196" y="562"/>
      <point x="232" y="596"/>
      <point x="301" y="596" type="curve" smooth="yes"/>
      <point x="367" y="596"/>
      <point x="387" y="596"/>
      <point x="418" y="596" type="curve"/>
      <point x="418" y="673"/>
      <point x="369" y="720"/>
    </contour>
    <contour>
      <point x="380" y="347" type="curve" smooth="yes"/>
      <point x="442" y="347"/>
      <point x="528" y="425"/>
      <point x="528" y="504" type="curve" smooth="yes"/>
      <point x="528" y="533" type="line" smooth="yes"/>
      <point x="528" y="640"/>
      <point x="439" y="720"/>
      <point x="301" y="720" type="curve" smooth="yes"/>
      <point x="279" y="720"/>
      <point x="275" y="707"/>
      <point x="301" y="596" type="curve"/>
      <point x="377" y="596"/>
      <point x="404" y="569"/>
      <point x="404" y="517" type="curve" smooth="yes"/>
      <point x="404" y="503" type="line" smooth="yes"/>
      <point x="404" y="458"/>
      <point x="379" y="411"/>
      <point x="291" y="386" type="curve"/>
      <point x="313" y="362"/>
      <point x="347" y="347"/>
    </contour>
    <contour>
      <point x="299" y="104" type="curve"/>
      <point x="219" y="104"/>
      <point x="177" y="132"/>
      <point x="177" y="179" type="curve" smooth="yes"/>
      <point x="177" y="190" type="line" smooth="yes"/>
      <point x="177" y="236"/>
      <point x="210" y="289"/>
      <point x="312" y="308" type="curve"/>
      <point x="288" y="335"/>
      <point x="268" y="349"/>
      <point x="214" y="349" type="curve" smooth="yes"/>
      <point x="144" y="349"/>
      <point x="53" y="280"/>
      <point x="53" y="196" type="curve" smooth="yes"/>
      <point x="53" y="158" type="line" smooth="yes"/>
      <point x="53" y="51"/>
      <point x="151" y="-20"/>
      <point x="299" y="-20" type="curve" smooth="yes"/>
      <point x="316" y="-20"/>
      <point x="335" y="10"/>
    </contour>
  </outline>
</glyph>
<glyph name="nine" format="1">
  <advance width="600"/>
  <unicode hex="0039"/>
  <outline>
    <contour>
      <point x="407" y="596" type="curve"/>
      <point x="407" y="674"/>
      <point x="367" y="721"/>
      <point x="291" y="721" type="curve"/>
      <point x="153" y="721"/>
      <point x="51" y="631"/>
      <point x="51" y="507" type="curve" smooth="yes"/>
      <point x="51" y="437" type="line" smooth="yes"/>
      <point x="51" y="398"/>
      <point x="109" y="366"/>
      <point x="181" y="366" type="curve"/>
      <point x="181" y="399"/>
      <point x="181" y="418"/>
      <point x="181" y="452" type="curve" smooth="yes"/>
      <point x="181" y="492" type="line" smooth="yes"/>
      <point x="181" y="556"/>
      <point x="225" y="596"/>
      <point x="297" y="596" type="curve" smooth="yes"/>
      <point x="346" y="596"/>
      <point x="379" y="596"/>
    </contour>
    <contour>
      <point x="368" y="112" type="curve"/>
      <point x="331" y="112"/>
      <point x="310" y="112"/>
      <point x="261" y="112" type="curve" smooth="yes"/>
      <point x="198" y="112"/>
      <point x="162" y="121"/>
      <point x="103" y="147" type="curve"/>
      <point x="85" y="147" type="line"/>
      <point x="85" y="113"/>
      <point x="85" y="71"/>
      <point x="85" y="24" type="curve" smooth="yes"/>
      <point x="85" y="20"/>
      <point x="85" y="18"/>
      <point x="87" y="16" type="curve" smooth="yes"/>
      <point x="104" y="-1"/>
      <point x="193" y="-20"/>
      <point x="260" y="-20" type="curve" smooth="yes"/>
      <point x="335" y="-20"/>
      <point x="368" y="21"/>
    </contour>
    <contour>
      <point x="546" y="284" type="curve" smooth="yes"/>
      <point x="546" y="440" type="line" smooth="yes"/>
      <point x="546" y="621"/>
      <point x="455" y="721"/>
      <point x="291" y="721" type="curve" smooth="yes"/>
      <point x="272" y="721"/>
      <point x="273" y="675"/>
      <point x="297" y="596" type="curve"/>
      <point x="377" y="596"/>
      <point x="410" y="552"/>
      <point x="410" y="444" type="curve" smooth="yes"/>
      <point x="410" y="281" type="line" smooth="yes"/>
      <point x="410" y="162"/>
      <point x="367" y="112"/>
      <point x="261" y="112" type="curve"/>
      <point x="238" y="54"/>
      <point x="238" y="-20"/>
      <point x="260" y="-20" type="curve" smooth="yes"/>
      <point x="445" y="-20"/>
      <point x="546" y="87"/>
    </contour>
    <contour>
      <point x="248" y="247" type="curve" smooth="yes"/>
      <point x="312" y="247"/>
      <point x="373" y="270"/>
      <point x="410" y="307" type="curve" smooth="yes"/>
      <point x="423" y="320"/>
      <point x="426" y="342"/>
      <point x="426" y="416" type="curve"/>
      <point x="384" y="380"/>
      <point x="335" y="366"/>
      <point x="278" y="366" type="curve" smooth="yes"/>
      <point x="210" y="366"/>
      <point x="181" y="393"/>
      <point x="181" y="452" type="curve" smooth="yes"/>
      <point x="181" y="471"/>
      <point x="181" y="490"/>
      <point x="181" y="501" type="curve"/>
      <point x="104" y="500"/>
      <point x="51" y="474"/>
      <point x="51" y="437" type="curve" smooth="yes"/>
      <point x="51" y="320"/>
      <point x="128" y="247"/>
    </contour>
  </outline>
</glyph>
<glyph name="colon" format="1">
  <advance width="300"/>
  <unicode hex="003A"/>
  <outline>
    <contour>
      <point x="244" y="360" type="curve"/>
      <point x="244" y="536" type="line" smooth="yes"/>
      <point x="244" y="542"/>
      <point x="239" y="547"/>
      <point x="233" y="547" type="curve" smooth="yes"/>
      <point x="175" y="547"/>
      <point x="114" y="547"/>
      <point x="57" y="547" type="curve"/>
      <point x="57" y="371" type="line" smooth="yes"/>
      <point x="57" y="365"/>
      <point x="62" y="360"/>
      <point x="68" y="360" type="curve" smooth="yes"/>
      <point x="125" y="360"/>
      <point x="186" y="360"/>
    </contour>
    <contour>
      <point x="243" y="-9" type="curve"/>
      <point x="243" y="166" type="line" smooth="yes"/>
      <point x="243" y="172"/>
      <point x="238" y="177"/>
      <point x="232" y="177" type="curve" smooth="yes"/>
      <point x="175" y="177"/>
      <point x="114" y="177"/>
      <point x="56" y="177" type="curve"/>
      <point x="56" y="2" type="line" smooth="yes"/>
      <point x="56" y="-4"/>
      <point x="61" y="-9"/>
      <point x="67" y="-9" type="curve" smooth="yes"/>
      <point x="125" y="-9"/>
      <point x="186" y="-9"/>
    </contour>
  </outline>
</glyph>
<glyph name="semicolon" format="1">
  <advance width="350"/>
  <unicode hex="003B"/>
  <outline>
    <contour>
      <point x="268" y="360" type="curve"/>
      <point x="268" y="536" type="line" smooth="yes"/>
      <point x="268" y="542"/>
      <point x="263" y="547"/>
      <point x="257" y="547" type="curve" smooth="yes"/>
      <point x="200" y="547"/>
      <point x="139" y="547"/>
      <point x="82" y="547" type="curve"/>
      <point x="82" y="371" type="line" smooth="yes"/>
      <point x="82" y="365"/>
      <point x="87" y="360"/>
      <point x="93" y="360" type="curve" smooth="yes"/>
      <point x="150" y="360"/>
      <point x="211" y="360"/>
    </contour>
    <contour>
      <point x="151" y="-231" type="curve" smooth="yes"/>
      <point x="156" y="-231"/>
      <point x="159" y="-230"/>
      <point x="161" y="-224" type="curve"/>
      <point x="202" y="-118"/>
      <point x="249" y="4"/>
      <point x="283" y="91" type="curve"/>
      <point x="286" y="99"/>
      <point x="283" y="104"/>
      <point x="275" y="104" type="curve" smooth="yes"/>
      <point x="210" y="104"/>
      <point x="172" y="104"/>
      <point x="96" y="104" type="curve"/>
      <point x="72" y="-7"/>
      <point x="48" y="-120"/>
      <point x="24" y="-231" type="curve"/>
      <point x="58" y="-231"/>
      <point x="95" y="-231"/>
    </contour>
  </outline>
</glyph>
<glyph name="greater" format="1">
  <advance width="591"/>
  <unicode hex="003E"/>
  <outline>
    <contour>
      <point x="80" y="145" type="curve"/>
      <point x="80" y="23" type="line"/>
      <point x="80" y="18"/>
      <point x="83" y="14"/>
      <point x="88" y="14" type="curve" smooth="yes"/>
      <point x="92" y="14"/>
      <point x="96" y="15"/>
      <point x="111" y="21" type="curve" smooth="yes"/>
      <point x="155" y="41"/>
      <point x="380" y="143"/>
      <point x="521" y="207" type="curve"/>
      <point x="521" y="366" type="line"/>
      <point x="506" y="343"/>
      <point x="487" y="326"/>
      <point x="433" y="303" type="curve"/>
      <point x="315" y="250"/>
      <point x="197" y="198"/>
    </contour>
    <contour>
      <point x="81" y="591" type="curve"/>
      <point x="81" y="549"/>
      <point x="81" y="511"/>
      <point x="81" y="468" type="curve" smooth="yes"/>
      <point x="81" y="459"/>
      <point x="82" y="456"/>
      <point x="92" y="451" type="curve" smooth="yes"/>
      <point x="186" y="409"/>
      <point x="285" y="364"/>
      <point x="380" y="322" type="curve" smooth="yes"/>
      <point x="389" y="318"/>
      <point x="391" y="313"/>
      <point x="391" y="304" type="curve" smooth="yes"/>
      <point x="391" y="284"/>
      <point x="391" y="260"/>
      <point x="391" y="225" type="curve"/>
      <point x="485" y="226"/>
      <point x="521" y="299"/>
      <point x="521" y="356" type="curve" smooth="yes"/>
      <point x="521" y="383" type="line" smooth="yes"/>
      <point x="521" y="392"/>
      <point x="516" y="399"/>
      <point x="507" y="403" type="curve" smooth="yes"/>
      <point x="365" y="466"/>
      <point x="223" y="529"/>
    </contour>
  </outline>
</glyph>
<glyph name="question" format="1">
  <advance width="600"/>
  <unicode hex="003F"/>
  <outline>
    <contour>
      <point x="295" y="720" type="curve" smooth="yes"/>
      <point x="195" y="720"/>
      <point x="109" y="696"/>
      <point x="85" y="672" type="curve" smooth="yes"/>
      <point x="82" y="669"/>
      <point x="81" y="666"/>
      <point x="81" y="661" type="curve" smooth="yes"/>
      <point x="81" y="611"/>
      <point x="81" y="561"/>
      <point x="81" y="538" type="curve"/>
      <point x="100" y="538" type="line"/>
      <point x="159" y="574"/>
      <point x="220" y="588"/>
      <point x="294" y="588" type="curve" smooth="yes"/>
      <point x="384" y="588"/>
      <point x="398" y="564"/>
      <point x="398" y="532" type="curve" smooth="yes"/>
      <point x="398" y="508"/>
      <point x="398" y="490"/>
      <point x="398" y="463" type="curve"/>
      <point x="496" y="464"/>
      <point x="531" y="505"/>
      <point x="531" y="554" type="curve" smooth="yes"/>
      <point x="531" y="640"/>
      <point x="461" y="720"/>
    </contour>
    <contour>
      <point x="398" y="616" type="curve"/>
      <point x="398" y="594"/>
      <point x="398" y="560"/>
      <point x="398" y="528" type="curve" smooth="yes"/>
      <point x="398" y="491"/>
      <point x="389" y="481"/>
      <point x="334" y="443" type="curve" smooth="yes"/>
      <point x="307" y="424" type="line" smooth="yes"/>
      <point x="231" y="372"/>
      <point x="210" y="340"/>
      <point x="210" y="283" type="curve" smooth="yes"/>
      <point x="210" y="260" type="line" smooth="yes"/>
      <point x="210" y="251"/>
      <point x="213" y="249"/>
      <point x="221" y="249" type="curve" smooth="yes"/>
      <point x="345" y="249" type="line"/>
      <point x="345" y="256" type="line" smooth="yes"/>
      <point x="345" y="292"/>
      <point x="354" y="304"/>
      <point x="399" y="333" type="curve" smooth="yes"/>
      <point x="432" y="355" type="line" smooth="yes"/>
      <point x="510" y="407"/>
      <point x="531" y="450"/>
      <point x="531" y="524" type="curve" smooth="yes"/>
      <point x="531" y="554" type="line" smooth="yes"/>
      <point x="531" y="592"/>
      <point x="508" y="616"/>
    </contour>
    <contour>
      <point x="374" y="-9" type="curve"/>
      <point x="374" y="158" type="line" smooth="yes"/>
      <point x="374" y="164"/>
      <point x="369" y="169"/>
      <point x="363" y="169" type="curve" smooth="yes"/>
      <point x="306" y="169"/>
      <point x="245" y="169"/>
      <point x="187" y="169" type="curve"/>
      <point x="187" y="2" type="line" smooth="yes"/>
      <point x="187" y="-4"/>
      <point x="192" y="-9"/>
      <point x="198" y="-9" type="curve" smooth="yes"/>
      <point x="256" y="-9"/>
      <point x="317" y="-9"/>
    </contour>
  </outline>
</glyph>
<glyph name="at" format="1">
  <advance width="600"/>
  <unicode hex="0040"/>
  <outline>
    <contour>
      <point x="447" y="502" type="curve" smooth="yes"/>
      <point x="433" y="523"/>
      <point x="395" y="547"/>
      <point x="348" y="547" type="curve" smooth="yes"/>
      <point x="315" y="547"/>
      <point x="288" y="537"/>
      <point x="268" y="518" type="curve" smooth="yes"/>
      <point x="247" y="497"/>
      <point x="258" y="481"/>
      <point x="345" y="400" type="curve"/>
      <point x="345" y="438"/>
      <point x="363" y="450"/>
      <point x="389" y="450" type="curve" smooth="yes"/>
      <point x="421" y="450"/>
      <point x="439" y="445"/>
      <point x="461" y="430" type="curve"/>
      <point x="463" y="469"/>
      <point x="456" y="490"/>
    </contour>
    <contour>
      <point x="470" y="174" type="curve"/>
      <point x="445" y="138"/>
      <point x="398" y="121"/>
      <point x="366" y="121" type="curve" smooth="yes"/>
      <point x="353" y="121"/>
      <point x="345" y="131"/>
      <point x="345" y="148" type="curve" smooth="yes"/>
      <point x="345" y="400" type="line" smooth="yes"/>
      <point x="345" y="437"/>
      <point x="353" y="461"/>
      <point x="381" y="491" type="curve"/>
      <point x="308" y="532"/>
      <point x="291" y="541"/>
      <point x="268" y="518" type="curve" smooth="yes"/>
      <point x="242" y="492"/>
      <point x="233" y="459"/>
      <point x="233" y="415" type="curve" smooth="yes"/>
      <point x="233" y="123" type="line" smooth="yes"/>
      <point x="233" y="55"/>
      <point x="275" y="13"/>
      <point x="336" y="13" type="curve" smooth="yes"/>
      <point x="386" y="13"/>
      <point x="426" y="35"/>
      <point x="468" y="100" type="curve" smooth="yes"/>
      <point x="474" y="110"/>
      <point x="475" y="118"/>
    </contour>
    <contour>
      <point x="540" y="23" type="line"/>
      <point x="540" y="59"/>
      <point x="540" y="95"/>
      <point x="540" y="131" type="curve"/>
      <point x="540" y="541" type="line" smooth="yes"/>
      <point x="540" y="665"/>
      <point x="454" y="760"/>
      <point x="302" y="760" type="curve" smooth="yes"/>
      <point x="287" y="760"/>
      <point x="280" y="743"/>
      <point x="303" y="675" type="curve"/>
      <point x="381" y="675"/>
      <point x="428" y="643"/>
      <point x="428" y="551" type="curve" smooth="yes"/>
      <point x="428" y="111" type="line" smooth="yes"/>
      <point x="428" y="106"/>
      <point x="489" y="23"/>
      <point x="498" y="23" type="curve" smooth="yes"/>
    </contour>
    <contour>
      <point x="60" y="522" type="curve" smooth="yes"/>
      <point x="60" y="105" type="line" smooth="yes"/>
      <point x="60" y="-5"/>
      <point x="82" y="-77"/>
      <point x="129" y="-124" type="curve" smooth="yes"/>
      <point x="159" y="-154"/>
      <point x="283" y="-160"/>
      <point x="328" y="-108" type="curve"/>
      <point x="194" y="-108"/>
      <point x="151" y="-42"/>
      <point x="151" y="83" type="curve" smooth="yes"/>
      <point x="151" y="503" type="line" smooth="yes"/>
      <point x="151" y="601"/>
      <point x="204" y="675"/>
      <point x="303" y="675" type="curve" smooth="yes"/>
      <point x="359" y="675"/>
      <point x="402" y="659"/>
      <point x="437" y="627" type="curve"/>
      <point x="449" y="635"/>
      <point x="453" y="640"/>
      <point x="453" y="662" type="curve" smooth="yes"/>
      <point x="453" y="718"/>
      <point x="388" y="760"/>
      <point x="302" y="760" type="curve" smooth="yes"/>
      <point x="160" y="760"/>
      <point x="60" y="659"/>
    </contour>
    <contour>
      <point x="316" y="-191" type="curve" smooth="yes"/>
      <point x="383" y="-191"/>
      <point x="457" y="-175"/>
      <point x="471" y="-161" type="curve" smooth="yes"/>
      <point x="473" y="-159"/>
      <point x="474" y="-156"/>
      <point x="474" y="-153" type="curve" smooth="yes"/>
      <point x="474" y="-81" type="line"/>
      <point x="455" y="-81" type="line"/>
      <point x="419" y="-99"/>
      <point x="375" y="-108"/>
      <point x="328" y="-108" type="curve" smooth="yes"/>
      <point x="231" y="-108"/>
      <point x="192" y="-81"/>
      <point x="139" y="-25" type="curve"/>
      <point x="106" y="-71"/>
      <point x="110" y="-105"/>
      <point x="129" y="-124" type="curve"/>
      <point x="171" y="-166"/>
      <point x="232" y="-191"/>
    </contour>
  </outline>
</glyph>
<glyph name="C" format="1">
  <advance width="600"/>
  <unicode hex="0043"/>
  <outline>
    <contour>
      <point x="329" y="593" type="curve" smooth="yes"/>
      <point x="396" y="593"/>
      <point x="435" y="572"/>
      <point x="471" y="541" type="curve"/>
      <point x="531" y="604"/>
      <point x="540" y="619"/>
      <point x="540" y="634" type="curve" smooth="yes"/>
      <point x="540" y="645"/>
      <point x="539" y="648"/>
      <point x="534" y="653" type="curve" smooth="yes"/>
      <point x="501" y="686"/>
      <point x="434" y="720"/>
      <point x="332" y="720" type="curve" smooth="yes"/>
      <point x="154" y="720"/>
      <point x="54" y="613"/>
      <point x="54" y="451" type="curve" smooth="yes"/>
      <point x="54" y="254" type="line" smooth="yes"/>
      <point x="54" y="171"/>
      <point x="109" y="113"/>
      <point x="196" y="114" type="curve"/>
      <point x="196" y="153"/>
      <point x="196" y="187"/>
      <point x="196" y="253" type="curve" smooth="yes"/>
      <point x="196" y="449" type="line" smooth="yes"/>
      <point x="196" y="550"/>
      <point x="245" y="593"/>
    </contour>
    <contour>
      <point x="337" y="-20" type="curve" smooth="yes"/>
      <point x="431" y="-20"/>
      <point x="514" y="4"/>
      <point x="543" y="32" type="curve" smooth="yes"/>
      <point x="545" y="34"/>
      <point x="546" y="37"/>
      <point x="546" y="40" type="curve" smooth="yes"/>
      <point x="546" y="81"/>
      <point x="546" y="122"/>
      <point x="546" y="162" type="curve"/>
      <point x="527" y="162" type="line"/>
      <point x="473" y="128"/>
      <point x="416" y="112"/>
      <point x="337" y="112" type="curve" smooth="yes"/>
      <point x="242" y="112"/>
      <point x="196" y="158"/>
      <point x="196" y="273" type="curve"/>
      <point x="101" y="275"/>
      <point x="54" y="266"/>
      <point x="54" y="254" type="curve" smooth="yes"/>
      <point x="54" y="81"/>
      <point x="147" y="-20"/>
    </contour>
    <contour>
      <point x="540" y="465" type="curve"/>
      <point x="540" y="634" type="line" smooth="yes"/>
      <point x="540" y="647"/>
      <point x="506" y="654"/>
      <point x="415" y="654" type="curve"/>
      <point x="415" y="639"/>
      <point x="415" y="620"/>
      <point x="415" y="608" type="curve" smooth="yes"/>
      <point x="415" y="476" type="line"/>
      <point x="415" y="473"/>
      <point x="416" y="470"/>
      <point x="418" y="468" type="curve" smooth="yes"/>
      <point x="420" y="466"/>
      <point x="423" y="465"/>
      <point x="426" y="465" type="curve"/>
      <point x="464" y="465"/>
      <point x="502" y="465"/>
    </contour>
    <contour>
      <point x="306" y="711" type="move" name="top"/>
    </contour>
    <contour>
      <point x="323" y="0" type="move" name="bottom"/>
    </contour>
  </outline>
</glyph>
<glyph name="D" format="1">
  <advance width="650"/>
  <unicode hex="0044"/>
  <outline>
    <contour>
      <point x="220" y="42" type="curve"/>
      <point x="220" y="644" type="line" smooth="yes"/>
      <point x="220" y="650"/>
      <point x="215" y="655"/>
      <point x="79" y="655" type="curve"/>
      <point x="79" y="52" type="line" smooth="yes"/>
      <point x="79" y="46"/>
      <point x="84" y="42"/>
    </contour>
    <contour>
      <point x="30" y="700" type="curve"/>
      <point x="30" y="662"/>
      <point x="30" y="623"/>
      <point x="30" y="585" type="curve"/>
      <point x="30" y="582"/>
      <point x="31" y="579"/>
      <point x="33" y="577" type="curve" smooth="yes"/>
      <point x="35" y="575"/>
      <point x="38" y="574"/>
      <point x="41" y="574" type="curve" smooth="yes"/>
      <point x="55" y="574"/>
      <point x="80" y="574"/>
      <point x="94" y="574" type="curve" smooth="yes"/>
      <point x="153" y="574"/>
      <point x="243" y="574"/>
      <point x="302" y="574" type="curve"/>
      <point x="364" y="574"/>
      <point x="388" y="574"/>
      <point x="425" y="574" type="curve"/>
      <point x="425" y="648"/>
      <point x="416" y="700"/>
      <point x="300" y="700" type="curve" smooth="yes"/>
      <point x="226" y="700"/>
      <point x="108" y="700"/>
    </contour>
    <contour>
      <point x="592" y="274" type="curve" smooth="yes"/>
      <point x="592" y="435" type="line" smooth="yes"/>
      <point x="592" y="616"/>
      <point x="484" y="700"/>
      <point x="300" y="700" type="curve" smooth="yes"/>
      <point x="289" y="700"/>
      <point x="279" y="690"/>
      <point x="302" y="574" type="curve"/>
      <point x="413" y="574"/>
      <point x="459" y="530"/>
      <point x="459" y="435" type="curve" smooth="yes"/>
      <point x="459" y="275" type="line" smooth="yes"/>
      <point x="459" y="177"/>
      <point x="402" y="126"/>
      <point x="309" y="126" type="curve" smooth="yes"/>
      <point x="259" y="126"/>
      <point x="123" y="126"/>
      <point x="82" y="126" type="curve"/>
      <point x="80" y="85"/>
      <point x="79" y="60"/>
      <point x="79" y="11" type="curve" smooth="yes"/>
      <point x="79" y="5"/>
      <point x="84" y="0"/>
      <point x="90" y="0" type="curve" smooth="yes"/>
      <point x="312" y="0" type="line" smooth="yes"/>
      <point x="487" y="0"/>
      <point x="592" y="103"/>
    </contour>
    <contour>
      <point x="310" y="711" type="move" name="top"/>
    </contour>
  </outline>
</glyph>
<glyph name="E" format="1">
  <advance width="550"/>
  <unicode hex="0045"/>
  <outline>
    <contour>
      <point x="28" y="700" type="line"/>
      <point x="28" y="662"/>
      <point x="28" y="623"/>
      <point x="28" y="585" type="curve" smooth="yes"/>
      <point x="28" y="582"/>
      <point x="29" y="579"/>
      <point x="31" y="577" type="curve" smooth="yes"/>
      <point x="33" y="575"/>
      <point x="36" y="574"/>
      <point x="39" y="574" type="curve" smooth="yes"/>
      <point x="498" y="574" type="line"/>
      <point x="498" y="612"/>
      <point x="498" y="651"/>
      <point x="498" y="689" type="curve" smooth="yes"/>
      <point x="498" y="692"/>
      <point x="497" y="695"/>
      <point x="495" y="697" type="curve" smooth="yes"/>
      <point x="493" y="699"/>
      <point x="490" y="700"/>
      <point x="487" y="700" type="curve" smooth="yes"/>
    </contour>
    <contour>
      <point x="219" y="87" type="curve"/>
      <point x="219" y="646" type="line" smooth="yes"/>
      <point x="219" y="652"/>
      <point x="214" y="657"/>
      <point x="78" y="657" type="curve"/>
      <point x="78" y="98" type="line"/>
      <point x="78" y="92"/>
      <point x="83" y="87"/>
    </contour>
    <contour>
      <point x="78" y="126" type="line"/>
      <point x="78" y="11" type="line" smooth="yes"/>
      <point x="78" y="5"/>
      <point x="83" y="0"/>
      <point x="89" y="0" type="curve" smooth="yes"/>
      <point x="498" y="0" type="line"/>
      <point x="498" y="38"/>
      <point x="498" y="77"/>
      <point x="498" y="115" type="curve" smooth="yes"/>
      <point x="498" y="121"/>
      <point x="493" y="126"/>
      <point x="487" y="126" type="curve" smooth="yes"/>
    </contour>
    <contour>
      <point x="139" y="413" type="line"/>
      <point x="139" y="299"/>
      <point x="144" y="291"/>
      <point x="150" y="291" type="curve" smooth="yes"/>
      <point x="440" y="291" type="line"/>
      <point x="440" y="324"/>
      <point x="440" y="362"/>
      <point x="440" y="402" type="curve" smooth="yes"/>
      <point x="440" y="405"/>
      <point x="439" y="408"/>
      <point x="437" y="410" type="curve" smooth="yes"/>
      <point x="435" y="412"/>
      <point x="432" y="413"/>
      <point x="429" y="413" type="curve" smooth="yes"/>
    </contour>
    <contour>
      <point x="259" y="711" type="move" name="top"/>
    </contour>
    <contour>
      <point x="499" y="0" type="move" name="ogonek"/>
    </contour>
    <contour>
      <point x="259" y="-1" type="move" name="bottom"/>
    </contour>
  </outline>
</glyph>
<glyph name="F" format="1">
  <advance width="550"/>
  <unicode hex="0046"/>
  <outline>
    <contour>
      <point x="239" y="0" type="curve"/>
      <point x="239" y="29"/>
      <point x="239" y="63"/>
      <point x="239" y="98" type="curve" smooth="yes"/>
      <point x="239" y="640" type="line"/>
      <point x="239" y="650"/>
      <point x="227" y="656"/>
      <point x="98" y="656" type="curve"/>
      <point x="98" y="11" type="line" smooth="yes"/>
      <point x="98" y="5"/>
      <point x="103" y="0"/>
      <point x="109" y="0" type="curve" smooth="yes"/>
      <point x="152" y="0"/>
      <point x="195" y="0"/>
    </contour>
    <contour>
      <point x="48" y="700" type="line"/>
      <point x="48" y="662"/>
      <point x="48" y="623"/>
      <point x="48" y="585" type="curve" smooth="yes"/>
      <point x="48" y="582"/>
      <point x="49" y="579"/>
      <point x="51" y="577" type="curve" smooth="yes"/>
      <point x="53" y="575"/>
      <point x="56" y="574"/>
      <point x="59" y="574" type="curve"/>
      <point x="490" y="574" type="line"/>
      <point x="490" y="612"/>
      <point x="490" y="651"/>
      <point x="490" y="689" type="curve" smooth="yes"/>
      <point x="490" y="692"/>
      <point x="489" y="695"/>
      <point x="487" y="697" type="curve" smooth="yes"/>
      <point x="485" y="699"/>
      <point x="482" y="700"/>
      <point x="479" y="700" type="curve"/>
    </contour>
    <contour>
      <point x="159" y="385" type="line"/>
      <point x="159" y="280"/>
      <point x="162" y="259"/>
      <point x="170" y="259" type="curve"/>
      <point x="457" y="259" type="line"/>
      <point x="457" y="297"/>
      <point x="457" y="336"/>
      <point x="457" y="374" type="curve"/>
      <point x="457" y="377"/>
      <point x="456" y="380"/>
      <point x="454" y="382" type="curve" smooth="yes"/>
      <point x="452" y="384"/>
      <point x="449" y="385"/>
      <point x="446" y="385" type="curve"/>
    </contour>
  </outline>
</glyph>
<glyph name="G" format="1">
  <advance width="650"/>
  <unicode hex="0047"/>
  <outline>
    <contour>
      <point x="337" y="597" type="curve" smooth="yes"/>
      <point x="418" y="597"/>
      <point x="456" y="586"/>
      <point x="502" y="549" type="curve"/>
      <point x="568" y="621"/>
      <point x="572" y="631"/>
      <point x="572" y="639" type="curve" smooth="yes"/>
      <point x="572" y="650"/>
      <point x="571" y="653"/>
      <point x="566" y="658" type="curve" smooth="yes"/>
      <point x="536" y="688"/>
      <point x="462" y="720"/>
      <point x="343" y="720" type="curve" smooth="yes"/>
      <point x="161" y="720"/>
      <point x="54" y="623"/>
      <point x="54" y="441" type="curve" smooth="yes"/>
      <point x="54" y="251" type="line" smooth="yes"/>
      <point x="54" y="177"/>
      <point x="110" y="107"/>
      <point x="188" y="107" type="curve"/>
      <point x="188" y="153"/>
      <point x="188" y="189"/>
      <point x="188" y="252" type="curve" smooth="yes"/>
      <point x="188" y="448" type="line" smooth="yes"/>
      <point x="188" y="545"/>
      <point x="241" y="597"/>
    </contour>
    <contour>
      <point x="327" y="104" type="curve" smooth="yes"/>
      <point x="237" y="104"/>
      <point x="188" y="146"/>
      <point x="188" y="252" type="curve"/>
      <point x="63" y="273"/>
      <point x="54" y="266"/>
      <point x="54" y="251" type="curve" smooth="yes"/>
      <point x="54" y="83"/>
      <point x="151" y="-20"/>
      <point x="327" y="-20" type="curve" smooth="yes"/>
      <point x="503" y="-20"/>
      <point x="575" y="62"/>
      <point x="575" y="78" type="curve" smooth="yes"/>
      <point x="575" y="283" type="line" smooth="yes"/>
      <point x="575" y="301"/>
      <point x="489" y="308"/>
      <point x="450" y="308" type="curve"/>
      <point x="450" y="254"/>
      <point x="450" y="194"/>
      <point x="450" y="139" type="curve" smooth="yes"/>
      <point x="450" y="129"/>
      <point x="410" y="104"/>
    </contour>
    <contour>
      <point x="336" y="381" type="line"/>
      <point x="336" y="346"/>
      <point x="336" y="312"/>
      <point x="336" y="277" type="curve" smooth="yes"/>
      <point x="336" y="274"/>
      <point x="337" y="271"/>
      <point x="339" y="269" type="curve" smooth="yes"/>
      <point x="341" y="267"/>
      <point x="344" y="266"/>
      <point x="347" y="266" type="curve"/>
      <point x="612" y="266" type="line"/>
      <point x="612" y="370" type="line" smooth="yes"/>
      <point x="612" y="376"/>
      <point x="607" y="381"/>
      <point x="601" y="381" type="curve" smooth="yes"/>
    </contour>
    <contour>
      <point x="572" y="496" type="curve"/>
      <point x="572" y="639" type="line" smooth="yes"/>
      <point x="572" y="650"/>
      <point x="561" y="656"/>
      <point x="447" y="656" type="curve"/>
      <point x="447" y="641"/>
      <point x="447" y="622"/>
      <point x="447" y="609" type="curve" smooth="yes"/>
      <point x="447" y="507" type="line" smooth="yes"/>
      <point x="447" y="500"/>
      <point x="451" y="496"/>
      <point x="458" y="496" type="curve" smooth="yes"/>
      <point x="496" y="496"/>
      <point x="534" y="496"/>
    </contour>
    <contour>
      <point x="333" y="711" type="move" name="top"/>
    </contour>
    <contour>
      <point x="333" y="-1" type="move" name="bottom"/>
    </contour>
  </outline>
</glyph>
<glyph name="H" format="1">
  <advance width="650"/>
  <unicode hex="0048"/>
  <outline>
    <contour>
      <point x="73" y="700" type="curve"/>
      <point x="73" y="665"/>
      <point x="73" y="630"/>
      <point x="73" y="594" type="curve" smooth="yes"/>
      <point x="73" y="11" type="line" smooth="yes"/>
      <point x="73" y="5"/>
      <point x="78" y="0"/>
      <point x="84" y="0" type="curve" smooth="yes"/>
      <point x="128" y="0"/>
      <point x="171" y="0"/>
      <point x="215" y="0" type="curve"/>
      <point x="215" y="689" type="line" smooth="yes"/>
      <point x="215" y="692"/>
      <point x="214" y="695"/>
      <point x="212" y="697" type="curve" smooth="yes"/>
      <point x="210" y="699"/>
      <point x="207" y="700"/>
      <point x="204" y="700" type="curve" smooth="yes"/>
      <point x="160" y="700"/>
      <point x="117" y="700"/>
    </contour>
    <contour>
      <point x="577" y="0" type="curve"/>
      <point x="577" y="32"/>
      <point x="577" y="69"/>
      <point x="577" y="108" type="curve" smooth="yes"/>
      <point x="577" y="689" type="line" smooth="yes"/>
      <point x="577" y="695"/>
      <point x="572" y="700"/>
      <point x="566" y="700" type="curve" smooth="yes"/>
      <point x="522" y="700"/>
      <point x="479" y="700"/>
      <point x="435" y="700" type="curve"/>
      <point x="435" y="11" type="line" smooth="yes"/>
      <point x="435" y="8"/>
      <point x="436" y="5"/>
      <point x="438" y="3" type="curve" smooth="yes"/>
      <point x="440" y="1"/>
      <point x="443" y="0"/>
      <point x="446" y="0" type="curve" smooth="yes"/>
      <point x="490" y="0"/>
      <point x="533" y="0"/>
    </contour>
    <contour>
      <point x="133" y="413" type="line"/>
      <point x="133" y="298" type="line" smooth="yes"/>
      <point x="133" y="295"/>
      <point x="134" y="292"/>
      <point x="136" y="290" type="curve" smooth="yes"/>
      <point x="138" y="288"/>
      <point x="141" y="287"/>
      <point x="144" y="287" type="curve"/>
      <point x="515" y="287" type="line"/>
      <point x="515" y="407"/>
      <point x="510" y="413"/>
      <point x="504" y="413" type="curve" smooth="yes"/>
    </contour>
    <contour>
      <point x="325" y="711" type="move" name="top"/>
    </contour>
  </outline>
</glyph>
<glyph name="I" format="1">
  <advance width="500"/>
  <unicode hex="0049"/>
  <outline>
    <contour>
      <point x="321" y="45" type="curve"/>
      <point x="321" y="645" type="line" smooth="yes"/>
      <point x="321" y="651"/>
      <point x="316" y="655"/>
      <point x="179" y="655" type="curve"/>
      <point x="179" y="56" type="line" smooth="yes"/>
      <point x="179" y="50"/>
      <point x="184" y="45"/>
    </contour>
    <contour>
      <point x="72" y="700" type="line"/>
      <point x="72" y="662"/>
      <point x="72" y="623"/>
      <point x="72" y="585" type="curve"/>
      <point x="72" y="582"/>
      <point x="73" y="579"/>
      <point x="75" y="577" type="curve" smooth="yes"/>
      <point x="77" y="575"/>
      <point x="80" y="574"/>
      <point x="83" y="574" type="curve" smooth="yes"/>
      <point x="428" y="574" type="line"/>
      <point x="428" y="612"/>
      <point x="428" y="651"/>
      <point x="428" y="689" type="curve" smooth="yes"/>
      <point x="428" y="695"/>
      <point x="423" y="700"/>
      <point x="417" y="700" type="curve" smooth="yes"/>
    </contour>
    <contour>
      <point x="72" y="126" type="line"/>
      <point x="72" y="88"/>
      <point x="72" y="49"/>
      <point x="72" y="11" type="curve"/>
      <point x="72" y="8"/>
      <point x="73" y="5"/>
      <point x="75" y="3" type="curve" smooth="yes"/>
      <point x="77" y="1"/>
      <point x="80" y="0"/>
      <point x="83" y="0" type="curve" smooth="yes"/>
      <point x="428" y="0" type="line"/>
      <point x="428" y="38"/>
      <point x="428" y="77"/>
      <point x="428" y="115" type="curve" smooth="yes"/>
      <point x="428" y="121"/>
      <point x="423" y="126"/>
      <point x="417" y="126" type="curve" smooth="yes"/>
    </contour>
    <contour>
      <point x="250" y="711" type="move" name="top"/>
    </contour>
    <contour>
      <point x="429" y="0" type="move" name="ogonek"/>
    </contour>
    <contour>
      <point x="250" y="-1" type="move" name="bottom"/>
    </contour>
  </outline>
</glyph>
<glyph name="J" format="1">
  <advance width="500"/>
  <unicode hex="004A"/>
  <outline>
    <contour>
      <point x="91" y="700" type="line"/>
      <point x="91" y="662"/>
      <point x="91" y="623"/>
      <point x="91" y="585" type="curve" smooth="yes"/>
      <point x="91" y="582"/>
      <point x="92" y="579"/>
      <point x="94" y="577" type="curve" smooth="yes"/>
      <point x="96" y="575"/>
      <point x="99" y="574"/>
      <point x="102" y="574" type="curve" smooth="yes"/>
      <point x="391" y="574" type="line"/>
      <point x="391" y="627"/>
      <point x="372" y="700"/>
      <point x="327" y="700" type="curve"/>
    </contour>
    <contour>
      <point x="430" y="228" type="curve" smooth="yes"/>
      <point x="430" y="689" type="line" smooth="yes"/>
      <point x="430" y="695"/>
      <point x="425" y="700"/>
      <point x="419" y="700" type="curve" smooth="yes"/>
      <point x="297" y="700" type="line"/>
      <point x="297" y="228" type="line" smooth="yes"/>
      <point x="297" y="157"/>
      <point x="297" y="135"/>
      <point x="297" y="83" type="curve"/>
      <point x="363" y="83"/>
      <point x="430" y="126"/>
    </contour>
    <contour>
      <point x="192" y="112" type="curve" smooth="yes"/>
      <point x="145" y="112"/>
      <point x="106" y="124"/>
      <point x="62" y="145" type="curve"/>
      <point x="43" y="145" type="line"/>
      <point x="43" y="107"/>
      <point x="43" y="68"/>
      <point x="43" y="30" type="curve"/>
      <point x="43" y="27"/>
      <point x="44" y="24"/>
      <point x="46" y="22" type="curve" smooth="yes"/>
      <point x="62" y="6"/>
      <point x="127" y="-13"/>
      <point x="182" y="-13" type="curve" smooth="yes"/>
      <point x="202" y="-13" type="line" smooth="yes"/>
      <point x="350" y="-13"/>
      <point x="430" y="81"/>
      <point x="430" y="228" type="curve"/>
      <point x="430" y="237"/>
      <point x="421" y="244"/>
      <point x="297" y="228" type="curve"/>
      <point x="297" y="137"/>
      <point x="266" y="112"/>
    </contour>
    <contour>
      <point x="255" y="711" type="move" name="top"/>
    </contour>
  </outline>
</glyph>
<glyph name="L" format="1">
  <advance width="550"/>
  <unicode hex="004C"/>
  <outline>
    <contour>
      <point x="215" y="87" type="curve"/>
      <point x="215" y="689" type="line" smooth="yes"/>
      <point x="215" y="692"/>
      <point x="214" y="695"/>
      <point x="212" y="697" type="curve" smooth="yes"/>
      <point x="210" y="699"/>
      <point x="207" y="700"/>
      <point x="204" y="700" type="curve" smooth="yes"/>
      <point x="160" y="700"/>
      <point x="117" y="700"/>
      <point x="73" y="700" type="curve"/>
      <point x="73" y="667"/>
      <point x="73" y="633"/>
      <point x="73" y="600" type="curve" smooth="yes"/>
      <point x="73" y="98" type="line" smooth="yes"/>
      <point x="73" y="92"/>
      <point x="78" y="87"/>
    </contour>
    <contour>
      <point x="73" y="126" type="line"/>
      <point x="73" y="11" type="line" smooth="yes"/>
      <point x="73" y="5"/>
      <point x="78" y="0"/>
      <point x="84" y="0" type="curve" smooth="yes"/>
      <point x="498" y="0" type="line"/>
      <point x="498" y="38"/>
      <point x="498" y="77"/>
      <point x="498" y="115" type="curve" smooth="yes"/>
      <point x="498" y="121"/>
      <point x="493" y="126"/>
      <point x="487" y="126" type="curve" smooth="yes"/>
    </contour>
    <contour>
      <point x="409" y="550" type="move" name="caronslovak"/>
    </contour>
    <contour>
      <point x="144" y="711" type="move" name="top"/>
    </contour>
    <contour>
      <point x="436" y="400" type="move" name="dot"/>
    </contour>
    <contour>
      <point x="286" y="-1" type="move" name="bottom"/>
    </contour>
  </outline>
</glyph>
<glyph name="M" format="1">
  <advance width="800"/>
  <unicode hex="004D"/>
  <outline>
    <contour>
      <point x="203" y="0" type="curve"/>
      <point x="203" y="68"/>
      <point x="203" y="135"/>
      <point x="203" y="202" type="curve" smooth="yes"/>
      <point x="198" y="366"/>
      <point x="193" y="529"/>
      <point x="188" y="689" type="curve" smooth="yes"/>
      <point x="188" y="692"/>
      <point x="187" y="695"/>
      <point x="185" y="697" type="curve" smooth="yes"/>
      <point x="183" y="699"/>
      <point x="180" y="700"/>
      <point x="177" y="700" type="curve" smooth="yes"/>
      <point x="143" y="700"/>
      <point x="108" y="700"/>
      <point x="74" y="700" type="curve"/>
      <point x="74" y="662"/>
      <point x="74" y="625"/>
      <point x="74" y="587" type="curve" smooth="yes"/>
      <point x="74" y="395"/>
      <point x="74" y="203"/>
      <point x="74" y="11" type="curve" smooth="yes"/>
      <point x="74" y="8"/>
      <point x="75" y="5"/>
      <point x="77" y="3" type="curve" smooth="yes"/>
      <point x="79" y="1"/>
      <point x="82" y="0"/>
      <point x="85" y="0" type="curve" smooth="yes"/>
      <point x="124" y="0"/>
      <point x="163" y="0"/>
    </contour>
    <contour>
      <point x="727" y="0" type="curve"/>
      <point x="727" y="37"/>
      <point x="727" y="75"/>
      <point x="727" y="112" type="curve" smooth="yes"/>
      <point x="727" y="304"/>
      <point x="727" y="497"/>
      <point x="727" y="689" type="curve"/>
      <point x="727" y="692"/>
      <point x="726" y="695"/>
      <point x="724" y="697" type="curve" smooth="yes"/>
      <point x="722" y="699"/>
      <point x="719" y="700"/>
      <point x="716" y="700" type="curve" smooth="yes"/>
      <point x="611" y="700" type="line"/>
      <point x="611" y="686"/>
      <point x="611" y="670"/>
      <point x="610" y="656" type="curve"/>
      <point x="605" y="504"/>
      <point x="599" y="353"/>
      <point x="594" y="203" type="curve" smooth="yes"/>
      <point x="594" y="142"/>
      <point x="594" y="80"/>
      <point x="594" y="18" type="curve" smooth="yes"/>
      <point x="594" y="8"/>
      <point x="596" y="5"/>
      <point x="598" y="3" type="curve" smooth="yes"/>
      <point x="600" y="1"/>
      <point x="602" y="0"/>
      <point x="606" y="0" type="curve" smooth="yes"/>
      <point x="647" y="0"/>
      <point x="686" y="0"/>
    </contour>
    <contour>
      <point x="259" y="687" type="curve" smooth="yes"/>
      <point x="255" y="697"/>
      <point x="251" y="700"/>
      <point x="243" y="700" type="curve"/>
      <point x="126" y="700" type="line"/>
      <point x="136" y="676"/>
      <point x="150" y="653"/>
      <point x="160" y="628" type="curve" smooth="yes"/>
      <point x="220" y="467"/>
      <point x="282" y="305"/>
      <point x="342" y="144" type="curve"/>
      <point x="344" y="140"/>
      <point x="349" y="137"/>
      <point x="353" y="137" type="curve" smooth="yes"/>
      <point x="362" y="137"/>
      <point x="371" y="142"/>
      <point x="435" y="227" type="curve"/>
      <point x="377" y="380"/>
      <point x="318" y="534"/>
    </contour>
    <contour>
      <point x="546" y="700" type="curve"/>
      <point x="486" y="543"/>
      <point x="426" y="384"/>
      <point x="367" y="227" type="curve"/>
      <point x="345" y="152"/>
      <point x="355" y="142"/>
      <point x="353" y="137" type="curve"/>
      <point x="452" y="137" type="line"/>
      <point x="521" y="318"/>
      <point x="591" y="501"/>
      <point x="659" y="683" type="curve" smooth="yes"/>
      <point x="664" y="696"/>
      <point x="661" y="700"/>
      <point x="653" y="700" type="curve" smooth="yes"/>
      <point x="639" y="700"/>
      <point x="554" y="700"/>
    </contour>
  </outline>
</glyph>
<glyph name="N" format="1">
  <advance width="700"/>
  <unicode hex="004E"/>
  <outline>
    <contour>
      <point x="206" y="0" type="curve"/>
      <point x="206" y="253" type="line"/>
      <point x="191" y="561"/>
      <point x="183" y="693"/>
      <point x="178" y="697" type="curve" smooth="yes"/>
      <point x="176" y="699"/>
      <point x="173" y="700"/>
      <point x="170" y="700" type="curve"/>
      <point x="141" y="700"/>
      <point x="80" y="700"/>
      <point x="73" y="700" type="curve"/>
      <point x="73" y="653"/>
      <point x="73" y="607"/>
      <point x="73" y="560" type="curve" smooth="yes"/>
      <point x="73" y="11" type="line"/>
      <point x="73" y="5"/>
      <point x="78" y="0"/>
      <point x="84" y="0" type="curve"/>
      <point x="125" y="0"/>
      <point x="166" y="0"/>
    </contour>
    <contour>
      <point x="627" y="0" type="line"/>
      <point x="627" y="689" type="line"/>
      <point x="627" y="695"/>
      <point x="622" y="700"/>
      <point x="616" y="700" type="curve"/>
      <point x="494" y="700" type="line"/>
      <point x="494" y="411" type="line"/>
      <point x="512" y="162"/>
      <point x="526" y="5"/>
      <point x="528" y="3" type="curve" smooth="yes"/>
      <point x="530" y="1"/>
      <point x="533" y="0"/>
      <point x="536" y="0" type="curve"/>
    </contour>
    <contour>
      <point x="162" y="700" type="line"/>
      <point x="151" y="697"/>
      <point x="147" y="694"/>
      <point x="99" y="633" type="curve"/>
      <point x="232" y="425"/>
      <point x="364" y="216"/>
      <point x="496" y="8" type="curve"/>
      <point x="499" y="1"/>
      <point x="504" y="0"/>
      <point x="509" y="0" type="curve" smooth="yes"/>
      <point x="516" y="0"/>
      <point x="542" y="0"/>
      <point x="550" y="0" type="curve"/>
      <point x="561" y="2"/>
      <point x="572" y="87"/>
      <point x="570" y="135" type="curve"/>
      <point x="453" y="320"/>
      <point x="334" y="505"/>
      <point x="217" y="690" type="curve"/>
      <point x="212" y="699"/>
      <point x="210" y="700"/>
      <point x="199" y="700" type="curve"/>
    </contour>
    <contour>
      <point x="350" y="711" type="move" name="top"/>
    </contour>
    <contour>
      <point x="350" y="-1" type="move" name="bottom"/>
    </contour>
  </outline>
</glyph>
<glyph name="O" format="1">
  <advance width="650"/>
  <unicode hex="004F"/>
  <outline>
    <contour>
      <point x="325" y="720" type="curve" smooth="yes"/>
      <point x="170" y="720"/>
      <point x="58" y="596"/>
      <point x="58" y="438" type="curve" smooth="yes"/>
      <point x="58" y="256" type="line" smooth="yes"/>
      <point x="58" y="86"/>
      <point x="168" y="-20"/>
      <point x="325" y="-20" type="curve" smooth="yes"/>
      <point x="332" y="-20"/>
      <point x="342" y="-3"/>
      <point x="325" y="106" type="curve"/>
      <point x="238" y="106"/>
      <point x="191" y="165"/>
      <point x="191" y="256" type="curve" smooth="yes"/>
      <point x="191" y="438" type="line" smooth="yes"/>
      <point x="191" y="532"/>
      <point x="241" y="594"/>
      <point x="325" y="594" type="curve" smooth="yes"/>
      <point x="386" y="594"/>
      <point x="419" y="594"/>
      <point x="448" y="594" type="curve"/>
      <point x="448" y="650"/>
      <point x="428" y="720"/>
    </contour>
    <contour>
      <point x="325" y="-20" type="curve" smooth="yes"/>
      <point x="480" y="-20"/>
      <point x="592" y="104"/>
      <point x="592" y="262" type="curve" smooth="yes"/>
      <point x="592" y="444" type="line" smooth="yes"/>
      <point x="592" y="614"/>
      <point x="482" y="720"/>
      <point x="325" y="720" type="curve" smooth="yes"/>
      <point x="318" y="720"/>
      <point x="308" y="703"/>
      <point x="325" y="594" type="curve"/>
      <point x="412" y="594"/>
      <point x="459" y="535"/>
      <point x="459" y="444" type="curve" smooth="yes"/>
      <point x="459" y="262" type="line" smooth="yes"/>
      <point x="459" y="168"/>
      <point x="409" y="106"/>
      <point x="325" y="106" type="curve" smooth="yes"/>
      <point x="264" y="106"/>
      <point x="231" y="106"/>
      <point x="202" y="106" type="curve"/>
      <point x="202" y="50"/>
      <point x="222" y="-20"/>
    </contour>
    <contour>
      <point x="325" y="711" type="move" name="top"/>
    </contour>
    <contour>
      <point x="429" y="9" type="move" name="ogonek"/>
    </contour>
    <contour>
      <point x="325" y="-1" type="move" name="bottom"/>
    </contour>
  </outline>
</glyph>
<glyph name="P" format="1">
  <advance width="600"/>
  <unicode hex="0050"/>
  <outline>
    <contour>
      <point x="216" y="0" type="curve"/>
      <point x="216" y="33"/>
      <point x="216" y="67"/>
      <point x="216" y="100" type="curve" smooth="yes"/>
      <point x="216" y="644" type="line" smooth="yes"/>
      <point x="216" y="650"/>
      <point x="211" y="655"/>
      <point x="79" y="655" type="curve"/>
      <point x="79" y="11" type="line" smooth="yes"/>
      <point x="79" y="8"/>
      <point x="80" y="5"/>
      <point x="82" y="3" type="curve" smooth="yes"/>
      <point x="84" y="1"/>
      <point x="87" y="0"/>
      <point x="90" y="0" type="curve" smooth="yes"/>
      <point x="133" y="0"/>
      <point x="174" y="0"/>
    </contour>
    <contour>
      <point x="38" y="700" type="curve"/>
      <point x="38" y="660"/>
      <point x="38" y="626"/>
      <point x="38" y="585" type="curve"/>
      <point x="38" y="582"/>
      <point x="39" y="579"/>
      <point x="41" y="577" type="curve" smooth="yes"/>
      <point x="43" y="575"/>
      <point x="46" y="574"/>
      <point x="49" y="574" type="curve" smooth="yes"/>
      <point x="69" y="574"/>
      <point x="91" y="574"/>
      <point x="113" y="574" type="curve" smooth="yes"/>
      <point x="176" y="574"/>
      <point x="255" y="574"/>
      <point x="310" y="574" type="curve" smooth="yes"/>
      <point x="361" y="574"/>
      <point x="383" y="574"/>
      <point x="410" y="574" type="curve"/>
      <point x="410" y="648"/>
      <point x="372" y="700"/>
      <point x="305" y="700" type="curve" smooth="yes"/>
      <point x="233" y="700"/>
      <point x="116" y="700"/>
    </contour>
    <contour>
      <point x="543" y="422" type="curve" smooth="yes"/>
      <point x="543" y="489" type="line" smooth="yes"/>
      <point x="543" y="625"/>
      <point x="470" y="700"/>
      <point x="305" y="700" type="curve"/>
      <point x="300" y="700"/>
      <point x="286" y="684"/>
      <point x="310" y="574" type="curve"/>
      <point x="377" y="574"/>
      <point x="402" y="553"/>
      <point x="402" y="489" type="curve" smooth="yes"/>
      <point x="402" y="423" type="line" smooth="yes"/>
      <point x="402" y="374"/>
      <point x="372" y="342"/>
      <point x="323" y="342" type="curve" smooth="yes"/>
      <point x="296" y="342"/>
      <point x="218" y="342"/>
      <point x="176" y="342" type="curve"/>
      <point x="176" y="300"/>
      <point x="176" y="276"/>
      <point x="176" y="227" type="curve" smooth="yes"/>
      <point x="176" y="221"/>
      <point x="181" y="216"/>
      <point x="187" y="216" type="curve" smooth="yes"/>
      <point x="331" y="216" type="line" smooth="yes"/>
      <point x="463" y="216"/>
      <point x="543" y="293"/>
    </contour>
  </outline>
</glyph>
<glyph name="Q" format="1">
  <advance width="650"/>
  <unicode hex="0051"/>
  <outline>
    <contour>
      <point x="325" y="720" type="curve" smooth="yes"/>
      <point x="170" y="720"/>
      <point x="58" y="596"/>
      <point x="58" y="438" type="curve" smooth="yes"/>
      <point x="58" y="256" type="line" smooth="yes"/>
      <point x="58" y="86"/>
      <point x="168" y="-20"/>
      <point x="325" y="-20" type="curve" smooth="yes"/>
      <point x="332" y="-20"/>
      <point x="342" y="-3"/>
      <point x="325" y="106" type="curve"/>
      <point x="238" y="106"/>
      <point x="191" y="165"/>
      <point x="191" y="256" type="curve" smooth="yes"/>
      <point x="191" y="438" type="line" smooth="yes"/>
      <point x="191" y="532"/>
      <point x="241" y="594"/>
      <point x="325" y="594" type="curve" smooth="yes"/>
      <point x="386" y="594"/>
      <point x="419" y="594"/>
      <point x="448" y="594" type="curve"/>
      <point x="448" y="650"/>
      <point x="428" y="720"/>
    </contour>
    <contour>
      <point x="325" y="-20" type="curve" smooth="yes"/>
      <point x="480" y="-20"/>
      <point x="592" y="104"/>
      <point x="592" y="262" type="curve" smooth="yes"/>
      <point x="592" y="444" type="line" smooth="yes"/>
      <point x="592" y="614"/>
      <point x="482" y="720"/>
      <point x="325" y="720" type="curve" smooth="yes"/>
      <point x="318" y="720"/>
      <point x="308" y="703"/>
      <point x="325" y="594" type="curve"/>
      <point x="412" y="594"/>
      <point x="459" y="535"/>
      <point x="459" y="444" type="curve" smooth="yes"/>
      <point x="459" y="262" type="line" smooth="yes"/>
      <point x="459" y="168"/>
      <point x="409" y="106"/>
      <point x="325" y="106" type="curve" smooth="yes"/>
      <point x="264" y="106"/>
      <point x="231" y="106"/>
      <point x="202" y="106" type="curve"/>
      <point x="202" y="50"/>
      <point x="222" y="-20"/>
    </contour>
    <contour>
      <point x="483" y="112" type="line"/>
      <point x="371" y="68"/>
      <point x="358" y="59"/>
      <point x="371" y="39" type="curve" smooth="yes"/>
      <point x="446" y="-81" type="line" smooth="yes"/>
      <point x="481" y="-137"/>
      <point x="508" y="-158"/>
      <point x="577" y="-158" type="curve" smooth="yes"/>
      <point x="607" y="-158" type="line" smooth="yes"/>
      <point x="614" y="-158"/>
      <point x="618" y="-154"/>
      <point x="618" y="-147" type="curve" smooth="yes"/>
      <point x="618" y="-104"/>
      <point x="618" y="-61"/>
      <point x="618" y="-17" type="curve"/>
      <point x="612" y="-17" type="line"/>
      <point x="607" y="-17"/>
      <point x="603" y="-17"/>
      <point x="597" y="-17" type="curve" smooth="yes"/>
      <point x="568" y="-17"/>
      <point x="557" y="-14"/>
      <point x="543" y="10" type="curve" smooth="yes"/>
    </contour>
  </outline>
</glyph>
<glyph name="T" format="1">
  <advance width="600"/>
  <unicode hex="0054"/>
  <outline>
    <contour>
      <point x="52" y="700" type="line"/>
      <point x="52" y="662"/>
      <point x="52" y="623"/>
      <point x="52" y="585" type="curve" smooth="yes"/>
      <point x="52" y="582"/>
      <point x="53" y="579"/>
      <point x="55" y="577" type="curve" smooth="yes"/>
      <point x="57" y="575"/>
      <point x="60" y="574"/>
      <point x="63" y="574" type="curve" smooth="yes"/>
      <point x="548" y="574" type="line"/>
      <point x="548" y="612"/>
      <point x="548" y="651"/>
      <point x="548" y="689" type="curve" smooth="yes"/>
      <point x="548" y="695"/>
      <point x="543" y="700"/>
      <point x="537" y="700" type="curve" smooth="yes"/>
    </contour>
    <contour>
      <point x="371" y="0" type="curve"/>
      <point x="371" y="33"/>
      <point x="371" y="67"/>
      <point x="371" y="100" type="curve" smooth="yes"/>
      <point x="371" y="644" type="line" smooth="yes"/>
      <point x="371" y="650"/>
      <point x="366" y="655"/>
      <point x="229" y="655" type="curve"/>
      <point x="229" y="11" type="line" smooth="yes"/>
      <point x="229" y="8"/>
      <point x="230" y="5"/>
      <point x="232" y="3" type="curve" smooth="yes"/>
      <point x="234" y="1"/>
      <point x="237" y="0"/>
      <point x="240" y="0" type="curve" smooth="yes"/>
      <point x="284" y="0"/>
      <point x="327" y="0"/>
    </contour>
    <contour>
      <point x="300" y="711" type="move" name="top"/>
    </contour>
    <contour>
      <point x="300" y="-1" type="move" name="bottom"/>
    </contour>
  </outline>
</glyph>
<glyph name="V" format="1">
  <advance width="650"/>
  <unicode hex="0056"/>
  <outline>
    <contour>
      <point x="160" y="700" type="curve"/>
      <point x="35" y="700" type="line"/>
      <point x="93" y="471"/>
      <point x="151" y="241"/>
      <point x="209" y="13" type="curve"/>
      <point x="211" y="3"/>
      <point x="220" y="-2"/>
      <point x="229" y="-2" type="curve"/>
      <point x="286" y="-2"/>
      <point x="376" y="22"/>
      <point x="379" y="119" type="curve"/>
      <point x="355" y="119"/>
      <point x="341" y="119"/>
      <point x="321" y="119" type="curve" smooth="yes"/>
      <point x="315" y="119"/>
      <point x="313" y="120"/>
      <point x="311" y="129" type="curve"/>
      <point x="266" y="314"/>
      <point x="221" y="500"/>
      <point x="175" y="685" type="curve"/>
      <point x="173" y="695"/>
      <point x="168" y="700"/>
    </contour>
    <contour>
      <point x="600" y="700" type="curve"/>
      <point x="478" y="700" type="line"/>
      <point x="429" y="496"/>
      <point x="378" y="290"/>
      <point x="329" y="86" type="curve"/>
      <point x="317" y="27"/>
      <point x="274" y="8"/>
      <point x="229" y="-2" type="curve"/>
      <point x="437" y="-2" type="line"/>
      <point x="495" y="226"/>
      <point x="553" y="454"/>
      <point x="611" y="682" type="curve"/>
      <point x="613" y="692"/>
      <point x="610" y="700"/>
    </contour>
  </outline>
</glyph>
<glyph name="W" format="1">
  <advance width="900"/>
  <unicode hex="0057"/>
  <outline>
    <contour>
      <point x="29" y="700" type="curve"/>
      <point x="73" y="472"/>
      <point x="117" y="242"/>
      <point x="161" y="14" type="curve"/>
      <point x="162" y="5"/>
      <point x="171" y="0"/>
      <point x="180" y="0" type="curve"/>
      <point x="202" y="0" type="line" smooth="yes"/>
      <point x="230" y="0"/>
      <point x="278" y="18"/>
      <point x="288" y="33" type="curve"/>
      <point x="249" y="249"/>
      <point x="211" y="467"/>
      <point x="172" y="683" type="curve"/>
      <point x="171" y="693"/>
      <point x="170" y="695"/>
      <point x="169" y="697" type="curve" smooth="yes"/>
      <point x="167" y="699"/>
      <point x="164" y="700"/>
      <point x="160" y="700" type="curve"/>
      <point x="116" y="700"/>
      <point x="73" y="700"/>
    </contour>
    <contour>
      <point x="730" y="700" type="curve"/>
      <point x="693" y="497"/>
      <point x="657" y="291"/>
      <point x="621" y="88" type="curve"/>
      <point x="615" y="34"/>
      <point x="609" y="11"/>
      <point x="590" y="0" type="curve"/>
      <point x="737" y="0" type="line"/>
      <point x="781" y="229"/>
      <point x="825" y="458"/>
      <point x="869" y="687" type="curve" smooth="yes"/>
      <point x="870" y="693"/>
      <point x="869" y="695"/>
      <point x="867" y="697" type="curve" smooth="yes"/>
      <point x="865" y="699"/>
      <point x="864" y="700"/>
      <point x="860" y="700" type="curve"/>
      <point x="816" y="700"/>
      <point x="774" y="700"/>
    </contour>
    <contour>
      <point x="481" y="620" type="curve"/>
      <point x="383" y="620" type="line"/>
      <point x="338" y="443"/>
      <point x="294" y="265"/>
      <point x="250" y="88" type="curve"/>
      <point x="236" y="29"/>
      <point x="209" y="13"/>
      <point x="180" y="0" type="curve"/>
      <point x="345" y="0" type="line"/>
      <point x="394" y="200"/>
      <point x="444" y="401"/>
      <point x="494" y="601" type="curve" smooth="yes"/>
      <point x="497" y="612"/>
      <point x="492" y="620"/>
    </contour>
    <contour>
      <point x="506" y="620" type="curve"/>
      <point x="400" y="620" type="line"/>
      <point x="451" y="418"/>
      <point x="502" y="216"/>
      <point x="552" y="14" type="curve" smooth="yes"/>
      <point x="554" y="5"/>
      <point x="563" y="0"/>
      <point x="572" y="0" type="curve"/>
      <point x="632" y="0" type="line"/>
      <point x="644" y="0"/>
      <point x="669" y="10"/>
      <point x="665" y="24" type="curve"/>
      <point x="616" y="219"/>
      <point x="568" y="414"/>
      <point x="519" y="609" type="curve" smooth="yes"/>
      <point x="517" y="616"/>
      <point x="511" y="620"/>
    </contour>
    <contour>
      <point x="449" y="711" type="move" name="top"/>
    </contour>
  </outline>
</glyph>
<glyph name="X" format="1">
  <advance width="650"/>
  <unicode hex="0058"/>
  <outline>
    <contour>
      <point x="489" y="0" type="curve" smooth="yes"/>
      <point x="534" y="0"/>
      <point x="590" y="0"/>
      <point x="635" y="0" type="curve"/>
      <point x="553" y="127"/>
      <point x="471" y="255"/>
      <point x="389" y="381" type="curve" smooth="yes"/>
      <point x="375" y="403"/>
      <point x="359" y="411"/>
      <point x="347" y="431" type="curve" smooth="yes"/>
      <point x="294" y="518"/>
      <point x="240" y="604"/>
      <point x="186" y="690" type="curve" smooth="yes"/>
      <point x="182" y="697"/>
      <point x="177" y="700"/>
      <point x="168" y="700" type="curve" smooth="yes"/>
      <point x="25" y="700" type="line"/>
      <point x="102" y="575"/>
      <point x="179" y="450"/>
      <point x="256" y="325" type="curve" smooth="yes"/>
      <point x="268" y="304"/>
      <point x="288" y="293"/>
      <point x="301" y="272" type="curve" smooth="yes"/>
      <point x="356" y="185"/>
      <point x="415" y="96"/>
      <point x="471" y="10" type="curve" smooth="yes"/>
      <point x="476" y="2"/>
      <point x="481" y="0"/>
    </contour>
    <contour>
      <point x="608" y="700" type="curve" smooth="yes"/>
      <point x="478" y="700" type="line"/>
      <point x="415" y="594"/>
      <point x="352" y="487"/>
      <point x="288" y="381" type="curve"/>
      <point x="278" y="364"/>
      <point x="290" y="351"/>
      <point x="384" y="309" type="curve"/>
      <point x="462" y="433"/>
      <point x="539" y="557"/>
      <point x="617" y="682" type="curve"/>
      <point x="621" y="689"/>
      <point x="621" y="693"/>
      <point x="617" y="697" type="curve" smooth="yes"/>
      <point x="615" y="699"/>
      <point x="612" y="700"/>
    </contour>
    <contour>
      <point x="36" y="0" type="curve"/>
      <point x="169" y="0" type="line"/>
      <point x="234" y="107"/>
      <point x="300" y="213"/>
      <point x="363" y="320" type="curve"/>
      <point x="372" y="335"/>
      <point x="359" y="350"/>
      <point x="267" y="391" type="curve"/>
      <point x="187" y="267"/>
      <point x="107" y="142"/>
      <point x="28" y="18" type="curve" smooth="yes"/>
      <point x="24" y="12"/>
      <point x="24" y="7"/>
      <point x="27" y="3" type="curve" smooth="yes"/>
      <point x="29" y="1"/>
      <point x="32" y="0"/>
    </contour>
  </outline>
</glyph>
<glyph name="bracketleft" format="1">
  <advance width="400"/>
  <unicode hex="005B"/>
  <outline>
    <contour>
      <point x="46" y="645" type="curve" smooth="yes"/>
      <point x="46" y="-10" type="line" smooth="yes"/>
      <point x="46" y="-20"/>
      <point x="77" y="-21"/>
      <point x="187" y="-21" type="curve"/>
      <point x="187" y="741" type="line" smooth="yes"/>
      <point x="187" y="747"/>
      <point x="179" y="752"/>
      <point x="152" y="752" type="curve" smooth="yes"/>
      <point x="110" y="752"/>
      <point x="89" y="752"/>
      <point x="46" y="752" type="curve"/>
      <point x="46" y="716"/>
      <point x="46" y="681"/>
    </contour>
    <contour>
      <point x="361" y="626" type="line"/>
      <point x="361" y="666"/>
      <point x="361" y="700"/>
      <point x="361" y="741" type="curve" smooth="yes"/>
      <point x="361" y="744"/>
      <point x="360" y="747"/>
      <point x="358" y="749" type="curve" smooth="yes"/>
      <point x="356" y="751"/>
      <point x="353" y="752"/>
      <point x="350" y="752" type="curve" smooth="yes"/>
      <point x="152" y="752" type="line"/>
      <point x="152" y="630"/>
      <point x="158" y="626"/>
      <point x="163" y="626" type="curve"/>
    </contour>
    <contour>
      <point x="361" y="-135" type="line"/>
      <point x="361" y="-95"/>
      <point x="361" y="-61"/>
      <point x="361" y="-20" type="curve" smooth="yes"/>
      <point x="361" y="-14"/>
      <point x="356" y="-9"/>
      <point x="350" y="-9" type="curve" smooth="yes"/>
      <point x="46" y="-9" type="line"/>
      <point x="46" y="-124" type="line" smooth="yes"/>
      <point x="46" y="-130"/>
      <point x="51" y="-135"/>
      <point x="57" y="-135" type="curve" smooth="yes"/>
    </contour>
  </outline>
</glyph>
<glyph name="bracketright" format="1">
  <advance width="400"/>
  <unicode hex="005D"/>
  <outline>
    <contour>
      <point x="354" y="-28" type="curve" smooth="yes"/>
      <point x="354" y="627" type="line" smooth="yes"/>
      <point x="354" y="637"/>
      <point x="323" y="638"/>
      <point x="213" y="638" type="curve"/>
      <point x="213" y="-124" type="line" smooth="yes"/>
      <point x="213" y="-130"/>
      <point x="221" y="-135"/>
      <point x="248" y="-135" type="curve" smooth="yes"/>
      <point x="290" y="-135"/>
      <point x="311" y="-135"/>
      <point x="354" y="-135" type="curve"/>
      <point x="354" y="-99"/>
      <point x="354" y="-64"/>
    </contour>
    <contour>
      <point x="39" y="-9" type="line"/>
      <point x="39" y="-49"/>
      <point x="39" y="-84"/>
      <point x="39" y="-124" type="curve" smooth="yes"/>
      <point x="39" y="-127"/>
      <point x="40" y="-130"/>
      <point x="42" y="-132" type="curve" smooth="yes"/>
      <point x="44" y="-134"/>
      <point x="47" y="-135"/>
      <point x="50" y="-135" type="curve" smooth="yes"/>
      <point x="248" y="-135" type="line"/>
      <point x="248" y="-13"/>
      <point x="242" y="-9"/>
      <point x="237" y="-9" type="curve"/>
    </contour>
    <contour>
      <point x="39" y="752" type="line"/>
      <point x="39" y="711"/>
      <point x="39" y="677"/>
      <point x="39" y="637" type="curve" smooth="yes"/>
      <point x="39" y="631"/>
      <point x="44" y="626"/>
      <point x="50" y="626" type="curve" smooth="yes"/>
      <point x="354" y="626" type="line"/>
      <point x="354" y="741" type="line" smooth="yes"/>
      <point x="354" y="747"/>
      <point x="349" y="752"/>
      <point x="343" y="752" type="curve" smooth="yes"/>
    </contour>
  </outline>
</glyph>
<glyph name="grave" format="1">
  <advance width="557"/>
  <unicode hex="0060"/>
  <outline>
    <contour>
      <point x="396" y="377" type="curve"/>
      <point x="372" y="489"/>
      <point x="348" y="601"/>
      <point x="324" y="713" type="curve"/>
      <point x="248" y="713"/>
      <point x="210" y="713"/>
      <point x="145" y="713" type="curve" smooth="yes"/>
      <point x="137" y="713"/>
      <point x="134" y="708"/>
      <point x="137" y="700" type="curve" smooth="yes"/>
      <point x="171" y="612"/>
      <point x="218" y="490"/>
      <point x="259" y="384" type="curve" smooth="yes"/>
      <point x="261" y="378"/>
      <point x="264" y="377"/>
      <point x="269" y="377" type="curve" smooth="yes"/>
      <point x="324" y="377"/>
      <point x="362" y="377"/>
    </contour>
  </outline>
</glyph>
<glyph name="b" format="1">
  <advance width="600"/>
  <unicode hex="0062"/>
  <outline>
    <contour>
      <point x="77" y="0" type="line"/>
      <point x="99" y="0"/>
      <point x="122" y="0"/>
      <point x="144" y="0" type="curve" smooth="yes"/>
      <point x="159" y="0"/>
      <point x="214" y="84"/>
      <point x="214" y="107" type="curve" smooth="yes"/>
      <point x="214" y="739" type="line"/>
      <point x="214" y="745"/>
      <point x="209" y="750"/>
      <point x="203" y="750" type="curve" smooth="yes"/>
      <point x="161" y="750"/>
      <point x="119" y="750"/>
      <point x="77" y="750" type="curve"/>
      <point x="77" y="704"/>
      <point x="77" y="657"/>
      <point x="77" y="611" type="curve" smooth="yes"/>
    </contour>
    <contour>
      <point x="382" y="549" type="curve" smooth="yes"/>
      <point x="323" y="549"/>
      <point x="264" y="526"/>
      <point x="212" y="474" type="curve" smooth="yes"/>
      <point x="163" y="425"/>
      <point x="153" y="380"/>
      <point x="170" y="347" type="curve"/>
      <point x="237" y="399"/>
      <point x="283" y="417"/>
      <point x="338" y="417" type="curve" smooth="yes"/>
      <point x="380" y="417"/>
      <point x="405" y="393"/>
      <point x="405" y="339" type="curve"/>
      <point x="471" y="339"/>
      <point x="542" y="350"/>
      <point x="542" y="360" type="curve" smooth="yes"/>
      <point x="542" y="474"/>
      <point x="478" y="549"/>
    </contour>
    <contour>
      <point x="350" y="-10" type="curve" smooth="yes"/>
      <point x="472" y="-10"/>
      <point x="542" y="75"/>
      <point x="542" y="223" type="curve" smooth="yes"/>
      <point x="542" y="360" type="line" smooth="yes"/>
      <point x="542" y="424"/>
      <point x="486" y="477"/>
      <point x="417" y="477" type="curve"/>
      <point x="388" y="477"/>
      <point x="371" y="465"/>
      <point x="371" y="444" type="curve"/>
      <point x="394" y="413"/>
      <point x="405" y="394"/>
      <point x="405" y="339" type="curve" smooth="yes"/>
      <point x="405" y="210" type="line" smooth="yes"/>
      <point x="405" y="149"/>
      <point x="377" y="118"/>
      <point x="328" y="118" type="curve" smooth="yes"/>
      <point x="281" y="118"/>
      <point x="229" y="138"/>
      <point x="182" y="187" type="curve"/>
      <point x="178" y="179"/>
      <point x="166" y="143"/>
      <point x="168" y="128" type="curve" smooth="yes"/>
      <point x="175" y="53"/>
      <point x="258" y="-10"/>
    </contour>
  </outline>
</glyph>
<glyph name="c" format="1">
  <advance width="500"/>
  <unicode hex="0063"/>
  <outline>
    <contour>
      <point x="311" y="549" type="curve" smooth="yes"/>
      <point x="162" y="549"/>
      <point x="58" y="450"/>
      <point x="58" y="303" type="curve" smooth="yes"/>
      <point x="58" y="230" type="line" smooth="yes"/>
      <point x="58" y="76"/>
      <point x="152" y="-12"/>
      <point x="311" y="-12" type="curve" smooth="yes"/>
      <point x="341" y="-12"/>
      <point x="343" y="6"/>
      <point x="310" y="114" type="curve"/>
      <point x="235" y="114"/>
      <point x="195" y="155"/>
      <point x="195" y="236" type="curve" smooth="yes"/>
      <point x="195" y="300" type="line" smooth="yes"/>
      <point x="195" y="387"/>
      <point x="242" y="424"/>
      <point x="310" y="424" type="curve" smooth="yes"/>
      <point x="356" y="424"/>
      <point x="394" y="415"/>
      <point x="430" y="400" type="curve"/>
      <point x="449" y="400" type="line"/>
      <point x="449" y="439"/>
      <point x="449" y="473"/>
      <point x="449" y="512" type="curve"/>
      <point x="449" y="516"/>
      <point x="448" y="519"/>
      <point x="445" y="521" type="curve" smooth="yes"/>
      <point x="434" y="533"/>
      <point x="386" y="549"/>
    </contour>
    <contour>
      <point x="311" y="-12" type="curve" smooth="yes"/>
      <point x="387" y="-12"/>
      <point x="434" y="4"/>
      <point x="446" y="16" type="curve" smooth="yes"/>
      <point x="448" y="18"/>
      <point x="449" y="21"/>
      <point x="449" y="24" type="curve"/>
      <point x="449" y="61"/>
      <point x="449" y="99"/>
      <point x="449" y="137" type="curve"/>
      <point x="430" y="137" type="line"/>
      <point x="394" y="122"/>
      <point x="356" y="114"/>
      <point x="310" y="114" type="curve" smooth="yes"/>
      <point x="237" y="114"/>
      <point x="190" y="138"/>
      <point x="137" y="180" type="curve"/>
      <point x="107" y="90"/>
      <point x="159" y="-12"/>
    </contour>
    <contour>
      <point x="286" y="549" type="move" name="top"/>
    </contour>
    <contour>
      <point x="286" y="-1" type="move" name="bottom"/>
    </contour>
  </outline>
</glyph>
<glyph name="d" format="1">
  <advance width="600"/>
  <unicode hex="0064"/>
  <outline>
    <contour>
      <point x="242" y="549" type="curve" smooth="yes"/>
      <point x="128" y="549"/>
      <point x="58" y="469"/>
      <point x="58" y="332" type="curve" smooth="yes"/>
      <point x="58" y="179" type="line" smooth="yes"/>
      <point x="58" y="118"/>
      <point x="114" y="65"/>
      <point x="184" y="65" type="curve" smooth="yes"/>
      <point x="213" y="65"/>
      <point x="229" y="76"/>
      <point x="229" y="98" type="curve"/>
      <point x="209" y="125"/>
      <point x="195" y="140"/>
      <point x="195" y="184" type="curve" smooth="yes"/>
      <point x="195" y="330" type="line" smooth="yes"/>
      <point x="195" y="389"/>
      <point x="222" y="421"/>
      <point x="275" y="421" type="curve" smooth="yes"/>
      <point x="319" y="421"/>
      <point x="363" y="401"/>
      <point x="406" y="359" type="curve"/>
      <point x="419" y="369"/>
      <point x="421" y="403"/>
      <point x="419" y="419" type="curve" smooth="yes"/>
      <point x="415" y="478"/>
      <point x="335" y="549"/>
    </contour>
    <contour>
      <point x="214" y="-10" type="curve" smooth="yes"/>
      <point x="279" y="-10"/>
      <point x="337" y="19"/>
      <point x="387" y="81" type="curve" smooth="yes"/>
      <point x="430" y="133"/>
      <point x="434" y="179"/>
      <point x="417" y="208" type="curve"/>
      <point x="347" y="142"/>
      <point x="305" y="117"/>
      <point x="256" y="117" type="curve" smooth="yes"/>
      <point x="216" y="117"/>
      <point x="195" y="137"/>
      <point x="195" y="184" type="curve"/>
      <point x="125" y="209"/>
      <point x="58" y="182"/>
      <point x="58" y="179" type="curve" smooth="yes"/>
      <point x="58" y="65"/>
      <point x="123" y="-10"/>
    </contour>
    <contour>
      <point x="386" y="750" type="curve"/>
      <point x="386" y="717"/>
      <point x="386" y="683"/>
      <point x="386" y="650" type="curve" smooth="yes"/>
      <point x="386" y="11" type="line"/>
      <point x="386" y="8"/>
      <point x="387" y="5"/>
      <point x="389" y="3" type="curve" smooth="yes"/>
      <point x="391" y="1"/>
      <point x="394" y="0"/>
      <point x="397" y="0" type="curve" smooth="yes"/>
      <point x="439" y="0"/>
      <point x="481" y="0"/>
      <point x="523" y="0" type="curve"/>
      <point x="523" y="45"/>
      <point x="523" y="92"/>
      <point x="523" y="141" type="curve" smooth="yes"/>
      <point x="523" y="739" type="line"/>
      <point x="523" y="742"/>
      <point x="522" y="745"/>
      <point x="520" y="747" type="curve" smooth="yes"/>
      <point x="518" y="749"/>
      <point x="515" y="750"/>
      <point x="512" y="750" type="curve" smooth="yes"/>
      <point x="470" y="750"/>
      <point x="428" y="750"/>
    </contour>
    <contour>
      <point x="466" y="711" type="move" name="caronslovak"/>
    </contour>
  </outline>
</glyph>
<glyph name="f" format="1">
  <advance width="400"/>
  <unicode hex="0066"/>
  <outline>
    <contour>
      <point x="225" y="0" type="curve"/>
      <point x="225" y="33"/>
      <point x="225" y="67"/>
      <point x="225" y="100" type="curve" smooth="yes"/>
      <point x="225" y="538" type="line" smooth="yes"/>
      <point x="225" y="550"/>
      <point x="225" y="562"/>
      <point x="225" y="579" type="curve" smooth="yes"/>
      <point x="225" y="629"/>
      <point x="249" y="652"/>
      <point x="293" y="652" type="curve"/>
      <point x="305" y="760"/>
      <point x="303" y="768"/>
      <point x="283" y="768" type="curve" smooth="yes"/>
      <point x="164" y="768"/>
      <point x="92" y="697"/>
      <point x="92" y="574" type="curve" smooth="yes"/>
      <point x="92" y="11" type="line" smooth="yes"/>
      <point x="92" y="5"/>
      <point x="97" y="0"/>
      <point x="103" y="0" type="curve" smooth="yes"/>
      <point x="145" y="0"/>
      <point x="186" y="0"/>
    </contour>
    <contour>
      <point x="194" y="645" type="curve"/>
      <point x="230" y="650"/>
      <point x="247" y="652"/>
      <point x="293" y="652" type="curve" smooth="yes"/>
      <point x="323" y="652"/>
      <point x="346" y="645"/>
      <point x="371" y="636" type="curve"/>
      <point x="390" y="636" type="line"/>
      <point x="390" y="672"/>
      <point x="390" y="702"/>
      <point x="390" y="738" type="curve"/>
      <point x="390" y="741"/>
      <point x="389" y="744"/>
      <point x="387" y="746" type="curve" smooth="yes"/>
      <point x="376" y="757"/>
      <point x="333" y="768"/>
      <point x="283" y="768" type="curve" smooth="yes"/>
      <point x="219" y="768"/>
      <point x="190" y="706"/>
    </contour>
    <contour>
      <point x="32" y="538" type="curve"/>
      <point x="32" y="498"/>
      <point x="32" y="464"/>
      <point x="32" y="425" type="curve" smooth="yes"/>
      <point x="32" y="422"/>
      <point x="33" y="419"/>
      <point x="35" y="417" type="curve" smooth="yes"/>
      <point x="37" y="415"/>
      <point x="40" y="414"/>
      <point x="43" y="414" type="curve" smooth="yes"/>
      <point x="145" y="414"/>
      <point x="253" y="414"/>
      <point x="357" y="414" type="curve"/>
      <point x="357" y="453"/>
      <point x="357" y="487"/>
      <point x="357" y="527" type="curve" smooth="yes"/>
      <point x="357" y="533"/>
      <point x="352" y="538"/>
      <point x="346" y="538" type="curve" smooth="yes"/>
      <point x="250" y="538"/>
      <point x="128" y="538"/>
    </contour>
  </outline>
</glyph>
<glyph name="g" format="1">
  <advance width="600"/>
  <unicode hex="0067"/>
  <outline>
    <contour>
      <point x="299" y="436" type="curve" smooth="yes"/>
      <point x="387" y="436"/>
      <point x="480" y="436"/>
      <point x="562" y="436" type="curve" smooth="yes"/>
      <point x="568" y="436"/>
      <point x="573" y="441"/>
      <point x="573" y="447" type="curve" smooth="yes"/>
      <point x="573" y="480"/>
      <point x="573" y="513"/>
      <point x="573" y="547" type="curve"/>
      <point x="479" y="547"/>
      <point x="384" y="547"/>
      <point x="290" y="547" type="curve" smooth="yes"/>
      <point x="160" y="547"/>
      <point x="64" y="481"/>
      <point x="64" y="369" type="curve" smooth="yes"/>
      <point x="64" y="345" type="line" smooth="yes"/>
      <point x="64" y="241"/>
      <point x="146" y="176"/>
      <point x="295" y="174" type="curve"/>
      <point x="306" y="174"/>
      <point x="323" y="204"/>
      <point x="286" y="277" type="curve"/>
      <point x="235" y="277"/>
      <point x="197" y="299"/>
      <point x="197" y="340" type="curve" smooth="yes"/>
      <point x="197" y="368" type="line" smooth="yes"/>
      <point x="197" y="413"/>
      <point x="238" y="436"/>
    </contour>
    <contour>
      <point x="286" y="277" type="curve" smooth="yes"/>
      <point x="230" y="277"/>
      <point x="191" y="290"/>
      <point x="153" y="310" type="curve"/>
      <point x="128" y="268"/>
      <point x="180" y="174"/>
      <point x="295" y="174" type="curve" smooth="yes"/>
      <point x="419" y="174"/>
      <point x="512" y="229"/>
      <point x="512" y="323" type="curve" smooth="yes"/>
      <point x="512" y="341" type="line" smooth="yes"/>
      <point x="512" y="400"/>
      <point x="460" y="454"/>
      <point x="378" y="454" type="curve" smooth="yes"/>
      <point x="364" y="454"/>
      <point x="352" y="451"/>
      <point x="340" y="444" type="curve"/>
      <point x="372" y="419"/>
      <point x="379" y="401"/>
      <point x="379" y="367" type="curve" smooth="yes"/>
      <point x="379" y="342" type="line" smooth="yes"/>
      <point x="379" y="300"/>
      <point x="342" y="277"/>
    </contour>
    <contour>
      <point x="120" y="91" type="curve" smooth="yes"/>
      <point x="120" y="85" type="line" smooth="yes"/>
      <point x="120" y="23"/>
      <point x="172" y="-17"/>
      <point x="251" y="-17" type="curve" smooth="yes"/>
      <point x="369" y="-17" type="line" smooth="yes"/>
      <point x="418" y="-17"/>
      <point x="437" y="-34"/>
      <point x="437" y="-74" type="curve" smooth="yes"/>
      <point x="437" y="-96" type="line" smooth="yes"/>
      <point x="437" y="-131"/>
      <point x="410" y="-151"/>
      <point x="363" y="-151" type="curve"/>
      <point x="351" y="-238"/>
      <point x="351" y="-250"/>
      <point x="361" y="-250" type="curve" smooth="yes"/>
      <point x="486" y="-250"/>
      <point x="572" y="-205"/>
      <point x="572" y="-73" type="curve" smooth="yes"/>
      <point x="572" y="-57" type="line" smooth="yes"/>
      <point x="572" y="36"/>
      <point x="509" y="96"/>
      <point x="377" y="96" type="curve" smooth="yes"/>
      <point x="270" y="96" type="line" smooth="yes"/>
      <point x="254" y="96"/>
      <point x="248" y="101"/>
      <point x="248" y="117" type="curve" smooth="yes"/>
      <point x="248" y="129" type="line" smooth="yes"/>
      <point x="248" y="146"/>
      <point x="251" y="173"/>
      <point x="254" y="189" type="curve"/>
      <point x="254" y="192"/>
      <point x="253" y="202"/>
      <point x="250" y="204" type="curve" smooth="yes"/>
      <point x="167" y="204"/>
      <point x="120" y="142"/>
    </contour>
    <contour>
      <point x="459" y="-144" type="curve"/>
      <point x="429" y="-150"/>
      <point x="396" y="-151"/>
      <point x="363" y="-151" type="curve" smooth="yes"/>
      <point x="256" y="-151" type="line" smooth="yes"/>
      <point x="195" y="-151"/>
      <point x="175" y="-133"/>
      <point x="175" y="-89" type="curve" smooth="yes"/>
      <point x="175" y="-63" type="line" smooth="yes"/>
      <point x="175" y="-35"/>
      <point x="185" y="-14"/>
      <point x="219" y="4" type="curve"/>
      <point x="219" y="22"/>
      <point x="206" y="37"/>
      <point x="169" y="37" type="curve" smooth="yes"/>
      <point x="91" y="34"/>
      <point x="39" y="-29"/>
      <point x="39" y="-98" type="curve" smooth="yes"/>
      <point x="39" y="-112" type="line" smooth="yes"/>
      <point x="39" y="-200"/>
      <point x="113" y="-250"/>
      <point x="219" y="-250" type="curve" smooth="yes"/>
      <point x="361" y="-250" type="line" smooth="yes"/>
      <point x="416" y="-250"/>
      <point x="462" y="-218"/>
    </contour>
  </outline>
</glyph>
<glyph name="i" format="1">
  <advance width="350"/>
  <unicode hex="0069"/>
  <outline>
    <contour>
      <point x="33" y="538" type="curve"/>
      <point x="33" y="502"/>
      <point x="33" y="465"/>
      <point x="33" y="430" type="curve" smooth="yes"/>
      <point x="33" y="424"/>
      <point x="38" y="419"/>
      <point x="44" y="419" type="curve" smooth="yes"/>
      <point x="83" y="419"/>
      <point x="124" y="419"/>
      <point x="159" y="419" type="curve"/>
      <point x="159" y="526"/>
      <point x="156" y="538"/>
      <point x="145" y="538" type="curve" smooth="yes"/>
      <point x="105" y="538"/>
      <point x="74" y="538"/>
    </contour>
    <contour>
      <point x="253" y="0" type="curve"/>
      <point x="253" y="36"/>
      <point x="253" y="72"/>
      <point x="253" y="108" type="curve" smooth="yes"/>
      <point x="253" y="527" type="line" smooth="yes"/>
      <point x="253" y="533"/>
      <point x="248" y="538"/>
      <point x="242" y="538" type="curve" smooth="yes"/>
      <point x="120" y="538" type="line"/>
      <point x="120" y="11" type="line" smooth="yes"/>
      <point x="120" y="5"/>
      <point x="125" y="0"/>
      <point x="131" y="0" type="curve" smooth="yes"/>
      <point x="175" y="0"/>
      <point x="209" y="0"/>
    </contour>
    <contour>
      <point x="263" y="654" type="curve"/>
      <point x="263" y="781" type="line" smooth="yes"/>
      <point x="263" y="787"/>
      <point x="258" y="792"/>
      <point x="252" y="792" type="curve" smooth="yes"/>
      <point x="202" y="792"/>
      <point x="151" y="792"/>
      <point x="100" y="792" type="curve"/>
      <point x="100" y="665" type="line" smooth="yes"/>
      <point x="100" y="659"/>
      <point x="105" y="654"/>
      <point x="111" y="654" type="curve" smooth="yes"/>
      <point x="162" y="654"/>
      <point x="213" y="654"/>
    </contour>
    <contour>
      <point x="254" y="0" type="move" name="ogonek"/>
    </contour>
    <contour>
      <point x="190" y="-1" type="move" name="bottom"/>
    </contour>
  </outline>
</glyph>
<glyph name="j" format="1">
  <advance width="350"/>
  <unicode hex="006A"/>
  <outline>
    <contour>
      <point x="47" y="538" type="curve"/>
      <point x="47" y="497"/>
      <point x="47" y="463"/>
      <point x="47" y="423" type="curve" smooth="yes"/>
      <point x="47" y="417"/>
      <point x="52" y="412"/>
      <point x="58" y="412" type="curve" smooth="yes"/>
      <point x="114" y="412"/>
      <point x="173" y="412"/>
      <point x="230" y="412" type="curve"/>
      <point x="230" y="466"/>
      <point x="211" y="538"/>
      <point x="166" y="538" type="curve" smooth="yes"/>
      <point x="127" y="538"/>
      <point x="86" y="538"/>
    </contour>
    <contour>
      <point x="270" y="-49" type="curve" smooth="yes"/>
      <point x="270" y="527" type="line" smooth="yes"/>
      <point x="270" y="530"/>
      <point x="269" y="533"/>
      <point x="267" y="535" type="curve" smooth="yes"/>
      <point x="265" y="537"/>
      <point x="262" y="538"/>
      <point x="259" y="538" type="curve" smooth="yes"/>
      <point x="137" y="538" type="line"/>
      <point x="137" y="-51" type="line" smooth="yes"/>
      <point x="137" y="-112"/>
      <point x="131" y="-150"/>
      <point x="95" y="-189" type="curve"/>
      <point x="160" y="-217"/>
      <point x="270" y="-163"/>
    </contour>
    <contour>
      <point x="73" y="-124" type="curve" smooth="yes"/>
      <point x="52" y="-124"/>
      <point x="36" y="-121"/>
      <point x="16" y="-112" type="curve"/>
      <point x="-2" y="-112" type="line"/>
      <point x="-2" y="-148"/>
      <point x="-2" y="-188"/>
      <point x="-2" y="-225" type="curve" smooth="yes"/>
      <point x="-2" y="-228"/>
      <point x="-1" y="-231"/>
      <point x="1" y="-233" type="curve" smooth="yes"/>
      <point x="8" y="-240"/>
      <point x="37" y="-250"/>
      <point x="86" y="-250" type="curve" smooth="yes"/>
      <point x="194" y="-250"/>
      <point x="270" y="-188"/>
      <point x="270" y="-49" type="curve" smooth="yes"/>
      <point x="270" y="-37"/>
      <point x="262" y="-30"/>
      <point x="137" y="-51" type="curve"/>
      <point x="137" y="-105"/>
      <point x="115" y="-124"/>
    </contour>
    <contour>
      <point x="285" y="654" type="curve"/>
      <point x="285" y="781" type="line" smooth="yes"/>
      <point x="285" y="787"/>
      <point x="280" y="792"/>
      <point x="274" y="792" type="curve" smooth="yes"/>
      <point x="224" y="792"/>
      <point x="172" y="792"/>
      <point x="122" y="792" type="curve"/>
      <point x="122" y="665" type="line" smooth="yes"/>
      <point x="122" y="659"/>
      <point x="127" y="654"/>
      <point x="133" y="654" type="curve" smooth="yes"/>
      <point x="183" y="654"/>
      <point x="235" y="654"/>
    </contour>
  </outline>
</glyph>
<glyph name="m" format="1">
  <advance width="850"/>
  <unicode hex="006D"/>
  <outline>
    <contour>
      <point x="218" y="0" type="curve"/>
      <point x="218" y="527" type="line" smooth="yes"/>
      <point x="218" y="530"/>
      <point x="217" y="533"/>
      <point x="215" y="535" type="curve" smooth="yes"/>
      <point x="213" y="537"/>
      <point x="210" y="538"/>
      <point x="207" y="538" type="curve" smooth="yes"/>
      <point x="167" y="538"/>
      <point x="125" y="538"/>
      <point x="77" y="538" type="curve"/>
      <point x="77" y="512"/>
      <point x="77" y="477"/>
      <point x="77" y="439" type="curve" smooth="yes"/>
      <point x="77" y="11" type="line" smooth="yes"/>
      <point x="77" y="5"/>
      <point x="82" y="0"/>
      <point x="88" y="0" type="curve" smooth="yes"/>
      <point x="132" y="0"/>
      <point x="174" y="0"/>
    </contour>
    <contour>
      <point x="370" y="549" type="curve" smooth="yes"/>
      <point x="316" y="549"/>
      <point x="264" y="518"/>
      <point x="210" y="459" type="curve" smooth="yes"/>
      <point x="183" y="431"/>
      <point x="182" y="396"/>
      <point x="198" y="319" type="curve"/>
      <point x="250" y="399"/>
      <point x="286" y="419"/>
      <point x="317" y="419" type="curve" smooth="yes"/>
      <point x="340" y="419"/>
      <point x="354" y="403"/>
      <point x="354" y="376" type="curve"/>
      <point x="408" y="376"/>
      <point x="496" y="389"/>
      <point x="496" y="421" type="curve" smooth="yes"/>
      <point x="496" y="497"/>
      <point x="448" y="549"/>
    </contour>
    <contour>
      <point x="496" y="0" type="curve"/>
      <point x="496" y="421" type="line"/>
      <point x="496" y="430"/>
      <point x="477" y="444"/>
      <point x="354" y="444" type="curve"/>
      <point x="354" y="421"/>
      <point x="354" y="399"/>
      <point x="354" y="376" type="curve" smooth="yes"/>
      <point x="354" y="11" type="line" smooth="yes"/>
      <point x="354" y="5"/>
      <point x="359" y="0"/>
      <point x="365" y="0" type="curve" smooth="yes"/>
      <point x="409" y="0"/>
      <point x="452" y="0"/>
    </contour>
    <contour>
      <point x="645" y="549" type="curve" smooth="yes"/>
      <point x="590" y="549"/>
      <point x="534" y="517"/>
      <point x="480" y="459" type="curve" smooth="yes"/>
      <point x="455" y="432"/>
      <point x="449" y="400"/>
      <point x="465" y="321" type="curve"/>
      <point x="520" y="397"/>
      <point x="562" y="419"/>
      <point x="591" y="419" type="curve" smooth="yes"/>
      <point x="617" y="419"/>
      <point x="632" y="403"/>
      <point x="632" y="376" type="curve"/>
      <point x="684" y="376"/>
      <point x="773" y="394"/>
      <point x="773" y="419" type="curve" smooth="yes"/>
      <point x="773" y="497"/>
      <point x="721" y="549"/>
    </contour>
    <contour>
      <point x="773" y="0" type="curve"/>
      <point x="773" y="29"/>
      <point x="773" y="63"/>
      <point x="773" y="98" type="curve" smooth="yes"/>
      <point x="773" y="419" type="line"/>
      <point x="773" y="430"/>
      <point x="751" y="444"/>
      <point x="632" y="444" type="curve"/>
      <point x="632" y="421"/>
      <point x="632" y="398"/>
      <point x="632" y="376" type="curve" smooth="yes"/>
      <point x="632" y="11" type="line" smooth="yes"/>
      <point x="632" y="5"/>
      <point x="637" y="0"/>
      <point x="643" y="0" type="curve" smooth="yes"/>
      <point x="687" y="0"/>
      <point x="729" y="0"/>
    </contour>
  </outline>
</glyph>
<glyph name="n" format="1">
  <advance width="600"/>
  <unicode hex="006E"/>
  <outline>
    <contour>
      <point x="218" y="0" type="curve"/>
      <point x="218" y="527" type="line" smooth="yes"/>
      <point x="218" y="530"/>
      <point x="217" y="533"/>
      <point x="215" y="535" type="curve" smooth="yes"/>
      <point x="213" y="537"/>
      <point x="210" y="538"/>
      <point x="207" y="538" type="curve" smooth="yes"/>
      <point x="167" y="538"/>
      <point x="125" y="538"/>
      <point x="77" y="538" type="curve"/>
      <point x="77" y="512"/>
      <point x="77" y="477"/>
      <point x="77" y="439" type="curve" smooth="yes"/>
      <point x="77" y="11" type="line" smooth="yes"/>
      <point x="77" y="5"/>
      <point x="82" y="0"/>
      <point x="88" y="0" type="curve" smooth="yes"/>
      <point x="132" y="0"/>
      <point x="174" y="0"/>
    </contour>
    <contour>
      <point x="388" y="549" type="curve" smooth="yes"/>
      <point x="333" y="549"/>
      <point x="276" y="523"/>
      <point x="215" y="449" type="curve" smooth="yes"/>
      <point x="190" y="418"/>
      <point x="158" y="368"/>
      <point x="179" y="304" type="curve"/>
      <point x="250" y="383"/>
      <point x="293" y="409"/>
      <point x="340" y="409" type="curve" smooth="yes"/>
      <point x="368" y="409"/>
      <point x="383" y="393"/>
      <point x="383" y="361" type="curve"/>
      <point x="504" y="361"/>
      <point x="524" y="381"/>
      <point x="524" y="400" type="curve" smooth="yes"/>
      <point x="524" y="482"/>
      <point x="472" y="549"/>
    </contour>
    <contour>
      <point x="524" y="0" type="curve"/>
      <point x="524" y="29"/>
      <point x="524" y="63"/>
      <point x="524" y="98" type="curve" smooth="yes"/>
      <point x="524" y="400" type="line"/>
      <point x="524" y="445"/>
      <point x="439" y="462"/>
      <point x="381" y="424" type="curve"/>
      <point x="382" y="407"/>
      <point x="383" y="390"/>
      <point x="383" y="361" type="curve" smooth="yes"/>
      <point x="383" y="11" type="line" smooth="yes"/>
      <point x="383" y="5"/>
      <point x="388" y="0"/>
      <point x="394" y="0" type="curve" smooth="yes"/>
      <point x="438" y="0"/>
      <point x="480" y="0"/>
    </contour>
    <contour>
      <point x="90" y="678" type="move" name="caronslovak"/>
    </contour>
    <contour>
      <point x="300" y="549" type="move" name="top"/>
    </contour>
    <contour>
      <point x="300" y="-1" type="move" name="bottom"/>
    </contour>
  </outline>
</glyph>
<glyph name="t" format="1">
  <advance width="500"/>
  <unicode hex="0074"/>
  <outline>
    <contour>
      <point x="124" y="700" type="curve"/>
      <point x="124" y="215" type="line" smooth="yes"/>
      <point x="124" y="114"/>
      <point x="190" y="42"/>
      <point x="316" y="62" type="curve"/>
      <point x="272" y="109"/>
      <point x="257" y="153"/>
      <point x="257" y="226" type="curve" smooth="yes"/>
      <point x="257" y="689" type="line" smooth="yes"/>
      <point x="257" y="695"/>
      <point x="252" y="700"/>
      <point x="246" y="700" type="curve" smooth="yes"/>
      <point x="208" y="700"/>
      <point x="166" y="700"/>
    </contour>
    <contour>
      <point x="438" y="127" type="curve"/>
      <point x="420" y="127" type="line"/>
      <point x="386" y="127"/>
      <point x="394" y="127"/>
      <point x="350" y="127" type="curve" smooth="yes"/>
      <point x="284" y="127"/>
      <point x="257" y="149"/>
      <point x="257" y="226" type="curve"/>
      <point x="150" y="249"/>
      <point x="124" y="233"/>
      <point x="124" y="215" type="curve" smooth="yes"/>
      <point x="124" y="65"/>
      <point x="207" y="0"/>
      <point x="345" y="0" type="curve" smooth="yes"/>
      <point x="427" y="0" type="line" smooth="yes"/>
      <point x="430" y="0"/>
      <point x="433" y="1"/>
      <point x="435" y="3" type="curve" smooth="yes"/>
      <point x="437" y="5"/>
      <point x="438" y="8"/>
      <point x="438" y="11" type="curve" smooth="yes"/>
      <point x="438" y="51"/>
      <point x="438" y="86"/>
    </contour>
    <contour>
      <point x="42" y="538" type="line"/>
      <point x="42" y="497"/>
      <point x="42" y="465"/>
      <point x="42" y="425" type="curve" smooth="yes"/>
      <point x="42" y="422"/>
      <point x="43" y="419"/>
      <point x="45" y="417" type="curve" smooth="yes"/>
      <point x="47" y="415"/>
      <point x="50" y="414"/>
      <point x="53" y="414" type="curve"/>
      <point x="438" y="414" type="line"/>
      <point x="438" y="454"/>
      <point x="438" y="486"/>
      <point x="438" y="527" type="curve" smooth="yes"/>
      <point x="438" y="533"/>
      <point x="433" y="538"/>
      <point x="427" y="538" type="curve"/>
    </contour>
    <contour>
      <point x="394" y="711" type="move" name="caronslovak"/>
    </contour>
    <contour>
      <point x="287" y="-1" type="move" name="bottom"/>
    </contour>
  </outline>
</glyph>
<glyph name="v" format="1">
  <advance width="600"/>
  <unicode hex="0076"/>
  <outline>
    <contour>
      <point x="543" y="538" type="curve" smooth="yes"/>
      <point x="420" y="538" type="line"/>
      <point x="382" y="387"/>
      <point x="340" y="239"/>
      <point x="298" y="88" type="curve"/>
      <point x="283" y="29"/>
      <point x="269" y="14"/>
      <point x="240" y="0" type="curve"/>
      <point x="396" y="0" type="line"/>
      <point x="449" y="173"/>
      <point x="503" y="346"/>
      <point x="555" y="520" type="curve"/>
      <point x="558" y="529"/>
      <point x="553" y="538"/>
    </contour>
    <contour>
      <point x="169" y="538" type="curve" smooth="yes"/>
      <point x="40" y="538" type="line"/>
      <point x="93" y="363"/>
      <point x="146" y="189"/>
      <point x="199" y="14" type="curve"/>
      <point x="202" y="5"/>
      <point x="210" y="0"/>
      <point x="219" y="0" type="curve" smooth="yes"/>
      <point x="247" y="0" type="line" smooth="yes"/>
      <point x="299" y="0"/>
      <point x="388" y="27"/>
      <point x="389" y="129" type="curve"/>
      <point x="355" y="129"/>
      <point x="330" y="129"/>
      <point x="304" y="129" type="curve" smooth="yes"/>
      <point x="297" y="129"/>
      <point x="294" y="133"/>
      <point x="292" y="140" type="curve"/>
      <point x="256" y="268"/>
      <point x="221" y="395"/>
      <point x="185" y="522" type="curve"/>
      <point x="182" y="532"/>
      <point x="177" y="538"/>
    </contour>
  </outline>
</glyph>
<glyph name="w" format="1">
  <advance width="800"/>
  <unicode hex="0077"/>
  <outline>
    <contour>
      <point x="34" y="538" type="curve"/>
      <point x="72" y="363"/>
      <point x="110" y="189"/>
      <point x="147" y="14" type="curve"/>
      <point x="149" y="4"/>
      <point x="158" y="0"/>
      <point x="167" y="0" type="curve"/>
      <point x="216" y="0" type="line" smooth="yes"/>
      <point x="258" y="27"/>
      <point x="256" y="46"/>
      <point x="255" y="58" type="curve"/>
      <point x="228" y="213"/>
      <point x="200" y="369"/>
      <point x="173" y="524" type="curve"/>
      <point x="172" y="529"/>
      <point x="171" y="531"/>
      <point x="168" y="534" type="curve" smooth="yes"/>
      <point x="166" y="537"/>
      <point x="162" y="538"/>
      <point x="157" y="538" type="curve"/>
      <point x="115" y="538"/>
      <point x="77" y="538"/>
    </contour>
    <contour>
      <point x="334" y="538" type="curve"/>
      <point x="299" y="388"/>
      <point x="264" y="238"/>
      <point x="229" y="88" type="curve"/>
      <point x="214" y="35"/>
      <point x="208" y="23"/>
      <point x="190" y="0" type="curve"/>
      <point x="315" y="0" type="line"/>
      <point x="356" y="164"/>
      <point x="397" y="329"/>
      <point x="438" y="493" type="curve"/>
      <point x="444" y="524"/>
      <point x="447" y="533"/>
      <point x="449" y="538" type="curve" smooth="yes"/>
      <point x="418" y="538"/>
      <point x="364" y="538"/>
    </contour>
    <contour>
      <point x="366" y="476" type="curve"/>
      <point x="405" y="322"/>
      <point x="443" y="168"/>
      <point x="481" y="14" type="curve"/>
      <point x="483" y="5"/>
      <point x="492" y="0"/>
      <point x="501" y="0" type="curve"/>
      <point x="555" y="0" type="line" smooth="yes"/>
      <point x="582" y="34"/>
      <point x="583" y="44"/>
      <point x="581" y="50" type="curve"/>
      <point x="544" y="207"/>
      <point x="506" y="364"/>
      <point x="468" y="521" type="curve"/>
      <point x="466" y="530"/>
      <point x="460" y="538"/>
      <point x="449" y="538" type="curve" smooth="yes"/>
      <point x="439" y="538"/>
      <point x="425" y="529"/>
    </contour>
    <contour>
      <point x="629" y="538" type="curve"/>
      <point x="603" y="391"/>
      <point x="577" y="243"/>
      <point x="552" y="96" type="curve"/>
      <point x="543" y="47"/>
      <point x="534" y="31"/>
      <point x="521" y="0" type="curve"/>
      <point x="650" y="0" type="line"/>
      <point x="686" y="171"/>
      <point x="724" y="342"/>
      <point x="760" y="513" type="curve"/>
      <point x="764" y="525"/>
      <point x="763" y="532"/>
      <point x="760" y="535" type="curve" smooth="yes"/>
      <point x="759" y="537"/>
      <point x="756" y="538"/>
      <point x="753" y="538" type="curve"/>
      <point x="710" y="538"/>
      <point x="672" y="538"/>
    </contour>
    <contour>
      <point x="398" y="549" type="move" name="top"/>
    </contour>
  </outline>
</glyph>
<glyph name="z" format="1">
  <advance width="550"/>
  <unicode hex="007A"/>
  <outline>
    <contour>
      <point x="64" y="538" type="line"/>
      <point x="64" y="499"/>
      <point x="64" y="461"/>
      <point x="64" y="420" type="curve" smooth="yes"/>
      <point x="64" y="417"/>
      <point x="65" y="414"/>
      <point x="67" y="412" type="curve" smooth="yes"/>
      <point x="69" y="410"/>
      <point x="72" y="409"/>
      <point x="75" y="409" type="curve" smooth="yes"/>
      <point x="341" y="409" type="line" smooth="yes"/>
      <point x="389" y="409"/>
      <point x="441" y="412"/>
      <point x="486" y="422" type="curve"/>
      <point x="486" y="527" type="line" smooth="yes"/>
      <point x="486" y="530"/>
      <point x="485" y="533"/>
      <point x="483" y="535" type="curve" smooth="yes"/>
      <point x="481" y="537"/>
      <point x="478" y="538"/>
      <point x="475" y="538" type="curve" smooth="yes"/>
    </contour>
    <contour>
      <point x="356" y="457" type="curve"/>
      <point x="259" y="343"/>
      <point x="161" y="229"/>
      <point x="64" y="116" type="curve"/>
      <point x="64" y="18"/>
      <point x="157" y="52"/>
      <point x="201" y="86" type="curve" smooth="yes"/>
      <point x="301" y="203"/>
      <point x="486" y="420"/>
      <point x="486" y="422" type="curve"/>
      <point x="486" y="445"/>
      <point x="445" y="457"/>
    </contour>
    <contour>
      <point x="486" y="0" type="line"/>
      <point x="486" y="40"/>
      <point x="486" y="77"/>
      <point x="486" y="117" type="curve"/>
      <point x="486" y="123"/>
      <point x="481" y="128"/>
      <point x="475" y="128" type="curve" smooth="yes"/>
      <point x="213" y="128" type="line" smooth="yes"/>
      <point x="163" y="128"/>
      <point x="113" y="128"/>
      <point x="64" y="116" type="curve"/>
      <point x="64" y="11" type="line" smooth="yes"/>
      <point x="64" y="8"/>
      <point x="65" y="5"/>
      <point x="67" y="3" type="curve" smooth="yes"/>
      <point x="69" y="1"/>
      <point x="72" y="0"/>
      <point x="75" y="0" type="curve" smooth="yes"/>
    </contour>
    <contour>
      <point x="275" y="549" type="move" name="top"/>
    </contour>
  </outline>
</glyph>
<glyph name="braceleft" format="1">
  <advance width="500"/>
  <unicode hex="007B"/>
  <outline>
    <contour>
      <point x="343" y="634" type="curve" smooth="yes"/>
      <point x="412" y="634"/>
      <point x="395" y="634"/>
      <point x="452" y="634" type="curve"/>
      <point x="472" y="634" type="line"/>
      <point x="472" y="672"/>
      <point x="472" y="710"/>
      <point x="472" y="749" type="curve"/>
      <point x="472" y="756"/>
      <point x="468" y="760"/>
      <point x="461" y="760" type="curve" smooth="yes"/>
      <point x="286" y="760" type="line" smooth="yes"/>
      <point x="203" y="760"/>
      <point x="174" y="697"/>
      <point x="174" y="659" type="curve" smooth="yes"/>
      <point x="174" y="655" type="line" smooth="yes"/>
      <point x="174" y="646"/>
      <point x="182" y="640"/>
      <point x="306" y="601" type="curve"/>
      <point x="308" y="627"/>
      <point x="317" y="634"/>
    </contour>
    <contour>
      <point x="363" y="443" type="curve" smooth="yes"/>
      <point x="363" y="527"/>
      <point x="307" y="556"/>
      <point x="307" y="596" type="curve" smooth="yes"/>
      <point x="307" y="600"/>
      <point x="307" y="652"/>
      <point x="307" y="671" type="curve"/>
      <point x="178" y="669"/>
      <point x="174" y="665"/>
      <point x="174" y="659" type="curve" smooth="yes"/>
      <point x="174" y="615" type="line" smooth="yes"/>
      <point x="174" y="524"/>
      <point x="230" y="506"/>
      <point x="230" y="444" type="curve" smooth="yes"/>
      <point x="230" y="391"/>
      <point x="172" y="363"/>
      <point x="63" y="363" type="curve" smooth="yes"/>
      <point x="31" y="363" type="line"/>
      <point x="31" y="281" type="line" smooth="yes"/>
      <point x="31" y="272"/>
      <point x="36" y="269"/>
      <point x="43" y="269" type="curve" smooth="yes"/>
      <point x="63" y="269" type="line" smooth="yes"/>
      <point x="283" y="269"/>
      <point x="363" y="348"/>
    </contour>
    <contour>
      <point x="363" y="156" type="curve" smooth="yes"/>
      <point x="363" y="255"/>
      <point x="284" y="331"/>
      <point x="63" y="331" type="curve" smooth="yes"/>
      <point x="52" y="331"/>
      <point x="42" y="331"/>
      <point x="31" y="331" type="curve"/>
      <point x="31" y="248" type="line" smooth="yes"/>
      <point x="31" y="241"/>
      <point x="35" y="237"/>
      <point x="42" y="237" type="curve" smooth="yes"/>
      <point x="63" y="237" type="line" smooth="yes"/>
      <point x="172" y="237"/>
      <point x="230" y="205"/>
      <point x="230" y="154" type="curve" smooth="yes"/>
      <point x="230" y="93"/>
      <point x="174" y="75"/>
      <point x="174" y="-16" type="curve" smooth="yes"/>
      <point x="174" y="-60" type="line" smooth="yes"/>
      <point x="174" y="-66"/>
      <point x="179" y="-70"/>
      <point x="307" y="-71" type="curve"/>
      <point x="307" y="-46"/>
      <point x="307" y="-22"/>
      <point x="307" y="3" type="curve" smooth="yes"/>
      <point x="307" y="43"/>
      <point x="363" y="72"/>
    </contour>
    <contour>
      <point x="343" y="-35" type="curve" smooth="yes"/>
      <point x="317" y="-35"/>
      <point x="308" y="-28"/>
      <point x="306" y="-2" type="curve"/>
      <point x="183" y="-41"/>
      <point x="174" y="-47"/>
      <point x="174" y="-56" type="curve" smooth="yes"/>
      <point x="174" y="-60" type="line" smooth="yes"/>
      <point x="174" y="-98"/>
      <point x="203" y="-161"/>
      <point x="286" y="-161" type="curve" smooth="yes"/>
      <point x="461" y="-161" type="line" smooth="yes"/>
      <point x="468" y="-161"/>
      <point x="472" y="-157"/>
      <point x="472" y="-150" type="curve"/>
      <point x="472" y="-35" type="line"/>
      <point x="452" y="-35" type="line"/>
      <point x="395" y="-35"/>
      <point x="412" y="-35"/>
    </contour>
  </outline>
</glyph>
<glyph name="bar" format="1">
  <advance width="300"/>
  <unicode hex="007C"/>
  <outline>
    <contour>
      <point x="79" y="760" type="curve"/>
      <point x="79" y="725"/>
      <point x="79" y="690"/>
      <point x="79" y="654" type="curve" smooth="yes"/>
      <point x="79" y="-149" type="line" smooth="yes"/>
      <point x="79" y="-155"/>
      <point x="84" y="-160"/>
      <point x="90" y="-160" type="curve" smooth="yes"/>
      <point x="134" y="-160"/>
      <point x="177" y="-160"/>
      <point x="221" y="-160" type="curve"/>
      <point x="221" y="749" type="line" smooth="yes"/>
      <point x="221" y="752"/>
      <point x="220" y="755"/>
      <point x="218" y="757" type="curve" smooth="yes"/>
      <point x="216" y="759"/>
      <point x="213" y="760"/>
      <point x="210" y="760" type="curve" smooth="yes"/>
      <point x="166" y="760"/>
      <point x="123" y="760"/>
    </contour>
  </outline>
</glyph>
<glyph name="braceright" format="1">
  <advance width="500"/>
  <unicode hex="007D"/>
  <outline>
    <contour>
      <point x="157" y="-2" type="curve" smooth="yes"/>
      <point x="88" y="-2"/>
      <point x="105" y="-2"/>
      <point x="48" y="-2" type="curve"/>
      <point x="28" y="-2" type="line"/>
      <point x="28" y="-40"/>
      <point x="28" y="-78"/>
      <point x="28" y="-117" type="curve"/>
      <point x="28" y="-124"/>
      <point x="32" y="-128"/>
      <point x="39" y="-128" type="curve" smooth="yes"/>
      <point x="214" y="-128" type="line" smooth="yes"/>
      <point x="297" y="-128"/>
      <point x="326" y="-65"/>
      <point x="326" y="-27" type="curve" smooth="yes"/>
      <point x="326" y="-23" type="line" smooth="yes"/>
      <point x="326" y="-14"/>
      <point x="318" y="-8"/>
      <point x="194" y="31" type="curve"/>
      <point x="192" y="6"/>
      <point x="183" y="-2"/>
    </contour>
    <contour>
      <point x="137" y="189" type="curve" smooth="yes"/>
      <point x="137" y="105"/>
      <point x="193" y="76"/>
      <point x="193" y="36" type="curve" smooth="yes"/>
      <point x="193" y="32"/>
      <point x="193" y="-19"/>
      <point x="193" y="-39" type="curve"/>
      <point x="322" y="-37"/>
      <point x="326" y="-33"/>
      <point x="326" y="-27" type="curve" smooth="yes"/>
      <point x="326" y="17" type="line" smooth="yes"/>
      <point x="326" y="108"/>
      <point x="270" y="126"/>
      <point x="270" y="188" type="curve" smooth="yes"/>
      <point x="270" y="241"/>
      <point x="328" y="269"/>
      <point x="437" y="269" type="curve" smooth="yes"/>
      <point x="469" y="269" type="line"/>
      <point x="469" y="352" type="line" smooth="yes"/>
      <point x="469" y="360"/>
      <point x="464" y="363"/>
      <point x="457" y="363" type="curve" smooth="yes"/>
      <point x="437" y="363" type="line" smooth="yes"/>
      <point x="217" y="363"/>
      <point x="137" y="284"/>
    </contour>
    <contour>
      <point x="137" y="477" type="curve" smooth="yes"/>
      <point x="137" y="377"/>
      <point x="216" y="301"/>
      <point x="437" y="301" type="curve" smooth="yes"/>
      <point x="448" y="301"/>
      <point x="458" y="301"/>
      <point x="469" y="301" type="curve"/>
      <point x="469" y="384" type="line" smooth="yes"/>
      <point x="469" y="391"/>
      <point x="465" y="395"/>
      <point x="458" y="395" type="curve" smooth="yes"/>
      <point x="437" y="395" type="line" smooth="yes"/>
      <point x="328" y="395"/>
      <point x="270" y="427"/>
      <point x="270" y="478" type="curve" smooth="yes"/>
      <point x="270" y="540"/>
      <point x="326" y="557"/>
      <point x="326" y="649" type="curve" smooth="yes"/>
      <point x="326" y="692" type="line" smooth="yes"/>
      <point x="326" y="698"/>
      <point x="321" y="702"/>
      <point x="193" y="703" type="curve"/>
      <point x="193" y="678"/>
      <point x="193" y="654"/>
      <point x="193" y="629" type="curve" smooth="yes"/>
      <point x="193" y="589"/>
      <point x="137" y="560"/>
    </contour>
    <contour>
      <point x="157" y="667" type="curve" smooth="yes"/>
      <point x="183" y="667"/>
      <point x="192" y="660"/>
      <point x="194" y="634" type="curve"/>
      <point x="317" y="674"/>
      <point x="326" y="680"/>
      <point x="326" y="688" type="curve" smooth="yes"/>
      <point x="326" y="692" type="line" smooth="yes"/>
      <point x="326" y="730"/>
      <point x="297" y="793"/>
      <point x="214" y="793" type="curve" smooth="yes"/>
      <point x="39" y="793" type="line" smooth="yes"/>
      <point x="32" y="793"/>
      <point x="28" y="789"/>
      <point x="28" y="782" type="curve"/>
      <point x="28" y="667" type="line"/>
      <point x="48" y="667" type="line"/>
      <point x="105" y="667"/>
      <point x="88" y="667"/>
    </contour>
  </outline>
</glyph>
<glyph name="asciitilde" format="1">
  <advance width="600"/>
  <unicode hex="007E"/>
  <outline>
    <contour>
      <point x="428" y="313" type="curve" smooth="yes"/>
      <point x="344" y="313"/>
      <point x="282" y="413"/>
      <point x="177" y="413" type="curve" smooth="yes"/>
      <point x="124" y="413"/>
      <point x="89" y="397"/>
      <point x="65" y="370" type="curve" smooth="yes"/>
      <point x="57" y="361"/>
      <point x="57" y="356"/>
      <point x="57" y="345" type="curve" smooth="yes"/>
      <point x="57" y="314"/>
      <point x="57" y="276"/>
      <point x="57" y="238" type="curve"/>
      <point x="76" y="238" type="line"/>
      <point x="103" y="272"/>
      <point x="133" y="287"/>
      <point x="172" y="287" type="curve" smooth="yes"/>
      <point x="256" y="287"/>
      <point x="318" y="187"/>
      <point x="423" y="187" type="curve" smooth="yes"/>
      <point x="476" y="187"/>
      <point x="511" y="203"/>
      <point x="535" y="230" type="curve" smooth="yes"/>
      <point x="543" y="239"/>
      <point x="543" y="244"/>
      <point x="543" y="255" type="curve" smooth="yes"/>
      <point x="543" y="286"/>
      <point x="543" y="324"/>
      <point x="543" y="361" type="curve"/>
      <point x="524" y="361" type="line"/>
      <point x="497" y="327"/>
      <point x="467" y="313"/>
    </contour>
  </outline>
</glyph>
<glyph name="exclamdown" format="1">
  <advance width="400"/>
  <unicode hex="00A1"/>
  <outline>
    <contour>
      <point x="151" y="256" type="line"/>
      <point x="141" y="182"/>
      <point x="130" y="109"/>
      <point x="119" y="36" type="curve"/>
      <point x="119" y="-151" type="line" smooth="yes"/>
      <point x="119" y="-158"/>
      <point x="124" y="-162"/>
      <point x="130" y="-162" type="curve" smooth="yes"/>
      <point x="193" y="-162"/>
      <point x="243" y="-162"/>
      <point x="281" y="-162" type="curve"/>
      <point x="281" y="-124"/>
      <point x="281" y="-89"/>
      <point x="281" y="-52" type="curve" smooth="yes"/>
      <point x="281" y="36" type="line"/>
      <point x="252" y="246"/>
      <point x="250" y="249"/>
      <point x="246" y="253" type="curve" smooth="yes"/>
      <point x="244" y="255"/>
      <point x="242" y="256"/>
      <point x="238" y="256" type="curve"/>
    </contour>
    <contour>
      <point x="107" y="547" type="curve"/>
      <point x="107" y="371" type="line" smooth="yes"/>
      <point x="107" y="365"/>
      <point x="112" y="360"/>
      <point x="118" y="360" type="curve" smooth="yes"/>
      <point x="175" y="360"/>
      <point x="236" y="360"/>
      <point x="293" y="360" type="curve"/>
      <point x="293" y="536" type="line" smooth="yes"/>
      <point x="293" y="542"/>
      <point x="288" y="547"/>
      <point x="282" y="547" type="curve" smooth="yes"/>
      <point x="225" y="547"/>
      <point x="164" y="547"/>
    </contour>
  </outline>
</glyph>
<glyph name="cent" format="1">
  <advance width="600"/>
  <unicode hex="00A2"/>
  <outline>
    <contour>
      <point x="389" y="387" type="line"/>
      <point x="444" y="762" type="line" smooth="yes"/>
      <point x="445" y="771"/>
      <point x="440" y="775"/>
      <point x="434" y="775" type="curve" smooth="yes"/>
      <point x="386" y="775"/>
      <point x="365" y="775"/>
      <point x="317" y="775" type="curve"/>
      <point x="317" y="743"/>
      <point x="317" y="711"/>
      <point x="317" y="679" type="curve"/>
      <point x="317" y="416" type="line" smooth="yes"/>
      <point x="317" y="408"/>
      <point x="320" y="404"/>
      <point x="328" y="402" type="curve" smooth="yes"/>
    </contour>
    <contour>
      <point x="318" y="311" type="line"/>
      <point x="263" y="-64" type="line" smooth="yes"/>
      <point x="262" y="-73"/>
      <point x="267" y="-77"/>
      <point x="273" y="-77" type="curve" smooth="yes"/>
      <point x="320" y="-77"/>
      <point x="341" y="-77"/>
      <point x="390" y="-77" type="curve"/>
      <point x="390" y="-45"/>
      <point x="390" y="-13"/>
      <point x="390" y="19" type="curve"/>
      <point x="390" y="281" type="line" smooth="yes"/>
      <point x="390" y="289"/>
      <point x="386" y="294"/>
      <point x="379" y="296" type="curve" smooth="yes"/>
    </contour>
    <contour>
      <point x="344" y="631" type="curve" smooth="yes"/>
      <point x="180" y="631"/>
      <point x="71" y="531"/>
      <point x="71" y="383" type="curve" smooth="yes"/>
      <point x="71" y="313" type="line" smooth="yes"/>
      <point x="71" y="159"/>
      <point x="166" y="70"/>
      <point x="344" y="70" type="curve" smooth="yes"/>
      <point x="363" y="70"/>
      <point x="365" y="91"/>
      <point x="341" y="202" type="curve"/>
      <point x="246" y="202"/>
      <point x="208" y="240"/>
      <point x="208" y="321" type="curve" smooth="yes"/>
      <point x="208" y="380" type="line" smooth="yes"/>
      <point x="208" y="468"/>
      <point x="262" y="498"/>
      <point x="342" y="498" type="curve" smooth="yes"/>
      <point x="400" y="498"/>
      <point x="446" y="485"/>
      <point x="498" y="463" type="curve"/>
      <point x="516" y="463" type="line"/>
      <point x="516" y="502"/>
      <point x="516" y="541"/>
      <point x="516" y="581" type="curve" smooth="yes"/>
      <point x="516" y="585"/>
      <point x="515" y="588"/>
      <point x="513" y="590" type="curve" smooth="yes"/>
      <point x="497" y="606"/>
      <point x="438" y="631"/>
    </contour>
    <contour>
      <point x="157" y="264" type="curve"/>
      <point x="133" y="132"/>
      <point x="201" y="70"/>
      <point x="344" y="70" type="curve" smooth="yes"/>
      <point x="434" y="70"/>
      <point x="497" y="92"/>
      <point x="513" y="109" type="curve" smooth="yes"/>
      <point x="515" y="111"/>
      <point x="516" y="114"/>
      <point x="516" y="117" type="curve"/>
      <point x="516" y="156"/>
      <point x="516" y="195"/>
      <point x="516" y="235" type="curve"/>
      <point x="498" y="235" type="line"/>
      <point x="446" y="214"/>
      <point x="399" y="202"/>
      <point x="341" y="202" type="curve" smooth="yes"/>
      <point x="261" y="202"/>
      <point x="206" y="224"/>
    </contour>
  </outline>
</glyph>
<glyph name="sterling" format="1">
  <advance width="600"/>
  <unicode hex="00A3"/>
  <outline>
    <contour>
      <point x="381" y="588" type="curve" smooth="yes"/>
      <point x="431" y="588"/>
      <point x="463" y="578"/>
      <point x="509" y="557" type="curve"/>
      <point x="527" y="557" type="line"/>
      <point x="527" y="587"/>
      <point x="527" y="629"/>
      <point x="527" y="676" type="curve" smooth="yes"/>
      <point x="527" y="679"/>
      <point x="527" y="681"/>
      <point x="525" y="683" type="curve" smooth="yes"/>
      <point x="512" y="696"/>
      <point x="459" y="720"/>
      <point x="380" y="720" type="curve" smooth="yes"/>
      <point x="228" y="720"/>
      <point x="141" y="646"/>
      <point x="141" y="536" type="curve" smooth="yes"/>
      <point x="141" y="511" type="line" smooth="yes"/>
      <point x="141" y="498"/>
      <point x="149" y="494"/>
      <point x="274" y="508" type="curve"/>
      <point x="274" y="566"/>
      <point x="305" y="588"/>
    </contour>
    <contour>
      <point x="141" y="511" type="curve" smooth="yes"/>
      <point x="141" y="407"/>
      <point x="141" y="323"/>
      <point x="141" y="213" type="curve" smooth="yes"/>
      <point x="141" y="156"/>
      <point x="110" y="125"/>
      <point x="65" y="125" type="curve" smooth="yes"/>
      <point x="58" y="125"/>
      <point x="52" y="125"/>
      <point x="46" y="125" type="curve"/>
      <point x="42" y="125" type="line"/>
      <point x="42" y="87"/>
      <point x="42" y="56"/>
      <point x="42" y="11" type="curve" smooth="yes"/>
      <point x="42" y="3"/>
      <point x="46" y="0"/>
      <point x="53" y="0" type="curve" smooth="yes"/>
      <point x="58" y="0" type="line" smooth="yes"/>
      <point x="182" y="0"/>
      <point x="274" y="62"/>
      <point x="274" y="234" type="curve" smooth="yes"/>
      <point x="274" y="328"/>
      <point x="274" y="416"/>
      <point x="274" y="508" type="curve" smooth="yes"/>
      <point x="274" y="545"/>
      <point x="274" y="579"/>
      <point x="274" y="615" type="curve"/>
      <point x="199" y="615"/>
      <point x="141" y="577"/>
    </contour>
    <contour>
      <point x="58" y="0" type="curve"/>
      <point x="235" y="0"/>
      <point x="338" y="0"/>
      <point x="472" y="0" type="curve" smooth="yes"/>
      <point x="537" y="0" type="line" smooth="yes"/>
      <point x="545" y="0"/>
      <point x="548" y="3"/>
      <point x="548" y="11" type="curve"/>
      <point x="548" y="49"/>
      <point x="548" y="87"/>
      <point x="548" y="125" type="curve"/>
      <point x="528" y="125" type="line"/>
      <point x="503" y="125"/>
      <point x="483" y="125"/>
      <point x="451" y="125" type="curve" smooth="yes"/>
      <point x="354" y="125"/>
      <point x="280" y="125"/>
      <point x="128" y="125" type="curve"/>
      <point x="47" y="8"/>
      <point x="51" y="0"/>
    </contour>
    <contour>
      <point x="62" y="403" type="line"/>
      <point x="62" y="363"/>
      <point x="62" y="356"/>
      <point x="62" y="316" type="curve" smooth="yes"/>
      <point x="62" y="313"/>
      <point x="63" y="310"/>
      <point x="65" y="308" type="curve" smooth="yes"/>
      <point x="67" y="306"/>
      <point x="70" y="305"/>
      <point x="73" y="305" type="curve" smooth="yes"/>
      <point x="450" y="305" type="line"/>
      <point x="450" y="345"/>
      <point x="450" y="352"/>
      <point x="450" y="392" type="curve" smooth="yes"/>
      <point x="450" y="398"/>
      <point x="445" y="403"/>
      <point x="439" y="403" type="curve" smooth="yes"/>
    </contour>
  </outline>
</glyph>
<glyph name="currency" format="1">
  <advance width="600"/>
  <unicode hex="00A4"/>
  <outline>
    <contour>
      <point x="250" y="423" type="curve"/>
      <point x="221" y="453"/>
      <point x="186" y="488"/>
      <point x="155" y="519" type="curve" smooth="yes"/>
      <point x="153" y="521"/>
      <point x="151" y="522"/>
      <point x="149" y="522" type="curve" smooth="yes"/>
      <point x="147" y="522"/>
      <point x="145" y="521"/>
      <point x="143" y="519" type="curve" smooth="yes"/>
      <point x="119" y="495"/>
      <point x="93" y="469"/>
      <point x="74" y="450" type="curve"/>
      <point x="104" y="420"/>
      <point x="140" y="384"/>
      <point x="170" y="355" type="curve" smooth="yes"/>
      <point x="174" y="351"/>
      <point x="178" y="351"/>
      <point x="182" y="355" type="curve" smooth="yes"/>
      <point x="203" y="376"/>
      <point x="231" y="403"/>
    </contour>
    <contour>
      <point x="348" y="423" type="curve"/>
      <point x="355" y="416"/>
      <point x="408" y="363"/>
      <point x="416" y="355" type="curve" smooth="yes"/>
      <point x="420" y="351"/>
      <point x="424" y="351"/>
      <point x="428" y="355" type="curve" smooth="yes"/>
      <point x="458" y="384"/>
      <point x="494" y="420"/>
      <point x="524" y="450" type="curve"/>
      <point x="501" y="473"/>
      <point x="479" y="495"/>
      <point x="455" y="519" type="curve" smooth="yes"/>
      <point x="453" y="521"/>
      <point x="451" y="522"/>
      <point x="449" y="522" type="curve" smooth="yes"/>
      <point x="447" y="522"/>
      <point x="445" y="521"/>
      <point x="443" y="519" type="curve" smooth="yes"/>
      <point x="412" y="488"/>
      <point x="377" y="453"/>
    </contour>
    <contour>
      <point x="348" y="175" type="curve"/>
      <point x="377" y="145"/>
      <point x="412" y="110"/>
      <point x="443" y="79" type="curve" smooth="yes"/>
      <point x="445" y="77"/>
      <point x="447" y="76"/>
      <point x="449" y="76" type="curve" smooth="yes"/>
      <point x="451" y="76"/>
      <point x="453" y="77"/>
      <point x="455" y="79" type="curve" smooth="yes"/>
      <point x="479" y="104"/>
      <point x="505" y="129"/>
      <point x="524" y="148" type="curve"/>
      <point x="494" y="178"/>
      <point x="458" y="214"/>
      <point x="428" y="244" type="curve" smooth="yes"/>
      <point x="424" y="248"/>
      <point x="420" y="248"/>
      <point x="416" y="244" type="curve" smooth="yes"/>
      <point x="395" y="222"/>
      <point x="367" y="195"/>
    </contour>
    <contour>
      <point x="250" y="175" type="curve"/>
      <point x="243" y="182"/>
      <point x="190" y="235"/>
      <point x="182" y="244" type="curve" smooth="yes"/>
      <point x="178" y="248"/>
      <point x="174" y="248"/>
      <point x="170" y="244" type="curve" smooth="yes"/>
      <point x="140" y="214"/>
      <point x="104" y="178"/>
      <point x="74" y="148" type="curve"/>
      <point x="97" y="125"/>
      <point x="119" y="103"/>
      <point x="143" y="79" type="curve" smooth="yes"/>
      <point x="145" y="77"/>
      <point x="147" y="76"/>
      <point x="149" y="76" type="curve" smooth="yes"/>
      <point x="151" y="76"/>
      <point x="153" y="77"/>
      <point x="155" y="79" type="curve" smooth="yes"/>
      <point x="186" y="110"/>
      <point x="221" y="145"/>
    </contour>
    <contour>
      <point x="300" y="215" type="curve"/>
      <point x="248" y="215"/>
      <point x="218" y="239"/>
      <point x="218" y="279" type="curve" smooth="yes"/>
      <point x="218" y="322" type="line" smooth="yes"/>
      <point x="218" y="363"/>
      <point x="249" y="386"/>
      <point x="300" y="386" type="curve" smooth="yes"/>
      <point x="333" y="386"/>
      <point x="350" y="385"/>
      <point x="372" y="382" type="curve"/>
      <point x="375" y="436"/>
      <point x="363" y="475"/>
      <point x="300" y="475" type="curve"/>
      <point x="194" y="475"/>
      <point x="127" y="418"/>
      <point x="127" y="330" type="curve" smooth="yes"/>
      <point x="127" y="272" type="line" smooth="yes"/>
      <point x="127" y="183"/>
      <point x="194" y="127"/>
      <point x="300" y="127" type="curve"/>
      <point x="309" y="127"/>
      <point x="309" y="187"/>
    </contour>
    <contour>
      <point x="300" y="386" type="curve"/>
      <point x="352" y="386"/>
      <point x="382" y="363"/>
      <point x="382" y="322" type="curve" smooth="yes"/>
      <point x="382" y="279" type="line" smooth="yes"/>
      <point x="382" y="239"/>
      <point x="351" y="215"/>
      <point x="300" y="215" type="curve" smooth="yes"/>
      <point x="267" y="215"/>
      <point x="251" y="216"/>
      <point x="228" y="220" type="curve"/>
      <point x="225" y="167"/>
      <point x="237" y="127"/>
      <point x="300" y="127" type="curve"/>
      <point x="406" y="127"/>
      <point x="473" y="183"/>
      <point x="473" y="272" type="curve" smooth="yes"/>
      <point x="473" y="330" type="line" smooth="yes"/>
      <point x="473" y="418"/>
      <point x="406" y="475"/>
      <point x="300" y="475" type="curve"/>
      <point x="287" y="475"/>
      <point x="289" y="417"/>
    </contour>
  </outline>
</glyph>
<glyph name="brokenbar" format="1">
  <advance width="300"/>
  <unicode hex="00A6"/>
  <outline>
    <contour>
      <point x="79" y="760" type="curve"/>
      <point x="79" y="727"/>
      <point x="79" y="694"/>
      <point x="79" y="661" type="curve" smooth="yes"/>
      <point x="79" y="380" type="line" smooth="yes"/>
      <point x="79" y="374"/>
      <point x="84" y="369"/>
      <point x="90" y="369" type="curve" smooth="yes"/>
      <point x="133" y="369"/>
      <point x="176" y="369"/>
      <point x="221" y="369" type="curve"/>
      <point x="221" y="749" type="line" smooth="yes"/>
      <point x="221" y="752"/>
      <point x="220" y="755"/>
      <point x="218" y="757" type="curve" smooth="yes"/>
      <point x="216" y="759"/>
      <point x="213" y="760"/>
      <point x="210" y="760" type="curve" smooth="yes"/>
      <point x="165" y="760"/>
      <point x="122" y="760"/>
    </contour>
    <contour>
      <point x="79" y="231" type="curve"/>
      <point x="79" y="-149" type="line"/>
      <point x="79" y="-155"/>
      <point x="84" y="-160"/>
      <point x="90" y="-160" type="curve" smooth="yes"/>
      <point x="133" y="-160"/>
      <point x="176" y="-160"/>
      <point x="221" y="-160" type="curve"/>
      <point x="221" y="220" type="line" smooth="yes"/>
      <point x="221" y="227"/>
      <point x="217" y="231"/>
      <point x="210" y="231" type="curve" smooth="yes"/>
      <point x="165" y="231"/>
      <point x="122" y="231"/>
    </contour>
  </outline>
</glyph>
<glyph name="copyright" format="1">
  <advance width="600"/>
  <unicode hex="00A9"/>
  <outline>
    <contour>
      <point x="300" y="715" type="curve" smooth="yes"/>
      <point x="132" y="715"/>
      <point x="15" y="616"/>
      <point x="15" y="430" type="curve" smooth="yes"/>
      <point x="15" y="271" type="line" smooth="yes"/>
      <point x="15" y="84"/>
      <point x="125" y="-15"/>
      <point x="300" y="-15" type="curve" smooth="yes"/>
      <point x="301" y="-12"/>
      <point x="318" y="18"/>
      <point x="300" y="44" type="curve"/>
      <point x="161" y="44"/>
      <point x="78" y="127"/>
      <point x="78" y="255" type="curve" smooth="yes"/>
      <point x="78" y="446" type="line" smooth="yes"/>
      <point x="78" y="574"/>
      <point x="161" y="656"/>
      <point x="300" y="656" type="curve" smooth="yes"/>
      <point x="363" y="656"/>
      <point x="402" y="649"/>
      <point x="455" y="627" type="curve"/>
      <point x="480" y="670"/>
      <point x="409" y="715"/>
    </contour>
    <contour>
      <point x="300" y="-15" type="curve" smooth="yes"/>
      <point x="468" y="-15"/>
      <point x="585" y="84"/>
      <point x="585" y="270" type="curve" smooth="yes"/>
      <point x="585" y="429" type="line" smooth="yes"/>
      <point x="585" y="616"/>
      <point x="475" y="715"/>
      <point x="300" y="715" type="curve" smooth="yes"/>
      <point x="299" y="712"/>
      <point x="282" y="682"/>
      <point x="300" y="656" type="curve"/>
      <point x="439" y="656"/>
      <point x="522" y="573"/>
      <point x="522" y="445" type="curve" smooth="yes"/>
      <point x="522" y="254" type="line" smooth="yes"/>
      <point x="522" y="126"/>
      <point x="439" y="44"/>
      <point x="300" y="44" type="curve" smooth="yes"/>
      <point x="237" y="44"/>
      <point x="198" y="51"/>
      <point x="145" y="73" type="curve"/>
      <point x="120" y="30"/>
      <point x="191" y="-15"/>
    </contour>
    <contour>
      <point x="308" y="491" type="curve" smooth="yes"/>
      <point x="344" y="491"/>
      <point x="358" y="476"/>
      <point x="375" y="450" type="curve"/>
      <point x="416" y="495"/>
      <point x="421" y="504"/>
      <point x="421" y="511" type="curve" smooth="yes"/>
      <point x="421" y="516"/>
      <point x="420" y="518"/>
      <point x="416" y="522" type="curve" smooth="yes"/>
      <point x="392" y="549"/>
      <point x="356" y="566"/>
      <point x="308" y="566" type="curve" smooth="yes"/>
      <point x="220" y="566"/>
      <point x="168" y="516"/>
      <point x="168" y="428" type="curve" smooth="yes"/>
      <point x="168" y="273" type="line" smooth="yes"/>
      <point x="168" y="244"/>
      <point x="201" y="211"/>
      <point x="251" y="211" type="curve"/>
      <point x="251" y="234"/>
      <point x="251" y="251"/>
      <point x="251" y="276" type="curve" smooth="yes"/>
      <point x="251" y="429" type="line" smooth="yes"/>
      <point x="251" y="469"/>
      <point x="270" y="491"/>
    </contour>
    <contour>
      <point x="307" y="134" type="curve" smooth="yes"/>
      <point x="354" y="134"/>
      <point x="397" y="149"/>
      <point x="417" y="173" type="curve"/>
      <point x="420" y="178"/>
      <point x="421" y="179"/>
      <point x="421" y="186" type="curve" smooth="yes"/>
      <point x="421" y="209"/>
      <point x="421" y="232"/>
      <point x="421" y="259" type="curve"/>
      <point x="410" y="259" type="line"/>
      <point x="382" y="227"/>
      <point x="355" y="212"/>
      <point x="313" y="212" type="curve" smooth="yes"/>
      <point x="269" y="212"/>
      <point x="251" y="230"/>
      <point x="251" y="276" type="curve"/>
      <point x="183" y="288"/>
      <point x="168" y="281"/>
      <point x="168" y="273" type="curve" smooth="yes"/>
      <point x="168" y="187"/>
      <point x="212" y="134"/>
    </contour>
    <contour>
      <point x="421" y="421" type="curve"/>
      <point x="421" y="511" type="line" smooth="yes"/>
      <point x="421" y="519"/>
      <point x="403" y="522"/>
      <point x="344" y="522" type="curve"/>
      <point x="344" y="515"/>
      <point x="344" y="511"/>
      <point x="344" y="506" type="curve" smooth="yes"/>
      <point x="344" y="432" type="line" smooth="yes"/>
      <point x="344" y="425"/>
      <point x="347" y="421"/>
      <point x="355" y="421" type="curve" smooth="yes"/>
      <point x="378" y="421"/>
      <point x="395" y="421"/>
    </contour>
  </outline>
</glyph>
<glyph name="guillemotleft" format="1">
  <advance width="600"/>
  <unicode hex="00AB"/>
  <outline>
    <contour>
      <point x="332" y="522" type="line"/>
      <point x="293" y="522"/>
      <point x="264" y="522"/>
      <point x="234" y="522" type="curve" smooth="yes"/>
      <point x="222" y="522"/>
      <point x="217" y="521"/>
      <point x="208" y="512" type="curve" smooth="yes"/>
      <point x="179" y="482"/>
      <point x="93" y="391"/>
      <point x="31" y="325" type="curve"/>
      <point x="31" y="305" type="line"/>
      <point x="31" y="293"/>
      <point x="38" y="290"/>
      <point x="104" y="262" type="curve"/>
      <point x="179" y="341"/>
      <point x="234" y="399"/>
      <point x="332" y="502" type="curve"/>
    </contour>
    <contour>
      <point x="332" y="98" type="line"/>
      <point x="233" y="201"/>
      <point x="184" y="252"/>
      <point x="120" y="321" type="curve"/>
      <point x="41" y="321"/>
      <point x="31" y="319"/>
      <point x="31" y="309" type="curve"/>
      <point x="31" y="285" type="line" smooth="yes"/>
      <point x="31" y="277"/>
      <point x="32" y="273"/>
      <point x="41" y="263" type="curve" smooth="yes"/>
      <point x="61" y="242"/>
      <point x="192" y="105"/>
      <point x="206" y="90" type="curve"/>
      <point x="217" y="79"/>
      <point x="219" y="78"/>
      <point x="232" y="78" type="curve" smooth="yes"/>
      <point x="281" y="78"/>
      <point x="305" y="78"/>
      <point x="332" y="78" type="curve"/>
    </contour>
    <contour>
      <point x="562" y="522" type="line"/>
      <point x="523" y="522"/>
      <point x="494" y="522"/>
      <point x="464" y="522" type="curve" smooth="yes"/>
      <point x="452" y="522"/>
      <point x="447" y="521"/>
      <point x="438" y="512" type="curve" smooth="yes"/>
      <point x="409" y="482"/>
      <point x="323" y="391"/>
      <point x="261" y="325" type="curve"/>
      <point x="261" y="305" type="line"/>
      <point x="261" y="293"/>
      <point x="268" y="290"/>
      <point x="334" y="262" type="curve"/>
      <point x="409" y="341"/>
      <point x="464" y="399"/>
      <point x="562" y="502" type="curve"/>
    </contour>
    <contour>
      <point x="562" y="98" type="line"/>
      <point x="463" y="201"/>
      <point x="414" y="252"/>
      <point x="350" y="321" type="curve"/>
      <point x="271" y="321"/>
      <point x="261" y="319"/>
      <point x="261" y="309" type="curve"/>
      <point x="261" y="285" type="line" smooth="yes"/>
      <point x="261" y="277"/>
      <point x="262" y="273"/>
      <point x="271" y="263" type="curve" smooth="yes"/>
      <point x="291" y="242"/>
      <point x="422" y="105"/>
      <point x="436" y="90" type="curve"/>
      <point x="447" y="79"/>
      <point x="449" y="78"/>
      <point x="462" y="78" type="curve" smooth="yes"/>
      <point x="511" y="78"/>
      <point x="535" y="78"/>
      <point x="562" y="78" type="curve"/>
    </contour>
  </outline>
</glyph>
<glyph name="logicalnot" format="1">
  <advance width="600"/>
  <unicode hex="00AC"/>
  <outline>
    <contour>
      <point x="63" y="451" type="line"/>
      <point x="63" y="411"/>
      <point x="63" y="382"/>
      <point x="63" y="341" type="curve" smooth="yes"/>
      <point x="63" y="338"/>
      <point x="64" y="335"/>
      <point x="66" y="333" type="curve" smooth="yes"/>
      <point x="68" y="331"/>
      <point x="71" y="330"/>
      <point x="74" y="330" type="curve"/>
      <point x="537" y="330" type="line"/>
      <point x="537" y="440" type="line"/>
      <point x="537" y="446"/>
      <point x="532" y="451"/>
      <point x="526" y="451" type="curve"/>
    </contour>
    <contour>
      <point x="537" y="141" type="curve"/>
      <point x="537" y="390" type="line" smooth="yes"/>
      <point x="537" y="396"/>
      <point x="532" y="401"/>
      <point x="526" y="401" type="curve"/>
      <point x="404" y="401" type="line"/>
      <point x="404" y="152" type="line" smooth="yes"/>
      <point x="404" y="146"/>
      <point x="409" y="141"/>
      <point x="415" y="141" type="curve" smooth="yes"/>
      <point x="459" y="141"/>
      <point x="494" y="141"/>
    </contour>
  </outline>
</glyph>
<glyph name="registered" format="1">
  <advance width="600"/>
  <unicode hex="00AE"/>
  <outline>
    <contour>
      <point x="265" y="327" type="curve"/>
      <point x="265" y="353"/>
      <point x="265" y="377"/>
      <point x="265" y="403" type="curve"/>
      <point x="265" y="602" type="line"/>
      <point x="265" y="603"/>
      <point x="265" y="608"/>
      <point x="189" y="608" type="curve"/>
      <point x="189" y="338" type="line" smooth="yes"/>
      <point x="189" y="331"/>
      <point x="193" y="327"/>
      <point x="200" y="327" type="curve" smooth="yes"/>
      <point x="222" y="327"/>
      <point x="243" y="327"/>
    </contour>
    <contour>
      <point x="169" y="635" type="curve"/>
      <point x="169" y="616"/>
      <point x="169" y="600"/>
      <point x="169" y="581" type="curve"/>
      <point x="169" y="574"/>
      <point x="173" y="570"/>
      <point x="180" y="570" type="curve"/>
      <point x="186" y="570"/>
      <point x="196" y="570"/>
      <point x="202" y="570" type="curve" smooth="yes"/>
      <point x="238" y="570"/>
      <point x="287" y="570"/>
      <point x="323" y="570" type="curve" smooth="yes"/>
      <point x="357" y="570"/>
      <point x="375" y="570"/>
      <point x="393" y="570" type="curve"/>
      <point x="393" y="610"/>
      <point x="367" y="635"/>
      <point x="324" y="635" type="curve" smooth="yes"/>
      <point x="278" y="635"/>
      <point x="213" y="635"/>
    </contour>
    <contour>
      <point x="427" y="513" type="curve" smooth="yes"/>
      <point x="427" y="547" type="line" smooth="yes"/>
      <point x="427" y="601"/>
      <point x="392" y="635"/>
      <point x="324" y="635" type="curve"/>
      <point x="317" y="635"/>
      <point x="312" y="630"/>
      <point x="323" y="570" type="curve"/>
      <point x="343" y="570"/>
      <point x="353" y="562"/>
      <point x="353" y="543" type="curve" smooth="yes"/>
      <point x="353" y="518" type="line" smooth="yes"/>
      <point x="353" y="501"/>
      <point x="340" y="491"/>
      <point x="323" y="491" type="curve" smooth="yes"/>
      <point x="302" y="491"/>
      <point x="252" y="491"/>
      <point x="236" y="491" type="curve"/>
      <point x="236" y="472"/>
      <point x="236" y="455"/>
      <point x="236" y="433" type="curve" smooth="yes"/>
      <point x="236" y="430"/>
      <point x="239" y="427"/>
      <point x="242" y="427" type="curve" smooth="yes"/>
      <point x="341" y="427" type="line" smooth="yes"/>
      <point x="395" y="427"/>
      <point x="427" y="463"/>
    </contour>
    <contour>
      <point x="362" y="475" type="line"/>
      <point x="319" y="474"/>
      <point x="300" y="449"/>
      <point x="305" y="436" type="curve" smooth="yes"/>
      <point x="329" y="371" type="line" smooth="yes"/>
      <point x="342" y="335"/>
      <point x="364" y="324"/>
      <point x="406" y="324" type="curve" smooth="yes"/>
      <point x="416" y="324" type="line" smooth="yes"/>
      <point x="424" y="324"/>
      <point x="427" y="328"/>
      <point x="427" y="335" type="curve"/>
      <point x="427" y="350"/>
      <point x="427" y="375"/>
      <point x="427" y="395" type="curve"/>
      <point x="424" y="395" type="line"/>
      <point x="418" y="395"/>
      <point x="415" y="395"/>
      <point x="408" y="395" type="curve"/>
      <point x="396" y="395"/>
      <point x="393" y="397"/>
      <point x="389" y="407" type="curve" smooth="yes"/>
    </contour>
    <contour>
      <point x="300" y="760" type="curve" smooth="yes"/>
      <point x="141" y="760"/>
      <point x="45" y="685"/>
      <point x="45" y="544" type="curve" smooth="yes"/>
      <point x="45" y="417" type="line" smooth="yes"/>
      <point x="45" y="276"/>
      <point x="141" y="200"/>
      <point x="300" y="200" type="curve" smooth="yes"/>
      <point x="301" y="204"/>
      <point x="313" y="216"/>
      <point x="300" y="260" type="curve"/>
      <point x="172" y="260"/>
      <point x="108" y="318"/>
      <point x="108" y="409" type="curve" smooth="yes"/>
      <point x="108" y="551" type="line" smooth="yes"/>
      <point x="108" y="643"/>
      <point x="172" y="701"/>
      <point x="300" y="701" type="curve" smooth="yes"/>
      <point x="346" y="701"/>
      <point x="374" y="701"/>
      <point x="414" y="701" type="curve"/>
      <point x="414" y="733"/>
      <point x="382" y="760"/>
    </contour>
    <contour>
      <point x="300" y="200" type="curve" smooth="yes"/>
      <point x="464" y="200"/>
      <point x="555" y="275"/>
      <point x="555" y="415" type="curve" smooth="yes"/>
      <point x="555" y="542" type="line" smooth="yes"/>
      <point x="555" y="684"/>
      <point x="464" y="760"/>
      <point x="300" y="760" type="curve" smooth="yes"/>
      <point x="299" y="757"/>
      <point x="287" y="744"/>
      <point x="300" y="701" type="curve"/>
      <point x="433" y="701"/>
      <point x="492" y="642"/>
      <point x="492" y="550" type="curve" smooth="yes"/>
      <point x="492" y="407" type="line" smooth="yes"/>
      <point x="492" y="317"/>
      <point x="433" y="260"/>
      <point x="300" y="260" type="curve" smooth="yes"/>
      <point x="254" y="260"/>
      <point x="226" y="260"/>
      <point x="186" y="260" type="curve"/>
      <point x="186" y="227"/>
      <point x="218" y="200"/>
    </contour>
  </outline>
</glyph>
<glyph name="macron" format="1">
  <advance width="600"/>
  <unicode hex="00AF"/>
  <outline>
    <contour>
      <point x="121" y="767" type="line"/>
      <point x="121" y="733"/>
      <point x="121" y="702"/>
      <point x="121" y="668" type="curve" smooth="yes"/>
      <point x="121" y="661"/>
      <point x="125" y="657"/>
      <point x="132" y="657" type="curve"/>
      <point x="479" y="657" type="line"/>
      <point x="479" y="691"/>
      <point x="479" y="722"/>
      <point x="479" y="756" type="curve" smooth="yes"/>
      <point x="479" y="762"/>
      <point x="474" y="767"/>
      <point x="468" y="767" type="curve"/>
    </contour>
  </outline>
</glyph>
<glyph name="degree" format="1">
  <advance width="600"/>
  <unicode hex="00B0"/>
  <outline>
    <contour>
      <point x="300" y="451" type="curve"/>
      <point x="248" y="451"/>
      <point x="218" y="474"/>
      <point x="218" y="515" type="curve" smooth="yes"/>
      <point x="218" y="557" type="line" smooth="yes"/>
      <point x="218" y="598"/>
      <point x="249" y="621"/>
      <point x="300" y="621" type="curve" smooth="yes"/>
      <point x="333" y="621"/>
      <point x="350" y="620"/>
      <point x="372" y="617" type="curve"/>
      <point x="375" y="671"/>
      <point x="363" y="710"/>
      <point x="300" y="710" type="curve"/>
      <point x="194" y="710"/>
      <point x="127" y="654"/>
      <point x="127" y="565" type="curve" smooth="yes"/>
      <point x="127" y="507" type="line" smooth="yes"/>
      <point x="127" y="418"/>
      <point x="194" y="362"/>
      <point x="300" y="362" type="curve"/>
      <point x="309" y="362"/>
      <point x="309" y="422"/>
    </contour>
    <contour>
      <point x="300" y="621" type="curve"/>
      <point x="352" y="621"/>
      <point x="382" y="598"/>
      <point x="382" y="557" type="curve" smooth="yes"/>
      <point x="382" y="515" type="line" smooth="yes"/>
      <point x="382" y="474"/>
      <point x="351" y="451"/>
      <point x="300" y="451" type="curve" smooth="yes"/>
      <point x="267" y="451"/>
      <point x="251" y="452"/>
      <point x="228" y="455" type="curve"/>
      <point x="225" y="402"/>
      <point x="237" y="362"/>
      <point x="300" y="362" type="curve"/>
      <point x="406" y="362"/>
      <point x="473" y="418"/>
      <point x="473" y="507" type="curve" smooth="yes"/>
      <point x="473" y="565" type="line" smooth="yes"/>
      <point x="473" y="654"/>
      <point x="406" y="710"/>
      <point x="300" y="710" type="curve"/>
      <point x="287" y="710"/>
      <point x="289" y="653"/>
    </contour>
  </outline>
</glyph>
<glyph name="plusminus" format="1">
  <advance width="600"/>
  <unicode hex="00B1"/>
  <outline>
    <contour>
      <point x="63" y="450" type="line"/>
      <point x="63" y="410"/>
      <point x="63" y="380"/>
      <point x="63" y="340" type="curve" smooth="yes"/>
      <point x="63" y="337"/>
      <point x="64" y="334"/>
      <point x="66" y="332" type="curve" smooth="yes"/>
      <point x="68" y="330"/>
      <point x="71" y="329"/>
      <point x="74" y="329" type="curve"/>
      <point x="537" y="329" type="line"/>
      <point x="537" y="369"/>
      <point x="537" y="399"/>
      <point x="537" y="439" type="curve" smooth="yes"/>
      <point x="537" y="445"/>
      <point x="532" y="450"/>
      <point x="526" y="450" type="curve"/>
    </contour>
    <contour>
      <point x="366" y="228" type="curve"/>
      <point x="366" y="540" type="line" smooth="yes"/>
      <point x="366" y="543"/>
      <point x="365" y="546"/>
      <point x="363" y="548" type="curve" smooth="yes"/>
      <point x="361" y="550"/>
      <point x="358" y="551"/>
      <point x="355" y="551" type="curve" smooth="yes"/>
      <point x="316" y="551"/>
      <point x="281" y="551"/>
      <point x="234" y="551" type="curve"/>
      <point x="234" y="523"/>
      <point x="234" y="488"/>
      <point x="234" y="453" type="curve" smooth="yes"/>
      <point x="234" y="239" type="line" smooth="yes"/>
      <point x="234" y="233"/>
      <point x="239" y="228"/>
      <point x="245" y="228" type="curve" smooth="yes"/>
      <point x="288" y="228"/>
      <point x="323" y="228"/>
    </contour>
    <contour>
      <point x="63" y="162" type="line"/>
      <point x="63" y="122"/>
      <point x="63" y="93"/>
      <point x="63" y="52" type="curve" smooth="yes"/>
      <point x="63" y="49"/>
      <point x="64" y="46"/>
      <point x="66" y="44" type="curve" smooth="yes"/>
      <point x="68" y="42"/>
      <point x="71" y="41"/>
      <point x="74" y="41" type="curve"/>
      <point x="537" y="41" type="line"/>
      <point x="537" y="82"/>
      <point x="537" y="111"/>
      <point x="537" y="151" type="curve" smooth="yes"/>
      <point x="537" y="157"/>
      <point x="532" y="162"/>
      <point x="526" y="162" type="curve"/>
    </contour>
  </outline>
</glyph>
